<svg width="23" height="12" viewBox="0 0 23 12" fill="none" xmlns="http://www.w3.org/2000/svg">
<path d="M16.1182 5.62717C16.1182 5.62717 12.1248 8.32155 12.8706 11.2565C12.3753 10.8467 12.0512 10.2664 11.9622 9.62982C11.8731 8.9932 12.0256 8.3463 12.3894 7.81635C13.6163 6.27671 11.4271 9.54846 8.90112 5.65124C11.3068 1.75401 13.3998 5.19415 12.3894 3.48611C12.0256 2.95616 11.8731 2.30927 11.9622 1.67265C12.0512 1.03603 12.3753 0.455759 12.8706 0.0459671C12.9201 1.16957 13.2415 2.2644 13.8071 3.2365C14.3728 4.20859 15.1658 5.02894 16.1182 5.62717Z" fill="#C09068"/>
<path d="M12.8225 7.33522C12.5147 8.05402 12.0313 8.68396 11.4165 9.16718C10.8018 9.6504 10.0754 9.97142 9.3042 10.1007C8.53303 10.2301 7.74169 10.1636 7.00293 9.90733C6.26417 9.65109 5.60164 9.21334 5.07617 8.63429C1.20302 5.07386 0.00012207 5.48284 0.00012207 5.48284C0.00012207 5.48284 1.80446 5.48283 5.02808 2.45166C9.6951 -2.02293 12.7021 4.03941 12.7021 4.03941L12.8225 7.33522Z" fill="#C09068"/>
<path d="M19.5343 8.34561C18.1127 8.34561 16.9602 7.19315 16.9602 5.77152C16.9602 4.34989 18.1127 3.19743 19.5343 3.19743C20.9559 3.19743 22.1084 4.34989 22.1084 5.77152C22.1084 7.19315 20.9559 8.34561 19.5343 8.34561Z" fill="#C09068"/>
</svg>
