<svg width="23" height="12" viewBox="0 0 23 12" fill="none" xmlns="http://www.w3.org/2000/svg">
<path d="M5.99023 5.58121C5.99023 5.58121 9.98355 8.27559 9.23779 11.2105C9.73305 10.8007 10.0572 10.2205 10.1462 9.58385C10.2353 8.94723 10.0828 8.30033 9.71899 7.77039C8.4921 6.23074 10.6813 9.50249 13.2073 5.60527C10.8016 1.70805 8.70861 5.14818 9.71899 3.44014C10.0828 2.9102 10.2353 2.26331 10.1462 1.62669C10.0572 0.990066 9.73305 0.409792 9.23779 0C9.18826 1.12361 8.86693 2.21843 8.30127 3.19053C7.73561 4.16263 6.94263 4.98298 5.99023 5.58121Z" fill="#C09068"/>
<path d="M9.28589 7.28925C9.59371 8.00806 10.0771 8.63799 10.6919 9.12121C11.3066 9.60443 12.033 9.92545 12.8042 10.0548C13.5754 10.1841 14.3667 10.1176 15.1055 9.86136C15.8442 9.60513 16.5068 9.16738 17.0322 8.58832C20.9054 5.02789 22.1083 5.43687 22.1083 5.43687C22.1083 5.43687 20.3039 5.43686 17.0803 2.40569C12.4133 -2.0689 9.40625 3.99345 9.40625 3.99345L9.28589 7.28925Z" fill="#C09068"/>
<path d="M2.5741 8.29964C3.99572 8.29964 5.14819 7.14718 5.14819 5.72555C5.14819 4.30392 3.99572 3.15146 2.5741 3.15146C1.15247 3.15146 0 4.30392 0 5.72555C0 7.14718 1.15247 8.29964 2.5741 8.29964Z" fill="#C09068"/>
</svg>
