<svg width="110" height="22" viewBox="0 0 110 22" fill="none" xmlns="http://www.w3.org/2000/svg">
<path d="M0.356445 19.5212C0.695384 19.0935 0.995241 18.6658 1.36025 18.25C1.72526 17.8342 2.1033 17.4421 2.49439 17.0619C3.29142 16.2865 4.16408 15.5786 5.10161 14.9471C6.05751 14.315 7.08445 13.7774 8.16511 13.3432C9.24704 12.9066 10.3736 12.5683 11.5284 12.3333C12.6815 12.0965 13.8547 11.9494 15.0351 11.8937C16.2073 11.8278 17.3828 11.8278 18.5549 11.8937C19.7281 11.965 20.8753 12.1076 22.0225 12.2739C23.1696 12.4402 24.3038 12.666 25.4249 12.9036C26.546 13.1412 27.6671 13.4145 28.7622 13.6996L32.0603 14.5669L35.3324 15.4461C36.4144 15.7194 37.5094 15.9926 38.5914 16.2184C39.6597 16.4464 40.7444 16.6052 41.8374 16.6936C42.3669 16.7259 42.8983 16.7259 43.4278 16.6936C43.9644 16.6705 44.4971 16.5989 45.0182 16.4797C45.4751 16.3561 45.9131 16.1805 46.3218 15.957C46.7364 15.7149 47.1135 15.4232 47.4429 15.0897C48.1093 14.3571 48.614 13.5139 48.929 12.6066L49.9589 13.0343C49.8285 13.2006 49.7243 13.3313 49.5939 13.462L49.2158 13.8541C48.9566 14.109 48.6824 14.3509 48.3946 14.5788C47.8164 15.0449 47.1771 15.444 46.4913 15.7669C46.3179 15.8512 46.1395 15.9266 45.9568 15.9926C45.7782 16.0616 45.5954 16.1211 45.4093 16.1708C45.2255 16.2278 45.0383 16.2754 44.8487 16.3134H44.5619H44.4186H44.2621C43.5043 16.3953 42.7386 16.3953 41.9808 16.3134C41.1969 16.2326 40.4365 16.019 39.7386 15.6837C39.0383 15.3402 38.4322 14.8568 37.9657 14.2699C37.5078 13.6883 37.18 13.0303 37.001 12.3333C36.8225 11.649 36.7696 10.9424 36.8446 10.2423C36.9167 9.54282 37.1195 8.85974 37.4442 8.22254C37.7698 7.57504 38.251 7.00252 38.8521 6.54734C39.4657 6.09177 40.2057 5.79982 40.99 5.7038H41.2768H42.411H42.6978C42.8915 5.72727 43.0831 5.763 43.2714 5.81072C44.054 5.96743 44.7403 6.39293 45.1877 6.99881C45.3904 7.31836 45.5121 7.67526 45.5437 8.04328C45.5752 8.41129 45.516 8.78108 45.3702 9.12548C45.2316 9.47141 45.0087 9.7842 44.7184 10.0403C44.4232 10.2965 44.0589 10.4769 43.6624 10.5631C43.2726 10.6488 42.866 10.6488 42.4761 10.5631C42.1029 10.4689 41.747 10.3248 41.4202 10.1354C41.379 10.1049 41.3512 10.0621 41.3417 10.0145C41.3322 9.96701 41.3417 9.91794 41.3685 9.87626C41.3954 9.83458 41.4377 9.80303 41.4878 9.78735C41.538 9.77168 41.5926 9.7729 41.6418 9.79081C41.9334 9.9518 42.2498 10.0719 42.5805 10.1472C42.8975 10.2168 43.2281 10.2168 43.5451 10.1472C43.8523 10.0612 44.1317 9.90798 44.359 9.70088C44.5862 9.49378 44.7544 9.23912 44.8487 8.95915C44.9618 8.68246 45.0053 8.38616 44.976 8.09211C44.9467 7.79805 44.8452 7.51375 44.6792 7.26019C44.305 6.76684 43.7345 6.42589 43.0888 6.30972C42.9261 6.27149 42.7606 6.2437 42.5935 6.22655H42.3458H41.3159H41.0683C40.4098 6.31731 39.7917 6.57224 39.2823 6.96317C38.7737 7.36677 38.3725 7.87056 38.1091 8.43639C37.838 9.0052 37.6749 9.61183 37.6267 10.2304C37.5004 11.4658 37.8659 12.7014 38.6566 13.7115C39.0498 14.2069 39.5627 14.6134 40.1557 14.8996C40.7509 15.1715 41.3963 15.3407 42.059 15.3986C42.3933 15.4184 42.7285 15.4184 43.0628 15.3986C43.4168 15.382 43.7694 15.3462 44.1187 15.2916H44.223H44.3403H44.588C44.7313 15.2983 44.8749 15.2983 45.0182 15.2916C45.1782 15.245 45.3349 15.1895 45.4875 15.1253C45.6439 15.0664 45.7963 14.999 45.9438 14.9233C46.5463 14.6312 47.1068 14.272 47.6124 13.8541C47.8688 13.6445 48.1125 13.4224 48.3424 13.1887L48.6683 12.8323L48.9551 12.4759L50.9887 9.70764L50.011 12.9155C49.9328 13.1769 49.8676 13.4501 49.7764 13.7115L49.633 14.1036L49.5548 14.3055L49.4635 14.4956L49.281 14.8758L49.0594 15.256C48.9061 15.5067 48.7363 15.7487 48.551 15.9807C48.1518 16.4364 47.682 16.8367 47.1561 17.1688C46.6181 17.4918 46.0349 17.7475 45.4223 17.9292C44.8225 18.0903 44.2069 18.1978 43.5842 18.25C42.9766 18.2874 42.3668 18.2874 41.7592 18.25C40.5798 18.1838 39.4076 18.0368 38.2525 17.8104C37.1053 17.5965 35.9842 17.347 34.8761 17.0619L31.5649 16.2065L28.2798 15.2916C27.1848 15.0065 26.1028 14.7451 25.0078 14.4956C23.9127 14.2461 22.8177 14.0204 21.7227 13.8303C20.6276 13.6402 19.5195 13.4976 18.4115 13.3907C17.312 13.2812 16.2062 13.2336 15.1003 13.2481C13.999 13.2683 12.9009 13.3636 11.8152 13.5333C10.7311 13.7063 9.66639 13.9687 8.63439 14.3174C7.60022 14.6667 6.60854 15.1126 5.6752 15.6481C4.75145 16.1903 3.8793 16.8024 3.06798 17.4777L2.45528 18.0005C2.2467 18.1668 2.06418 18.3688 1.86864 18.547C1.46452 18.9034 1.11255 19.3193 0.734504 19.7351C0.699994 19.7659 0.654214 19.7839 0.605965 19.7858C0.557715 19.7876 0.5104 19.7732 0.473169 19.7451C0.435937 19.7171 0.411414 19.6775 0.404304 19.634C0.397195 19.5904 0.407998 19.5461 0.434659 19.5094L0.356445 19.5212Z" fill="#C09068"/>
<path d="M109.677 19.7352C109.299 19.3432 108.934 18.9392 108.53 18.5471C108.335 18.3689 108.152 18.1669 107.944 18.0006L107.331 17.4778C106.519 16.8026 105.647 16.1906 104.724 15.6482C103.79 15.1127 102.799 14.6668 101.764 14.3175C100.732 13.9689 99.6677 13.7064 98.5836 13.5334C97.4979 13.3637 96.3998 13.2684 95.2985 13.2482C94.1926 13.2337 93.0868 13.2813 91.9873 13.3908C90.8793 13.4977 89.7842 13.6403 88.6761 13.8304C87.5681 14.0205 86.4861 14.2462 85.3911 14.4957C84.296 14.7452 83.214 15.0066 82.119 15.2917L78.8469 16.1709L75.5357 17.0264C74.4277 17.2996 73.3066 17.561 72.1594 17.7749C71.0042 18.0013 69.832 18.1482 68.6527 18.2145C68.045 18.2519 67.4353 18.2519 66.8276 18.2145C66.2049 18.1622 65.5893 18.0548 64.9895 17.8937C64.3768 17.7121 63.7937 17.4563 63.2557 17.1333C62.7299 16.8011 62.26 16.4009 61.8609 15.9452C61.6753 15.7133 61.5055 15.4713 61.3524 15.2205C61.2742 15.0898 61.196 14.971 61.1308 14.8403L60.9483 14.4601L60.8571 14.27L60.6615 14.1036L60.5181 13.7116C60.4269 13.4502 60.3617 13.1769 60.2835 12.9155L59.3579 9.68393L61.3915 12.4522L61.6783 12.8086L62.0042 13.165C62.2341 13.3988 62.4778 13.6209 62.7343 13.8304C63.2399 14.2482 63.8004 14.6074 64.4029 14.8997C64.5504 14.9752 64.7028 15.0427 64.8592 15.1016C65.0117 15.1657 65.1685 15.2213 65.3284 15.268C65.4862 15.3202 65.6473 15.3638 65.8108 15.3987H66.0585H66.1758H66.2801C66.6294 15.4533 66.982 15.489 67.336 15.5056C67.6703 15.5254 68.0056 15.5254 68.3398 15.5056C69.0026 15.4477 69.6479 15.2785 70.2431 15.0066C70.8361 14.7204 71.349 14.314 71.7422 13.8185C72.5375 12.81 72.9077 11.5743 72.7851 10.3374C72.7372 9.71876 72.5741 9.11209 72.3028 8.54335C72.0394 7.97752 71.6382 7.47372 71.1295 7.07011C70.6201 6.67918 70.002 6.42424 69.3436 6.33349H69.0959H68.066H67.8183C67.6513 6.35063 67.4858 6.37842 67.323 6.41666C66.6773 6.53283 66.1068 6.87379 65.7326 7.36714C65.5666 7.62071 65.4652 7.90501 65.4359 8.19906C65.4065 8.49312 65.45 8.78942 65.5631 9.06612C65.6575 9.34609 65.8256 9.60075 66.0528 9.80785C66.2801 10.015 66.5595 10.1682 66.8667 10.2542C67.1838 10.3238 67.5144 10.3238 67.8314 10.2542C68.1621 10.1789 68.4785 10.0588 68.77 9.89778C68.8192 9.87987 68.8739 9.87865 68.924 9.89433C68.9742 9.91 69.0165 9.94155 69.0433 9.98323C69.0701 10.0249 69.0796 10.074 69.0702 10.1215C69.0607 10.1691 69.0328 10.2119 68.9916 10.2423C68.6648 10.4318 68.3089 10.5759 67.9357 10.67C67.5458 10.7558 67.1392 10.7558 66.7494 10.67C66.353 10.5838 65.9886 10.4035 65.6934 10.1473C65.4034 9.89091 65.1806 9.5782 65.0416 9.23245C64.8958 8.88805 64.8366 8.51825 64.8681 8.15023C64.8997 7.78221 65.0214 7.42531 65.2242 7.10576C65.6715 6.49987 66.3578 6.07437 67.1405 5.91766C67.3287 5.86997 67.5204 5.83424 67.7141 5.81073H68.0009H69.135H69.4218C70.2062 5.90675 70.9461 6.1987 71.5597 6.65428C72.1608 7.10947 72.642 7.68199 72.9676 8.32949C73.2923 8.9667 73.4951 9.64979 73.5673 10.3493C73.6425 11.0494 73.5896 11.756 73.4109 12.4403C73.2319 13.1373 72.9041 13.7953 72.4462 14.3769C71.9796 14.9639 71.3735 15.4472 70.6733 15.7907C69.9754 16.126 69.2149 16.3396 68.431 16.4204C67.6733 16.5023 66.9075 16.5023 66.1497 16.4204H65.9933H65.8499H65.5631C65.3735 16.3825 65.1863 16.3349 65.0025 16.2779C64.8164 16.2282 64.6336 16.1687 64.455 16.0996C64.2724 16.0336 64.0939 15.9583 63.9206 15.8739C63.2347 15.551 62.5955 15.152 62.0173 14.6858C61.7293 14.458 61.4551 14.2161 61.196 13.9611L60.8179 13.569C60.6876 13.4264 60.5833 13.3076 60.4529 13.1413L61.4828 12.7136C61.7798 13.6349 62.2714 14.4945 62.9298 15.2442C63.2593 15.5776 63.6364 15.8693 64.0509 16.1115C64.4597 16.3349 64.8977 16.5105 65.3545 16.6343C65.8548 16.7456 66.3654 16.8132 66.8797 16.8363C67.4093 16.8686 67.9406 16.8686 68.4701 16.8363C69.5631 16.7479 70.6478 16.5891 71.7162 16.361C72.7982 16.1353 73.8802 15.8739 74.9752 15.5888L78.2472 14.7096L81.5454 13.8423C82.6535 13.569 83.7615 13.2957 84.8826 13.0462C86.0037 12.7967 87.1379 12.5948 88.2851 12.4165C89.4323 12.2383 90.5925 12.1076 91.7527 12.0364C92.9248 11.9704 94.1003 11.9704 95.2724 12.0364C96.4529 12.0921 97.626 12.2391 98.7791 12.476C99.934 12.7109 101.061 13.0491 102.142 13.4858C103.223 13.9199 104.25 14.4576 105.206 15.0898C106.144 15.7213 107.016 16.4292 107.813 17.2046C108.204 17.5967 108.595 17.9887 108.947 18.3927C109.299 18.7966 109.625 19.2362 109.951 19.6639C109.978 19.7006 109.989 19.745 109.981 19.7886C109.974 19.8321 109.95 19.8717 109.913 19.8997C109.875 19.9278 109.828 19.9422 109.78 19.9404C109.732 19.9385 109.686 19.9205 109.651 19.8897L109.677 19.7352Z" fill="#C09068"/>
<path d="M109.625 19.7826L109.312 19.4737L108.934 19.1054C108.778 18.9628 108.621 18.7727 108.4 18.6064L107.709 18.0123C107.577 17.8945 107.437 17.7835 107.292 17.6797L106.822 17.3351C106.077 16.7993 105.284 16.3223 104.45 15.9094C102.212 14.8141 99.7017 14.2656 97.1626 14.3174C95.5926 14.3466 94.0313 14.5379 92.5087 14.8876C90.8127 15.2776 89.1522 15.786 87.5419 16.4084C86.6945 16.7292 85.8472 17.0856 84.9347 17.4539L82.3274 18.642C81.428 19.046 80.5154 19.4618 79.5116 19.8301L79.3292 19.9014H79.2248H79.1336L78.7686 20.0202L78.0255 20.2578L77.2825 20.4955L76.5003 20.7093C74.3796 21.3135 72.1948 21.7118 69.9822 21.8974C67.6216 22.085 65.2432 21.9164 62.9427 21.3984C61.7537 21.1115 60.6004 20.7134 59.5012 20.2103C58.3885 19.6761 57.3474 19.0262 56.3986 18.2737C54.4792 16.7289 52.9759 14.8019 52.0054 12.6421C51.5103 11.5569 51.1475 10.4254 50.9234 9.26794C50.6874 8.0928 50.6173 6.89498 50.7149 5.70364V5.4779V5.24028L50.7801 4.82445C50.7801 4.69376 50.78 4.52742 50.8713 4.37297C50.9625 4.21852 50.9365 4.06407 50.9886 3.92149C51.151 3.31764 51.3964 2.73484 51.7187 2.18687C52.039 1.61005 52.4822 1.09712 53.0223 0.677988L53.2439 0.523534L53.4916 0.392842C53.6587 0.305342 53.833 0.229868 54.013 0.167105C54.3812 0.0489922 54.7699 -0.0073634 55.1602 0.000770036C55.5431 0.0221052 55.9185 0.106645 56.2683 0.250272C56.594 0.397955 56.8929 0.590285 57.1547 0.820558C57.641 1.25292 58.0267 1.77013 58.2888 2.34132C58.5449 2.88263 58.7329 3.4486 58.8494 4.02842C58.8494 4.171 58.8494 4.31357 58.9276 4.45614C59.0059 4.59871 58.9276 4.74128 58.9276 4.88385V5.31157C58.9276 5.46602 58.9276 5.59671 58.9276 5.73928C59.0405 8.01006 58.5951 10.2751 57.624 12.3689C56.2367 15.4746 53.7187 18.0505 50.4933 19.6638C49.4406 20.16 48.3356 20.5581 47.1951 20.8519C44.9619 21.3984 42.6455 21.6071 40.3381 21.4697C38.1318 21.3411 35.9467 20.9986 33.8201 20.4479L33.0509 20.2578L32.2948 20.0321L31.5387 19.8064L31.1607 19.6994H31.0694H30.9651L30.7826 19.64L30.0526 19.3786L29.3356 19.0935L28.0711 18.4876L25.4639 17.2995C24.5905 16.943 23.7301 16.5985 22.8567 16.2777C19.8067 15.0673 16.5344 14.3902 13.2099 14.2817C10.6631 14.2531 8.15038 14.8175 5.90971 15.9213C5.07897 16.3345 4.2856 16.8073 3.53713 17.3351L3.06785 17.6797C2.92258 17.7797 2.78331 17.8868 2.65068 18.0005L1.94672 18.5945C1.7251 18.7727 1.56867 18.9509 1.41223 19.0816L1.03421 19.4499L0.72132 19.747C0.704521 19.7565 0.68479 19.7608 0.665067 19.7592C0.645344 19.7577 0.626713 19.7503 0.611996 19.7382C0.59728 19.7261 0.587264 19.71 0.583472 19.6923C0.579679 19.6746 0.582334 19.6563 0.590991 19.64L0.877787 19.3192L1.22975 18.9272C1.38869 18.7409 1.55838 18.5624 1.73814 18.3925L2.41604 17.751C2.54361 17.6256 2.67851 17.5066 2.82016 17.3945L3.27643 17.0262C4.0135 16.439 4.8076 15.9141 5.64897 15.4579C6.6913 14.8909 7.80251 14.4364 8.96016 14.1035C10.3483 13.75 11.7817 13.5663 13.223 13.557C14.8557 13.5556 16.4831 13.7271 18.0724 14.0679C19.8201 14.4502 21.5329 14.9546 23.1956 15.5767C24.0647 15.8936 24.9338 16.2421 25.8028 16.6223L28.4101 17.8104C29.3096 18.2024 30.209 18.6064 31.1476 18.9985L31.3301 19.0579H31.4084H31.4996L31.8646 19.1767L32.5947 19.4024L33.3377 19.6282L34.0938 19.8301C36.1573 20.3978 38.281 20.7642 40.4294 20.9232C42.6692 21.0937 44.9245 20.9251 47.1039 20.4242C48.2142 20.128 49.2886 19.7299 50.3107 19.2361C51.3441 18.7371 52.3108 18.1311 53.1917 17.4302C54.0803 16.7275 54.8725 15.9297 55.5512 15.054C56.2408 14.1614 56.8181 13.2009 57.272 12.1907C57.7346 11.1736 58.0755 10.114 58.2888 9.03031C58.5127 7.94593 58.5784 6.83936 58.4844 5.73928C58.4382 5.19353 58.3379 4.65271 58.1846 4.12347C58.0392 3.60089 57.8201 3.0977 57.5328 2.62647C57.2734 2.16555 56.9089 1.76047 56.4638 1.43837C56.2618 1.29765 56.0376 1.1855 55.7989 1.1057C55.5756 1.04195 55.3419 1.01382 55.108 1.02253C54.8812 1.0477 54.6608 1.10797 54.4562 1.20075C54.2453 1.30554 54.0521 1.43759 53.8826 1.59282C53.5158 1.93318 53.2276 2.33719 53.0353 2.78092C52.8197 3.24651 52.6623 3.73273 52.566 4.2304C52.566 4.36109 52.566 4.4799 52.5008 4.59871C52.4356 4.71752 52.5008 4.83633 52.5008 4.9789V5.39474V5.76305C52.4052 7.86913 52.8284 9.96799 53.7392 11.9055C54.1771 12.8677 54.7278 13.7839 55.3818 14.6381L55.6295 14.947C55.7077 15.054 55.7989 15.1609 55.8902 15.256L56.4247 15.85L56.9983 16.4084C57.1938 16.5866 57.4024 16.753 57.611 16.9312C58.4424 17.6049 59.3516 18.1944 60.3225 18.6896C61.2984 19.1763 62.3245 19.5742 63.386 19.8777C65.5063 20.4101 67.7088 20.6189 69.904 20.4955C72.0257 20.3781 74.1276 20.0555 76.1744 19.5331L76.9175 19.3549L77.6735 19.141L78.4166 18.9272L78.7816 18.8202H78.8729H78.9511H79.1206C80.0461 18.5113 80.9586 18.1074 81.8712 17.7272L84.5566 16.5985C85.4431 16.2421 86.3295 15.8975 87.1638 15.5886C88.8581 14.9828 90.6015 14.4982 92.3783 14.1391C93.9737 13.8123 95.6057 13.6567 97.2408 13.6758C98.683 13.695 100.116 13.8868 101.504 14.2461C102.673 14.5661 103.797 15.0087 104.854 15.5649C105.692 16.0212 106.486 16.5419 107.226 17.1213L107.683 17.4896C107.829 17.6013 107.968 17.7203 108.1 17.846L108.791 18.4876C108.999 18.6777 109.156 18.8559 109.299 19.0103L109.664 19.4024L109.964 19.7232C109.976 19.7349 109.985 19.7486 109.991 19.7636C109.998 19.7786 110.001 19.7946 110 19.8106C109.999 19.8266 109.995 19.8423 109.988 19.8569C109.981 19.8714 109.97 19.8846 109.958 19.8955C109.945 19.9064 109.93 19.9149 109.913 19.9205C109.897 19.9261 109.879 19.9287 109.862 19.9282C109.844 19.9276 109.827 19.9239 109.811 19.9173C109.795 19.9107 109.78 19.9012 109.769 19.8895L109.625 19.7826Z" fill="#C09068"/>
</svg>
