<svg width="128" height="129" viewBox="0 0 128 129" fill="none" xmlns="http://www.w3.org/2000/svg">
<path d="M41.8042 42.0931C42.0094 41.8546 42.2023 41.6057 42.3818 41.3473C42.9168 40.5967 43.3685 39.79 43.7289 38.9416C44.4467 37.2094 44.8851 35.3743 45.0279 33.5048C45.1341 32.5615 45.1341 31.6093 45.0279 30.666C45.0279 30.4255 45.0279 30.1849 44.8836 29.9684C44.7393 29.7519 44.8835 29.5354 44.7151 29.2948C44.5467 29.0542 44.4266 28.4047 44.2823 27.9476C42.8996 24.3737 40.3585 21.3667 37.0652 19.4074C35.4596 18.4296 33.7274 17.6768 31.917 17.1701C30.1337 16.6621 28.3045 16.3317 26.4561 16.1838C24.6222 16.051 22.781 16.051 20.9471 16.1838C20.0329 16.1838 19.1187 16.3281 18.2286 16.4484H16.2559V17.3866C16.2559 17.531 16.2559 17.6272 16.2559 17.7475V18.4211C16.2559 19.3112 16.0876 20.2253 15.9914 21.1395C15.8587 22.9734 15.8587 24.8146 15.9914 26.6485C16.1393 28.4969 16.4696 30.3261 16.9776 32.1094C17.4843 33.9198 18.2372 35.652 19.215 37.2576C21.1743 40.5509 24.1813 43.0921 27.7552 44.4747C28.1882 44.6431 28.6453 44.7875 29.1023 44.9077L29.7759 45.0761L30.4737 45.2205C31.4169 45.3267 32.369 45.3267 33.3123 45.2205C35.1819 45.0777 37.0169 44.6392 38.7491 43.9214C39.5975 43.561 40.4042 43.1092 41.1548 42.5742L41.8042 42.0931ZM18.1084 18.397H18.5413C19.4073 18.2527 20.2734 18.1805 21.1395 18.0843C22.8834 17.9351 24.6349 17.8949 26.3838 17.964C29.8866 18.0431 33.3222 18.9411 36.4156 20.5862C39.5108 22.3038 41.9351 25.0164 43.2957 28.2844C43.4641 28.6934 43.6086 29.1023 43.753 29.5354C43.8973 29.9684 43.8732 29.9443 43.9454 30.1849C44.0175 30.4255 43.9453 30.5939 44.0896 30.8104C44.2377 31.6761 44.2862 32.5559 44.2341 33.4326C44.1296 35.2231 43.7398 36.9854 43.0794 38.6529C42.7544 39.4994 42.3346 40.3064 41.8283 41.0586L41.3233 41.7082L40.6736 42.2134C39.9214 42.7197 39.1145 43.1393 38.268 43.4643C36.6005 44.1248 34.8382 44.5146 33.0477 44.6191C32.1709 44.671 31.291 44.6226 30.4253 44.4747L29.7999 44.3304L29.1504 44.1379L27.8995 43.6808C24.6315 42.3203 21.9188 39.8958 20.2012 36.8006C18.5562 33.7071 17.6581 30.2716 17.579 26.7688C17.5101 25.0199 17.5504 23.2683 17.6995 21.5244C17.6995 20.6584 17.8679 19.7923 18.0123 18.9263L18.1084 18.397ZM34.9482 35.2369C35.317 33.9696 35.8507 32.7564 36.5358 31.6283C36.9985 30.872 37.513 30.1486 38.0755 29.4632L38.5086 28.9339L38.9415 28.4528L39.3986 27.9957L39.8797 27.5386C41.2161 26.3695 42.6669 25.3379 44.21 24.4593C45.7574 23.5492 47.3648 22.7455 49.0213 22.0537C50.6719 21.3556 52.3583 20.7453 54.0733 20.2253C60.9539 18.2061 68.1766 17.6247 75.2915 18.5173C77.0477 18.7338 78.8278 19.0225 80.5599 19.4074C82.2919 19.7923 84.0239 20.2253 85.732 20.7546C89.0786 21.7745 92.3051 23.1538 95.3548 24.8683C96.8758 25.7338 98.3385 26.6981 99.7332 27.7552C101.118 28.8093 102.421 29.9674 103.63 31.2193C106.04 33.6818 107.973 36.5692 109.332 39.7355C110.672 42.8337 111.258 46.206 111.04 49.5748C110.941 51.2449 110.516 52.8796 109.789 54.3862C109.154 55.8057 107.988 56.9199 106.541 57.4895C105.835 57.7206 105.082 57.7702 104.352 57.6339C103.604 57.4885 102.887 57.2116 102.235 56.8159C100.913 55.9938 99.7542 54.9334 98.8189 53.6885C96.9916 51.0783 95.7148 48.1235 95.0661 45.004C94.3638 42.0134 93.9768 38.9576 93.9114 35.8864C93.832 32.9017 94.0092 29.9157 94.4407 26.9613C95.2017 21.3378 96.9614 15.8956 99.6369 10.8912C100.872 8.55427 102.5 6.44675 104.448 4.66049C105.393 3.82667 106.445 3.1228 107.576 2.56754C108.676 2.0345 109.853 1.67732 111.064 1.50903C113.406 1.21326 115.783 1.58868 117.92 2.59159C119.952 3.5045 121.764 4.84152 123.237 6.51288C123.928 7.29758 124.51 8.17143 124.969 9.11103C125.401 10.0243 125.723 10.9851 125.931 11.9738C126.295 13.8649 126.295 15.8082 125.931 17.6994C125.655 19.4146 125.024 21.0533 124.079 22.5107C123.329 23.705 122.246 24.6536 120.964 25.2393C119.681 25.8251 118.255 26.0222 116.862 25.8065C115.647 25.6459 114.473 25.2626 113.397 24.6759C112.517 24.1977 111.76 23.5226 111.184 22.7032C110.7 21.979 110.38 21.1581 110.246 20.2975C109.982 19.1671 110.136 17.9795 110.679 16.9536C110.811 16.7232 111.002 16.5322 111.232 16.4003H111.401C111.466 16.3816 111.524 16.3422 111.564 16.2879C111.605 16.2336 111.627 16.1675 111.627 16.0996C111.627 16.0316 111.605 15.9655 111.564 15.9112C111.524 15.857 111.466 15.8175 111.401 15.7989H110.992C110.578 15.8855 110.201 16.0952 109.909 16.4003C109.416 16.962 109.044 17.6193 108.816 18.3313C108.589 19.0432 108.51 19.7945 108.586 20.5381C108.657 21.634 108.987 22.6975 109.548 23.6414C110.237 24.7749 111.206 25.7113 112.363 26.3598C113.653 27.0715 115.064 27.5365 116.525 27.7311C117.324 27.8285 118.132 27.8285 118.93 27.7311C120.72 27.5274 122.402 26.7705 123.742 25.566C124.459 24.9269 125.083 24.1899 125.594 23.3768C126.64 21.6703 127.304 19.7584 127.543 17.7715C127.828 15.6588 127.705 13.5112 127.182 11.4445C126.906 10.3507 126.502 9.29296 125.979 8.29309C125.437 7.26569 124.766 6.31174 123.982 5.45438C122.358 3.6757 120.384 2.25078 118.185 1.26847C117.031 0.760794 115.819 0.3972 114.576 0.185902C111.96 -0.266659 109.268 0.111933 106.878 1.26847C105.662 1.86342 104.53 2.61563 103.51 3.50576C101.443 5.36138 99.7094 7.55847 98.386 10.0011C95.5604 15.1144 93.6855 20.6977 92.8528 26.4801C92.3984 29.5132 92.2052 32.5797 92.2754 35.6458C92.3401 38.8181 92.7597 41.9732 93.5264 45.0521C93.9221 46.6314 94.4451 48.1761 95.0901 49.671C95.743 51.2093 96.5921 52.6567 97.6161 53.9772C98.1471 54.6441 98.7347 55.2639 99.3724 55.8296C100.013 56.4094 100.714 56.9176 101.465 57.3452C102.209 57.7853 103.023 58.0945 103.871 58.2593C104.781 58.4172 105.716 58.3427 106.589 58.0428C107.449 57.728 108.223 57.2173 108.851 56.5513C109.468 55.9063 109.98 55.1674 110.366 54.3621C111.102 52.7736 111.527 51.0586 111.617 49.3102C111.721 47.5708 111.608 45.8253 111.28 44.1139C111.28 43.6808 111.112 43.2719 111.016 42.8388C110.92 42.4058 110.799 42.0209 110.679 41.5879C110.438 40.7459 110.102 39.928 109.789 39.1822C108.461 36.0162 106.597 33.1028 104.28 30.5698C103.056 29.2711 101.737 28.0649 100.335 26.9613C98.9037 25.8524 97.401 24.8398 95.836 23.9301C94.2778 22.9967 92.6718 22.1455 91.0246 21.3801C89.3887 20.6343 87.7048 19.9607 85.9727 19.3593C84.2406 18.7579 82.5084 18.2527 80.7282 17.7956C78.948 17.3385 77.1677 16.9776 75.3394 16.6649C71.6733 16.0821 67.9552 15.8966 64.2493 16.1116C60.5062 16.3207 56.8005 16.9666 53.2073 18.0361C49.5726 19.0788 46.1114 20.6514 42.9351 22.7032C41.3422 23.7442 39.866 24.9541 38.5325 26.3117L38.0514 26.841L37.5704 27.3943L37.1133 27.9717L36.7043 28.525C36.1605 29.2923 35.6702 30.0961 35.2369 30.9307C34.6769 32.0113 34.2332 33.1483 33.9136 34.3227C32.7393 34.6425 31.6023 35.086 30.5217 35.6458C29.6871 36.0793 28.8833 36.5696 28.116 37.1133L27.5627 37.5223L26.9854 37.9793L26.4322 38.4605L25.9028 38.9416C24.5451 40.2751 23.3353 41.7511 22.2942 43.344C20.2424 46.5203 18.6699 49.9816 17.6272 53.6164C16.5577 57.2095 15.9118 60.9154 15.7027 64.6585C15.4879 68.3644 15.6733 72.0826 16.2559 75.7487C16.5686 77.577 16.9055 79.3572 17.3866 81.1375C17.8678 82.9177 18.3488 84.6498 18.9502 86.3819C19.5517 88.114 20.2254 89.7739 20.9711 91.4338C21.7366 93.081 22.5878 94.687 23.5212 96.2452C24.4413 97.7862 25.462 99.2648 26.5765 100.672C27.6801 102.074 28.8861 103.393 30.1849 104.617C32.7458 107.054 35.7188 109.017 38.9656 110.415C39.7836 110.728 40.5774 111.064 41.3713 111.305L42.6222 111.642L43.8973 111.906C45.6087 112.234 47.3542 112.347 49.0936 112.243C50.842 112.153 52.557 111.728 54.1454 110.992C54.9509 110.606 55.69 110.095 56.3348 109.477C57.0008 108.849 57.5114 108.075 57.8262 107.215C58.1342 106.344 58.2168 105.409 58.0667 104.497C57.9023 103.648 57.593 102.835 57.1525 102.091C56.7249 101.34 56.2168 100.639 55.637 99.9981C55.0713 99.3605 54.4516 98.7729 53.7847 98.2419C52.5347 97.1644 51.1523 96.2509 49.6709 95.5235C48.1759 94.8787 46.6313 94.3558 45.052 93.9598C41.9732 93.1931 38.8181 92.7735 35.6458 92.7089C32.5797 92.6386 29.5131 92.8318 26.48 93.2862C20.6977 94.1189 15.1145 95.9937 10.0013 98.8193C7.55862 100.143 5.36152 101.876 3.50591 103.943C2.61555 104.963 1.86331 106.095 1.2686 107.311C0.112076 109.701 -0.266479 112.393 0.186081 115.01C0.397377 116.252 0.760933 117.464 1.2686 118.618C2.25375 120.809 3.6784 122.774 5.45439 124.392C6.31191 125.175 7.26588 125.846 8.29314 126.389C9.293 126.911 10.3507 127.315 11.4446 127.591C13.5112 128.115 15.6589 128.237 17.7715 127.952C19.7584 127.714 21.6703 127.049 23.3768 126.004C24.1897 125.492 24.9267 124.868 25.566 124.151C26.7705 122.812 27.5273 121.13 27.731 119.34C27.8284 118.541 27.8284 117.733 27.731 116.934C27.5364 115.474 27.0715 114.062 26.3599 112.772C25.678 111.601 24.6987 110.63 23.5212 109.958C22.5772 109.396 21.5138 109.067 20.4179 108.995C19.6742 108.918 18.9227 108.996 18.2105 109.224C17.4983 109.451 16.841 109.824 16.2801 110.319C15.975 110.61 15.7652 110.988 15.6785 111.401C15.6644 111.513 15.6644 111.626 15.6785 111.738C15.6972 111.803 15.7366 111.861 15.7908 111.902C15.8451 111.943 15.9113 111.965 15.9793 111.965C16.0473 111.965 16.1135 111.943 16.1678 111.902C16.222 111.861 16.2614 111.803 16.2801 111.738C16.2741 111.682 16.2741 111.625 16.2801 111.569C16.412 111.339 16.6029 111.148 16.8333 111.016C17.8592 110.473 19.0469 110.319 20.1773 110.583C21.0379 110.717 21.8588 111.037 22.5829 111.521C23.4023 112.097 24.0773 112.855 24.5555 113.735C25.1422 114.81 25.5257 115.984 25.6863 117.199C25.902 118.592 25.7049 120.018 25.1192 121.301C24.5335 122.583 23.5847 123.666 22.3904 124.416C20.933 125.361 19.2942 125.992 17.579 126.268C15.6879 126.633 13.7447 126.633 11.8536 126.268C10.8649 126.061 9.90416 125.738 8.99089 125.306C8.05129 124.847 7.17732 124.265 6.39262 123.574C4.69572 122.109 3.33382 120.295 2.39922 118.257C1.39631 116.121 1.02093 113.743 1.3167 111.401C1.48498 110.19 1.84225 109.013 2.37529 107.913C2.93054 106.782 3.63437 105.73 4.46819 104.785C6.25443 102.837 8.36182 101.209 10.6988 99.974C15.7105 97.2958 21.1611 95.536 26.7928 94.7778C29.7472 94.3462 32.7334 94.1691 35.7181 94.2485C38.7892 94.3137 41.845 94.7007 44.8355 95.4032C47.8878 96.0765 50.7749 97.3524 53.3276 99.1561C54.5724 100.091 55.6328 101.25 56.4549 102.572C56.851 103.224 57.1279 103.941 57.2728 104.689C57.4091 105.419 57.3595 106.172 57.1285 106.878C56.5588 108.325 55.4447 109.491 54.0252 110.126C52.5186 110.854 50.8839 111.279 49.2138 111.377C45.8451 111.595 42.4728 111.009 39.3746 109.669C36.2149 108.301 33.3358 106.36 30.8826 103.943C29.6307 102.734 28.4726 101.431 27.4184 100.046C26.3615 98.6514 25.3972 97.1888 24.5315 95.6679C22.8169 92.6182 21.4377 89.3918 20.4179 86.0451C19.8886 84.3611 19.4556 82.629 19.0707 80.8729C18.6858 79.1167 18.397 77.3605 18.1805 75.6044C17.2878 68.4894 17.8692 61.2668 19.8885 54.3862C20.4084 52.6711 21.0188 50.9848 21.7168 49.3342C22.4087 47.6777 23.2126 46.0702 24.1226 44.5228C25.0012 42.9798 26.0326 41.529 27.2017 40.1926L27.6587 39.7114L28.116 39.2544L28.5971 38.8213L29.1265 38.3883C29.8119 37.8258 30.5352 37.3114 31.2915 36.8487C32.4069 36.1317 33.6121 35.5655 34.8759 35.1647L34.9482 35.2369Z" fill="#C09068"/>
<path d="M53.1833 19.672H54.001C54.801 19.5937 55.6068 19.5937 56.4068 19.672C57.608 19.7475 58.7999 19.9327 59.9673 20.2253C61.4958 20.6039 62.9795 21.1443 64.3936 21.8371C66.0737 22.6482 67.6358 23.6842 69.0367 24.9164C70.6038 26.2766 71.8592 27.9587 72.7173 29.8481C73.5913 31.8906 74.0101 34.0988 73.9444 36.3194C73.9238 38.6143 73.3193 40.8661 72.188 42.8629C71.6078 43.8381 70.8487 44.6951 69.9507 45.3889C69.0625 46.0734 68.0367 46.5576 66.9436 46.8082C64.7884 47.2105 62.5625 46.9679 60.5446 46.1106C59.5935 45.7567 58.7134 45.2353 57.9463 44.5709C57.2198 43.9183 56.6732 43.0899 56.3587 42.1652C56.0594 41.334 55.9525 40.4457 56.0459 39.5671C56.1315 38.7297 56.3679 37.9146 56.7437 37.1614C57.3666 35.8287 58.4281 34.7502 59.7508 34.1062C60.7457 33.6518 61.8658 33.55 62.9263 33.8175C63.6355 34.0047 64.3096 34.3053 64.9229 34.7076L65.428 35.0444L65.5965 35.1647C65.6648 35.2068 65.746 35.2231 65.8252 35.2107C65.9045 35.1983 65.9766 35.1581 66.0289 35.0971C66.0811 35.0362 66.1098 34.9587 66.1099 34.8784C66.11 34.7982 66.0816 34.7205 66.0296 34.6595L65.8851 34.4911L65.404 34.034C64.7671 33.4608 64.0232 33.0193 63.2149 32.7349C62.62 32.5249 61.9933 32.4191 61.3625 32.4222C60.6099 32.4298 59.8662 32.5851 59.1734 32.8793C58.4042 33.2139 57.703 33.6868 57.1045 34.2746C56.4543 34.9175 55.9173 35.6658 55.5166 36.4878C55.0721 37.3828 54.8025 38.3545 54.7227 39.3506C54.6187 40.44 54.7837 41.5384 55.2032 42.5492C55.6226 43.5601 56.2837 44.4525 57.1285 45.1483C58.0173 45.8614 59.0281 46.4075 60.1116 46.7601C61.1942 47.1304 62.3164 47.3727 63.4554 47.4818C64.6327 47.5918 65.8203 47.5023 66.9678 47.2172C68.1326 46.9147 69.2219 46.3741 70.1673 45.6294C71.132 44.8816 71.9481 43.9595 72.573 42.911C73.7472 40.841 74.3764 38.5067 74.4014 36.127C74.47 33.8235 74.0348 31.5329 73.1263 29.4151C72.2408 27.4672 70.9632 25.7229 69.3733 24.2909C67.9248 23.0011 66.3059 21.9164 64.5621 21.0673C63.1148 20.3434 61.6 19.7632 60.0394 19.3352C58.8269 19.0058 57.587 18.7883 56.3348 18.6857C55.5343 18.6171 54.7294 18.6171 53.929 18.6857H53.087C52.9859 18.7193 52.8998 18.7872 52.8434 18.8775C52.7871 18.9679 52.7641 19.075 52.7784 19.1806C52.7926 19.2861 52.8433 19.3833 52.9216 19.4554C52.9998 19.5276 53.101 19.5702 53.2073 19.5758L53.1833 19.672Z" fill="#C09068"/>
<path d="M19.3832 53.472V53.6885C19.3832 53.8329 19.3832 54.0494 19.3832 54.2899C19.3049 55.0899 19.3049 55.8956 19.3832 56.6956C19.4585 57.8968 19.6438 59.0886 19.9366 60.2561C20.3148 61.7847 20.8552 63.2686 21.5484 64.6825C22.3595 66.3627 23.3955 67.9247 24.6277 69.3255C25.9879 70.8927 27.67 72.1481 29.5594 73.0062C31.6018 73.8802 33.81 74.2988 36.0306 74.2331C38.3254 74.2126 40.5773 73.6082 42.574 72.477C43.5492 71.8967 44.4061 71.1377 45.0999 70.2397C45.7845 69.3515 46.2687 68.3256 46.5193 67.2326C46.9216 65.0773 46.6791 62.8513 45.8218 60.8334C45.468 59.8823 44.9465 59.0024 44.2822 58.2353C43.6295 57.5087 42.8012 56.962 41.8765 56.6475C41.0452 56.3483 40.1569 56.2413 39.2784 56.3348C38.4409 56.4203 37.6258 56.6566 36.8726 57.0324C35.5668 57.6687 34.5152 58.7287 33.8895 60.0395C33.4351 61.0345 33.3334 62.1545 33.6009 63.2151C33.7885 63.9241 34.0891 64.5983 34.491 65.2118L34.8278 65.717L34.948 65.8854C34.9901 65.9537 35.0066 66.0348 34.9942 66.114C34.9818 66.1933 34.9415 66.2656 34.8805 66.3178C34.8196 66.37 34.7419 66.3988 34.6617 66.3989C34.5814 66.399 34.504 66.3704 34.4429 66.3184L34.2745 66.1741L33.8173 65.6929C33.2441 65.056 32.8027 64.312 32.5184 63.5037C32.3088 62.9087 32.203 62.2822 32.2056 61.6513C32.2132 60.8987 32.3685 60.1549 32.6626 59.4622C32.9973 58.693 33.4702 57.9918 34.0579 57.3933C34.7011 56.7433 35.4494 56.2066 36.2712 55.8055C37.1661 55.3609 38.1377 55.0915 39.1338 55.0116C40.2233 54.9076 41.3216 55.0726 42.3324 55.4921C43.3433 55.9115 44.2359 56.5726 44.9317 57.4173C45.6448 58.3061 46.1909 59.3168 46.5435 60.4004C46.9138 61.483 47.156 62.6053 47.2652 63.7443C47.3751 64.9216 47.2856 66.1091 47.0005 67.2566C46.698 68.4214 46.1573 69.5108 45.4126 70.4562C44.6648 71.4209 43.7428 72.2369 42.6943 72.8619C40.6243 74.0361 38.2901 74.6652 35.9104 74.6902C33.607 74.7588 31.3163 74.3237 29.1985 73.4152C27.2403 72.5249 25.4873 71.239 24.0502 69.6383C22.7606 68.1895 21.676 66.5706 20.8267 64.8269C20.1029 63.3795 19.5227 61.8647 19.0945 60.3042C18.7648 59.0918 18.5475 57.8516 18.4451 56.5994C18.3766 55.799 18.3766 54.9941 18.4451 54.1937C18.4451 53.905 18.4451 53.6885 18.4451 53.5682V53.3517C18.4788 53.2507 18.5464 53.1646 18.6368 53.1083C18.7271 53.0519 18.8345 53.0289 18.94 53.0432C19.0455 53.0574 19.1427 53.1081 19.2149 53.1864C19.287 53.2647 19.3296 53.3657 19.3353 53.472H19.3832Z" fill="#C09068"/>
<path d="M11.3725 11.6611L12.2867 11.3002C14.4793 10.4796 16.742 9.85958 19.0467 9.44782C20.1919 9.24954 21.3492 9.12897 22.5108 9.08696H25.9988C28.3167 9.25652 30.6042 9.71722 32.8071 10.4582C34.9771 11.1852 36.9924 12.3111 38.7491 13.7781C39.6423 14.4832 40.4497 15.2906 41.1548 16.1838C41.4842 16.6356 41.7816 17.1099 42.045 17.6031C42.1653 17.8437 42.3095 18.1083 42.4057 18.3489C42.508 18.584 42.5965 18.825 42.6705 19.0706L43.0552 20.2494L43.8733 19.3593C44.2342 18.9744 44.6671 18.5654 45.0761 18.2045C45.4851 17.8437 45.9421 17.4588 46.3992 17.0979C48.2139 15.7836 50.1562 14.6552 52.1968 13.73C53.2395 13.2262 54.3074 12.7765 55.3964 12.3828C56.479 11.9738 57.5856 11.637 58.7162 11.3483C59.2695 11.204 59.847 11.0596 60.4003 10.9393L61.2422 10.771L62.1082 10.6266C63.2629 10.4342 64.5139 10.3139 65.5724 10.2176C66.1498 10.2176 66.7271 10.2176 67.3045 10.2176H70.7688L72.5008 10.3379C73.0781 10.3379 73.6556 10.4823 74.257 10.5304H75.1231L77.721 10.9634L79.4532 11.3002L81.1614 11.6611L82.8692 12.07L84.5774 12.5031L86.2613 12.9842L87.9454 13.5134L89.6053 14.0908C90.6878 14.4998 91.7945 14.9328 92.8289 15.438C93.8866 15.9157 94.9077 16.4705 95.8841 17.0979C95.9498 17.1216 96.0216 17.1225 96.0879 17.1007C96.1543 17.0788 96.2114 17.0353 96.2502 16.9771C96.2889 16.919 96.3071 16.8496 96.3018 16.7799C96.2965 16.7102 96.268 16.6443 96.2209 16.5927C95.2243 15.9221 94.1789 15.327 93.0934 14.8125C92.0349 14.2833 90.9283 13.8262 89.8217 13.3932L88.1619 12.7677L86.4778 12.1903L84.7698 11.6851L83.0618 11.228L81.3296 10.795L79.5976 10.4101L77.8655 10.0492L76.1093 9.7365L75.2432 9.59216H74.3532C73.7758 9.59216 73.1986 9.42376 72.5972 9.37564L70.8167 9.20725H67.2564C66.655 9.20725 66.0536 9.20725 65.4762 9.20725C64.2975 9.20725 63.0705 9.3997 61.9158 9.59216L61.0257 9.7365L60.1355 9.9049C59.5582 9.9049 58.9568 10.1695 58.3794 10.2898C57.2247 10.5785 55.9738 10.9153 54.9394 11.3243C53.8104 11.7162 52.7023 12.1659 51.6194 12.6715C49.4623 13.615 47.407 14.7757 45.485 16.1356C45.0039 16.4965 44.5227 16.8814 44.0656 17.2663C43.5953 17.6684 43.1457 18.0939 42.7184 18.5413L43.9454 18.83C43.8459 18.5097 43.7254 18.1962 43.5845 17.8918C43.4642 17.6031 43.3198 17.3144 43.1514 17.0498C42.851 16.5059 42.5135 15.9835 42.1412 15.4861C41.399 14.4917 40.5432 13.5875 39.5911 12.7917C37.7155 11.2848 35.579 10.1351 33.2881 9.39971C30.9496 8.64532 28.5243 8.1926 26.0711 8.05252H22.4627C21.2514 8.11518 20.0457 8.25985 18.854 8.48554C16.497 8.94096 14.1861 9.60928 11.9498 10.4823L10.6268 11.0115L10.0975 12.3346C9.22472 14.5711 8.55643 16.882 8.10075 19.239C7.87521 20.4307 7.73046 21.6363 7.66765 22.8475C7.66765 23.1603 7.66765 23.4489 7.66765 23.7617C7.66765 24.0744 7.66765 24.0504 7.66765 24.2188V24.6759C7.66765 25.2773 7.66765 25.8787 7.66765 26.4801C7.80772 28.9333 8.26044 31.3586 9.01482 33.6972C9.76572 36.0375 10.949 38.2163 12.5031 40.1204C13.2987 41.0726 14.2029 41.9285 15.1974 42.6704C15.6947 43.0429 16.2174 43.3805 16.7613 43.6808L17.6031 44.1139C17.9075 44.2548 18.2209 44.3754 18.5413 44.4747L18.2527 43.2478C17.8054 43.6752 17.3798 44.1249 16.9776 44.595C16.5927 45.0521 16.2078 45.5332 15.847 46.0143C14.4089 47.942 13.1754 50.014 12.1663 52.197C11.6606 53.2798 11.211 54.3879 10.8191 55.5168C10.4102 56.6475 10.0734 57.8022 9.78471 58.957C9.66443 59.5343 9.49606 60.1117 9.39983 60.7131L9.23137 61.6032L9.08696 62.4934C8.89451 63.6721 8.79842 64.899 8.70219 66.0538C8.70219 66.6552 8.70219 67.2566 8.70219 67.834C8.70219 68.4114 8.70219 69.0368 8.70219 69.6142C8.70219 70.1916 8.70219 70.793 8.70219 71.3944C8.70219 71.9958 8.70201 72.5973 8.87041 73.1746C9.0388 73.752 9.01479 74.3534 9.08696 74.9308V75.3638C9.08696 75.5322 9.08696 75.6525 9.08696 75.8209L9.23137 76.6869C9.23137 77.2643 9.42395 77.8657 9.54424 78.4431L9.90508 80.1752C9.90508 80.7526 10.1696 81.3299 10.2898 81.9073C10.4101 82.4846 10.5546 83.062 10.7229 83.6394C10.8913 84.2168 11.0116 84.7941 11.18 85.3474L11.6852 87.0555L12.2625 88.7395L12.8881 90.3994C13.3211 91.506 13.778 92.5886 14.3073 93.6711C14.8228 94.7483 15.4178 95.7856 16.0874 96.7745C16.139 96.8216 16.205 96.8501 16.2747 96.8554C16.3444 96.8607 16.4138 96.8426 16.472 96.8038C16.5301 96.765 16.5736 96.7079 16.5955 96.6416C16.6174 96.5752 16.6165 96.5034 16.5928 96.4377C15.9652 95.4614 15.4104 94.4403 14.9329 93.3825C14.4277 92.324 13.9947 91.2414 13.5857 90.1588L13.0083 88.4989L12.479 86.839L11.998 85.155C11.8296 84.6017 11.7091 84.0243 11.5647 83.4469C11.4204 82.8696 11.3003 82.3163 11.18 81.7389C11.0597 81.1615 10.9154 80.6082 10.8191 80.0308L10.4825 78.2988C10.4825 77.7214 10.2899 77.144 10.1936 76.5667L9.929 74.8346C9.929 74.2572 9.76067 73.6558 9.73662 73.0784C9.71256 72.501 9.73654 71.9237 9.61626 71.3463C9.49597 70.7689 9.61626 70.1916 9.61626 69.6142C9.61626 69.0368 9.61626 68.4595 9.61626 67.8821C9.61626 67.3047 9.61626 66.7274 9.61626 66.15C9.61626 64.9953 9.83286 63.7443 10.0253 62.6858L10.1697 61.8198L10.3381 60.9778C10.3381 60.4004 10.6027 59.8471 10.747 59.2938C11.0597 58.1872 11.3723 57.0565 11.7813 55.9739C12.1751 54.885 12.6248 53.817 13.1286 52.7744C14.1318 50.6891 15.3493 48.7138 16.7613 46.8804C17.1221 46.4233 17.4829 45.9903 17.8678 45.5573C18.2528 45.1242 18.6376 44.6912 19.0225 44.3544L19.9126 43.5365L18.7338 43.1516L18.0123 42.8869L17.2664 42.5261C16.7732 42.2627 16.2988 41.9653 15.847 41.636C14.9538 40.9309 14.1464 40.1235 13.4413 39.2303C11.9996 37.3666 10.9297 35.2432 10.2898 32.9755C9.54885 30.7727 9.08817 28.4853 8.91862 26.1674C8.91862 25.59 8.91862 25.0126 8.91862 24.4112V23.9782C8.91862 23.8579 8.91862 23.6895 8.91862 23.5452C8.91862 23.4008 8.91862 22.9678 8.91862 22.6791C8.96071 21.5176 9.08138 20.3602 9.27959 19.2149C9.69147 16.9102 10.3114 14.6477 11.1319 12.4549L11.3725 11.6611Z" fill="#C09068"/>
<path d="M17.4827 17.7475C18.0682 17.5969 18.6629 17.4844 19.263 17.4107H20.1292C20.1898 17.4107 20.2477 17.3866 20.2906 17.3437C20.3334 17.3009 20.3576 17.2427 20.3576 17.1821C20.3576 17.1215 20.3334 17.0634 20.2906 17.0205C20.2477 16.9777 20.1898 16.9536 20.1292 16.9536H19.263C18.5332 17.0192 17.8095 17.1398 17.0979 17.3144C16.9233 18.026 16.8027 18.7498 16.7371 19.4796C16.7371 19.7682 16.7371 19.9848 16.7371 20.1291V20.3456C16.7371 20.4062 16.7611 20.4644 16.804 20.5072C16.8469 20.5501 16.905 20.5742 16.9656 20.5742C17.0262 20.5742 17.0844 20.5501 17.1272 20.5072C17.1701 20.4644 17.1941 20.4062 17.1941 20.3456V20.1291C17.1941 19.9848 17.1941 19.7682 17.1941 19.4796C17.2541 18.8967 17.3504 18.3182 17.4827 17.7475Z" fill="#C09068"/>
<path d="M24.1946 24.4834C25.1647 24.6618 26.1044 24.9777 26.9853 25.4216C27.9329 25.9104 28.7558 26.61 29.3909 27.4665C29.6302 27.7655 29.8247 28.0977 29.9683 28.4528C29.8511 28.0853 29.6807 27.7368 29.4629 27.4183C28.8549 26.488 28.0293 25.72 27.0574 25.181C25.9721 24.5734 24.7934 24.1507 23.5693 23.9301C23.7898 25.1542 24.2125 26.333 24.8201 27.4183C25.3591 28.3903 26.1271 29.216 27.0574 29.824C27.3757 30.0421 27.7242 30.2123 28.0918 30.3292C27.7368 30.1857 27.4045 29.9912 27.1055 29.7519C26.249 29.1168 25.5497 28.2938 25.0608 27.3462C24.635 26.4389 24.3431 25.4746 24.1946 24.4834Z" fill="#C09068"/>
<path d="M87.5603 27.4183L87.1514 27.2259L85.9966 26.6966C85.4914 26.4801 84.89 26.2155 84.1683 25.9509C83.4465 25.6863 82.6528 25.3976 81.7627 25.1089C80.8726 24.8202 79.8862 24.5315 78.8277 24.2909C77.7692 24.0504 76.6626 23.7857 75.5079 23.5933L73.7277 23.3287C73.1263 23.3287 72.5008 23.1843 71.8993 23.1122L70.023 22.9919C69.3975 22.9919 68.7719 22.9919 68.1224 22.9919H64.3455C63.1258 23.1013 61.9133 23.278 60.7131 23.5211C60.1357 23.5211 59.5582 23.7857 59.0049 23.906C58.4516 24.0263 57.9224 24.2188 57.3931 24.3631C56.4184 24.6673 55.4626 25.0288 54.5304 25.4457C53.6403 25.8065 52.8946 26.2396 52.1248 26.5764L50.4407 27.6108L49.0455 28.6212L50.585 27.8514L52.3653 27.0575L53.4959 26.6245L54.7469 26.1914C55.1799 26.0471 55.6369 25.8787 56.1181 25.7584C56.5992 25.6381 57.0804 25.4697 57.6097 25.3495C58.6441 25.1089 59.7267 24.8924 60.8573 24.6999C61.988 24.5075 63.2629 24.4112 64.3695 24.315H68.0262C68.6276 24.315 69.2531 24.315 69.8545 24.315H71.6829C72.8857 24.315 74.0886 24.5075 75.2193 24.6759L78.5149 25.181L81.45 25.7584C83.2543 26.1433 84.7698 26.5282 85.8283 26.8169L87.0552 27.1537L87.5603 27.4183Z" fill="#C09068"/>
<path d="M27.1296 87.8493L26.9371 87.4404C26.8168 87.1758 26.6245 86.7909 26.408 86.2857C26.1915 85.7805 25.9268 85.179 25.6622 84.4573C25.3975 83.7356 25.1088 82.9417 24.8201 82.0516C24.5314 81.1615 24.2428 80.1752 24.0022 79.1167C23.7617 78.0582 23.4969 76.9516 23.3045 75.7968C23.3045 75.2195 23.112 74.618 23.0398 74.0166C22.9677 73.4152 22.8957 72.7897 22.8235 72.1883C22.7514 71.5869 22.8233 70.9373 22.703 70.3119C22.5828 69.6864 22.703 69.0609 22.703 68.4114C22.703 67.7618 22.703 67.1363 22.703 66.5109V64.6344C22.8127 63.4148 22.9895 62.2021 23.2325 61.0018C23.2325 60.4245 23.4969 59.8471 23.6172 59.2938C23.7375 58.7405 23.9299 58.2112 24.0743 57.682C24.3785 56.7073 24.7401 55.7514 25.1569 54.8192C25.5178 53.9291 25.9509 53.1833 26.2876 52.4135C26.6244 51.6437 27.0334 51.1866 27.3221 50.7295L28.3324 49.3342L27.5625 50.8739L26.7686 52.6541L26.3357 53.7847C26.1673 54.1697 26.047 54.6027 25.9026 55.0357C25.7583 55.4687 25.5899 55.9258 25.4697 56.407C25.3494 56.8881 25.1811 57.3692 25.0608 57.8985C24.8203 58.9329 24.6036 60.0155 24.4112 61.1462C24.2187 62.2768 24.1225 63.5518 24.0263 64.6585V66.6552C24.0263 67.2566 24.0263 67.8821 24.0263 68.4835C24.0263 69.085 24.0263 69.7104 24.0263 70.3119C24.0263 70.9133 24.0263 71.5387 24.0263 72.1402C24.0263 73.343 24.2186 74.5459 24.387 75.6766C24.5554 76.8072 24.6999 77.9379 24.8924 78.9724C25.0848 80.0068 25.2772 80.9931 25.4697 81.9073C25.8546 83.7115 26.2394 85.2272 26.5281 86.2857L26.865 87.5126L27.1296 87.8493Z" fill="#C09068"/>
<path d="M63.5391 38.6684C62.1138 38.5025 61.0929 37.2125 61.2588 35.7872C61.4248 34.3619 62.7146 33.341 64.1399 33.507C65.5652 33.6729 66.5863 34.9628 66.4203 36.3881C66.2544 37.8134 64.9644 38.8343 63.5391 38.6684Z" fill="#C09068"/>
<path d="M33.2281 64.4068C33.0622 62.9815 34.0831 61.6915 35.5083 61.5256C36.9336 61.3597 38.2235 62.3807 38.3895 63.806C38.5554 65.2312 37.5345 66.5212 36.1092 66.6871C34.6839 66.8531 33.394 65.8321 33.2281 64.4068Z" fill="#C09068"/>
<path d="M109.797 21.9025C108.321 20.0374 108.637 17.3292 110.502 15.8536C112.367 14.378 115.075 14.6937 116.551 16.5588C118.027 18.424 117.711 21.1322 115.846 22.6078C113.981 24.0834 111.273 23.7676 109.797 21.9025Z" fill="#C09068"/>
<path d="M16.2696 116.859C14.4045 115.383 14.0889 112.675 15.5645 110.81C17.0401 108.945 19.7482 108.629 21.6133 110.105C23.4784 111.581 23.7943 114.289 22.3186 116.154C20.843 118.019 18.1347 118.335 16.2696 116.859Z" fill="#C09068"/>
<path d="M44.8125 13.5578C43.9224 12.9297 43.71 11.6988 44.3382 10.8087C44.9663 9.9185 46.1972 9.70613 47.0873 10.3343C47.9775 10.9625 48.1898 12.1933 47.5617 13.0835C46.9335 13.9736 45.7027 14.186 44.8125 13.5578Z" fill="#C09068"/>
<path d="M9.99931 47.4071C9.37115 46.5169 9.58341 45.286 10.4736 44.6579C11.3637 44.0297 12.5945 44.2421 13.2227 45.1323C13.8509 46.0224 13.6385 47.2533 12.7483 47.8814C11.8582 48.5096 10.6275 48.2972 9.99931 47.4071Z" fill="#C09068"/>
<path d="M49.9998 10.6746C49.2073 10.1155 49.0181 9.01986 49.5772 8.22731C50.1363 7.43477 51.2319 7.24548 52.0245 7.80456C52.817 8.36364 53.0064 9.4594 52.4473 10.252C51.8882 11.0445 50.7923 11.2337 49.9998 10.6746Z" fill="#C09068"/>
<path d="M7.52983 52.3191C6.97076 51.5265 7.16014 50.4309 7.95268 49.8718C8.74522 49.3127 9.84087 49.5019 10.3999 50.2945C10.959 51.087 10.7699 52.1828 9.97734 52.7419C9.1848 53.301 8.08891 53.1116 7.52983 52.3191Z" fill="#C09068"/>
<path d="M55.3772 8.67359C54.6498 8.16046 54.4762 7.15475 54.9893 6.42735C55.5024 5.69994 56.508 5.52629 57.2354 6.03942C57.9628 6.55255 58.1365 7.55818 57.6233 8.28559C57.1102 9.01299 56.1046 9.18672 55.3772 8.67359Z" fill="#C09068"/>
<path d="M5.69341 57.5529C5.18015 56.8256 5.35367 55.8198 6.08098 55.3066C6.80829 54.7933 7.81394 54.9669 8.32719 55.6942C8.84045 56.4216 8.66693 57.4272 7.93962 57.9405C7.21231 58.4537 6.20666 58.2802 5.69341 57.5529Z" fill="#C09068"/>
<path d="M60.4028 7.74189C59.7839 7.30535 59.6361 6.44978 60.0727 5.83094C60.5092 5.2121 61.3649 5.06433 61.9837 5.50087C62.6025 5.93741 62.7503 6.79298 62.3138 7.41182C61.8772 8.03065 61.0216 8.17843 60.4028 7.74189Z" fill="#C09068"/>
<path d="M5.04485 62.4054C4.6082 61.7866 4.7558 60.931 5.37456 60.4944C5.99332 60.0577 6.84892 60.2054 7.28557 60.8242C7.72221 61.4429 7.57462 62.2985 6.95586 62.7352C6.3371 63.1718 5.48149 63.0242 5.04485 62.4054Z" fill="#C09068"/>
<path d="M65.3685 7.48174C64.7823 7.06808 64.6424 6.25756 65.0561 5.67136C65.4697 5.08516 66.2803 4.94527 66.8665 5.35894C67.4527 5.77261 67.5924 6.58313 67.1788 7.16932C66.7651 7.75552 65.9546 7.89541 65.3685 7.48174Z" fill="#C09068"/>
<path d="M5.15288 67.0895C4.73921 66.5033 4.87919 65.6928 5.46538 65.2791C6.05157 64.8655 6.86201 65.0053 7.27568 65.5915C7.68935 66.1777 7.54961 66.9883 6.96342 67.402C6.37724 67.8156 5.56654 67.6757 5.15288 67.0895Z" fill="#C09068"/>
<path d="M69.929 7.51739C69.4296 7.16501 69.3105 6.4746 69.6629 5.97524C70.0153 5.47589 70.7058 5.3567 71.2051 5.70908C71.7045 6.06147 71.8236 6.75197 71.4712 7.25132C71.1189 7.75067 70.4283 7.86978 69.929 7.51739Z" fill="#C09068"/>
<path d="M5.43144 71.5018C5.07906 71.0024 5.1982 70.3119 5.69756 69.9595C6.19691 69.6071 6.88741 69.7263 7.23979 70.2257C7.59218 70.725 7.47303 71.4155 6.97368 71.7679C6.47433 72.1203 5.78383 72.0011 5.43144 71.5018Z" fill="#C09068"/>
<path d="M74.0022 7.84837C73.568 7.54195 73.4644 6.9415 73.7708 6.50728C74.0772 6.07306 74.6776 5.9695 75.1119 6.27592C75.5461 6.58234 75.6497 7.18278 75.3433 7.617C75.0369 8.05122 74.4365 8.15479 74.0022 7.84837Z" fill="#C09068"/>
<path d="M6.00993 75.4038C5.70351 74.9696 5.80704 74.3691 6.24126 74.0627C6.67548 73.7563 7.2759 73.8599 7.58232 74.2941C7.88874 74.7283 7.7851 75.3287 7.35088 75.6351C6.91666 75.9415 6.31635 75.838 6.00993 75.4038Z" fill="#C09068"/>
<path d="M77.653 8.6645C77.2731 8.39631 77.1825 7.87098 77.4507 7.49108C77.7189 7.11119 78.2442 7.02059 78.6241 7.28877C79.004 7.55696 79.0946 8.0823 78.8265 8.4622C78.5583 8.84209 78.0329 8.93268 77.653 8.6645Z" fill="#C09068"/>
<path d="M7.1132 78.8399C6.84509 78.46 6.93578 77.9347 7.31572 77.6665C7.69566 77.3984 8.22094 77.489 8.48906 77.869C8.75718 78.2489 8.6666 78.7742 8.28667 79.0423C7.90673 79.3105 7.38132 79.2199 7.1132 78.8399Z" fill="#C09068"/>
<path d="M81.21 9.37684C80.9061 9.16235 80.8335 8.74202 81.048 8.43807C81.2625 8.13412 81.6829 8.06164 81.9869 8.27613C82.2908 8.49063 82.3632 8.91087 82.1487 9.21482C81.9342 9.51877 81.514 9.59134 81.21 9.37684Z" fill="#C09068"/>
<path d="M8.05888 82.2116C7.84444 81.9076 7.91701 81.4874 8.22099 81.273C8.52498 81.0585 8.94527 81.1311 9.15971 81.4351C9.37415 81.739 9.30159 82.1594 8.9976 82.3738C8.69362 82.5883 8.27332 82.5156 8.05888 82.2116Z" fill="#C09068"/>
<path d="M84.4291 10.2611C84.1577 10.0696 84.0928 9.69441 84.2842 9.42295C84.4756 9.1515 84.8509 9.08662 85.1224 9.27804C85.3938 9.46946 85.4587 9.84469 85.2673 10.1161C85.0758 10.3876 84.7006 10.4525 84.4291 10.2611Z" fill="#C09068"/>
<path d="M9.00151 85.3792C8.81009 85.1078 8.87483 84.7325 9.14629 84.5411C9.41774 84.3497 9.793 84.4146 9.98442 84.686C10.1758 84.9575 10.111 85.3327 9.83952 85.5242C9.56807 85.7156 9.19293 85.6507 9.00151 85.3792Z" fill="#C09068"/>
<path d="M86.9209 10.9252C86.7038 10.7721 86.6519 10.4718 86.8051 10.2547C86.9583 10.0376 87.2585 9.98574 87.4756 10.1389C87.6928 10.2921 87.7445 10.5923 87.5914 10.8094C87.4382 11.0265 87.1381 11.0784 86.9209 10.9252Z" fill="#C09068"/>
<path d="M9.77007 87.8073C9.61689 87.5902 9.66866 87.29 9.88579 87.1368C10.1029 86.9836 10.4033 87.0355 10.5564 87.2526C10.7096 87.4698 10.6577 87.7699 10.4406 87.923C10.2235 88.0762 9.92324 88.0245 9.77007 87.8073Z" fill="#C09068"/>
<path d="M89.1499 11.7101C88.998 11.6028 88.9619 11.3927 89.0691 11.2407C89.1764 11.0888 89.3867 11.0526 89.5386 11.1598C89.6906 11.2671 89.7267 11.4772 89.6194 11.6292C89.5122 11.7812 89.3019 11.8174 89.1499 11.7101Z" fill="#C09068"/>
<path d="M10.8728 89.8242C10.7656 89.6722 10.8019 89.462 10.9539 89.3548C11.1059 89.2475 11.3161 89.2838 11.4234 89.4358C11.5306 89.5878 11.4943 89.798 11.3423 89.9052C11.1904 90.0124 10.9801 89.9762 10.8728 89.8242Z" fill="#C09068"/>
<path d="M91.0572 12.829C90.9378 12.7446 90.9096 12.5795 90.9939 12.4601C91.0783 12.3408 91.2434 12.3124 91.3627 12.3968C91.482 12.4812 91.5104 12.6463 91.4261 12.7657C91.3417 12.885 91.1765 12.9133 91.0572 12.829Z" fill="#C09068"/>
<path d="M12.0558 91.6932C11.9715 91.5738 11.9998 91.4086 12.1192 91.3243C12.2385 91.2399 12.4037 91.2684 12.4881 91.3878C12.5724 91.5071 12.544 91.6722 12.4246 91.7565C12.3053 91.8409 12.1402 91.8126 12.0558 91.6932Z" fill="#C09068"/>
</svg>
