<svg width="128" height="129" viewBox="0 0 128 129" fill="none" xmlns="http://www.w3.org/2000/svg">
<path d="M85.8881 42.0931C85.6829 41.8546 85.4901 41.6057 85.3106 41.3473C84.7756 40.5967 84.3239 39.79 83.9635 38.9416C83.2457 37.2094 82.8073 35.3743 82.6645 33.5048C82.5582 32.5615 82.5582 31.6093 82.6645 30.666C82.6645 30.4255 82.6645 30.1849 82.8088 29.9684C82.9531 29.7519 82.8089 29.5354 82.9772 29.2948C83.1456 29.0542 83.2658 28.4047 83.4101 27.9476C84.7927 24.3737 87.3339 21.3667 90.6272 19.4074C92.2328 18.4296 93.965 17.6768 95.7753 17.1701C97.5587 16.6621 99.3879 16.3317 101.236 16.1838C103.07 16.051 104.911 16.051 106.745 16.1838C107.659 16.1838 108.574 16.3281 109.464 16.4484H111.436V17.3866C111.436 17.531 111.436 17.6272 111.436 17.7475V18.4211C111.436 19.3112 111.605 20.2253 111.701 21.1395C111.834 22.9734 111.834 24.8146 111.701 26.6485C111.553 28.4969 111.223 30.3261 110.715 32.1094C110.208 33.9198 109.455 35.652 108.477 37.2576C106.518 40.5509 103.511 43.0921 99.9372 44.4747C99.5042 44.6431 99.0471 44.7875 98.59 44.9077L97.9165 45.0761L97.2187 45.2205C96.2755 45.3267 95.3233 45.3267 94.3801 45.2205C92.5105 45.0777 90.6755 44.6392 88.9433 43.9214C88.0949 43.561 87.2882 43.1092 86.5376 42.5742L85.8881 42.0931ZM109.584 18.397H109.151C108.285 18.2527 107.419 18.1805 106.553 18.0843C104.809 17.9351 103.057 17.8949 101.309 17.964C97.8058 18.0431 94.3702 18.9411 91.2768 20.5862C88.1815 22.3038 85.7572 25.0164 84.3967 28.2844C84.2283 28.6934 84.0837 29.1023 83.9394 29.5354C83.7951 29.9684 83.8192 29.9443 83.747 30.1849C83.6749 30.4255 83.7471 30.5939 83.6027 30.8104C83.4546 31.6761 83.4062 32.5559 83.4583 33.4326C83.5628 35.2231 83.9525 36.9854 84.613 38.6529C84.938 39.4994 85.3578 40.3064 85.8641 41.0586L86.3691 41.7082L87.0188 42.2134C87.7709 42.7197 88.5779 43.1393 89.4244 43.4643C91.0919 44.1248 92.8542 44.5146 94.6447 44.6191C95.5214 44.671 96.4013 44.6226 97.267 44.4747L97.8925 44.3304L98.5419 44.1379L99.7929 43.6808C103.061 42.3203 105.774 39.8958 107.491 36.8006C109.136 33.7071 110.034 30.2716 110.113 26.7688C110.182 25.0199 110.142 23.2683 109.993 21.5244C109.993 20.6584 109.824 19.7923 109.68 18.9263L109.584 18.397ZM92.7442 35.2369C92.3754 33.9696 91.8417 32.7564 91.1566 31.6283C90.6938 30.872 90.1794 30.1486 89.6169 29.4632L89.1838 28.9339L88.7509 28.4528L88.2938 27.9957L87.8127 27.5386C86.4763 26.3695 85.0254 25.3379 83.4824 24.4593C81.935 23.5492 80.3276 22.7455 78.6711 22.0537C77.0205 21.3556 75.3341 20.7453 73.6191 20.2253C66.7385 18.2061 59.5158 17.6247 52.4008 18.5173C50.6447 18.7338 48.8646 19.0225 47.1325 19.4074C45.4004 19.7923 43.6684 20.2253 41.9604 20.7546C38.6138 21.7745 35.3873 23.1538 32.3376 24.8683C30.8166 25.7338 29.3539 26.6981 27.9592 27.7552C26.5741 28.8093 25.2714 29.9674 24.0621 31.2193C21.6522 33.6818 19.719 36.5692 18.3606 39.7355C17.0201 42.8337 16.4347 46.206 16.6525 49.5748C16.751 51.2449 17.1761 52.8796 17.9035 54.3862C18.5383 55.8057 19.7042 56.9199 21.1511 57.4895C21.8571 57.7206 22.61 57.7702 23.3403 57.6339C24.0888 57.4885 24.8056 57.2116 25.4574 56.8159C26.7798 55.9938 27.9381 54.9334 28.8735 53.6885C30.7007 51.0783 31.9776 48.1235 32.6263 45.004C33.3286 42.0134 33.7156 38.9576 33.781 35.8864C33.8603 32.9017 33.6832 29.9157 33.2517 26.9613C32.4906 21.3378 30.731 15.8956 28.0555 10.8912C26.8201 8.55427 25.1926 6.44675 23.2441 4.66049C22.2995 3.82667 21.2477 3.1228 20.1167 2.56754C19.0164 2.0345 17.8394 1.67732 16.6285 1.50903C14.2867 1.21326 11.9092 1.58868 9.77242 2.59159C7.74082 3.5045 5.92797 4.84152 4.45577 6.51288C3.76483 7.29758 3.18219 8.17143 2.72359 9.11103C2.2918 10.0243 1.96894 10.9851 1.76143 11.9738C1.39707 13.8649 1.39707 15.8082 1.76143 17.6994C2.03743 19.4146 2.66826 21.0533 3.61373 22.5107C4.36323 23.705 5.44613 24.6536 6.72872 25.2393C8.0113 25.8251 9.43737 26.0222 10.8308 25.8065C12.0452 25.6459 13.2196 25.2626 14.295 24.6759C15.175 24.1977 15.9325 23.5226 16.5083 22.7032C16.9922 21.979 17.3124 21.1581 17.4465 20.2975C17.7102 19.1671 17.5564 17.9795 17.0134 16.9536C16.8815 16.7232 16.6906 16.5322 16.4602 16.4003H16.2917C16.2264 16.3816 16.1688 16.3422 16.1279 16.2879C16.087 16.2336 16.0649 16.1675 16.0649 16.0996C16.0649 16.0316 16.087 15.9655 16.1279 15.9112C16.1688 15.857 16.2264 15.8175 16.2917 15.7989H16.7006C17.1139 15.8855 17.4912 16.0952 17.7832 16.4003C18.2763 16.962 18.6483 17.6193 18.8759 18.3313C19.1036 19.0432 19.1821 19.7945 19.1064 20.5381C19.0353 21.634 18.7054 22.6975 18.144 23.6414C17.4556 24.7749 16.4861 25.7113 15.3294 26.3598C14.0394 27.0715 12.6281 27.5365 11.1677 27.7311C10.3687 27.8285 9.56085 27.8285 8.76192 27.7311C6.97198 27.5274 5.29008 26.7705 3.95052 25.566C3.23328 24.9269 2.60965 24.1899 2.0981 23.3768C1.05279 21.6703 0.388238 19.7584 0.149616 17.7715C-0.135136 15.6588 -0.0126582 13.5112 0.510455 11.4445C0.786856 10.3507 1.1906 9.29296 1.71334 8.29309C2.25532 7.26569 2.92619 6.31174 3.70992 5.45438C5.33449 3.6757 7.30811 2.25078 9.50765 1.26847C10.6615 0.760794 11.8734 0.3972 13.1162 0.185902C15.7323 -0.266659 18.4246 0.111933 20.8144 1.26847C22.0303 1.86342 23.1626 2.61563 24.1823 3.50576C26.2498 5.36138 27.983 7.55847 29.3064 10.0011C32.132 15.1144 34.0068 20.6977 34.8396 26.4801C35.294 29.5132 35.4872 32.5797 35.417 35.6458C35.3523 38.8181 34.9327 41.9732 34.166 45.0521C33.7702 46.6314 33.2473 48.1761 32.6023 49.671C31.9493 51.2093 31.1003 52.6567 30.0763 53.9772C29.5453 54.6441 28.9577 55.2639 28.32 55.8296C27.6795 56.4094 26.9779 56.9176 26.2273 57.3452C25.4836 57.7853 24.6698 58.0945 23.8215 58.2593C22.9116 58.4172 21.9764 58.3427 21.103 58.0428C20.2436 57.728 19.4695 57.2173 18.8418 56.5513C18.224 55.9063 17.7124 55.1674 17.3261 54.3621C16.5899 52.7736 16.1652 51.0586 16.0752 49.3102C15.9714 47.5708 16.0846 45.8253 16.4119 44.1139C16.4119 43.6808 16.5804 43.2719 16.6766 42.8388C16.7728 42.4058 16.8931 42.0209 17.0134 41.5879C17.254 40.7459 17.5908 39.928 17.9035 39.1822C19.2314 36.0162 21.0949 33.1028 23.4124 30.5698C24.6365 29.2711 25.9553 28.0649 27.3579 26.9613C28.7887 25.8524 30.2914 24.8398 31.8564 23.9301C33.4146 22.9967 35.0206 22.1455 36.6678 21.3801C38.3037 20.6343 39.9876 19.9607 41.7197 19.3593C43.4518 18.7579 45.184 18.2527 46.9642 17.7956C48.7444 17.3385 50.5247 16.9776 52.353 16.6649C56.0191 16.0821 59.7372 15.8966 63.4431 16.1116C67.1862 16.3207 70.8919 16.9666 74.4851 18.0361C78.1198 19.0788 81.581 20.6514 84.7573 22.7032C86.3502 23.7442 87.8264 24.9541 89.1599 26.3117L89.6409 26.841L90.122 27.3943L90.5791 27.9717L90.9881 28.525C91.5319 29.2923 92.0221 30.0961 92.4555 30.9307C93.0155 32.0113 93.4591 33.1483 93.7788 34.3227C94.9531 34.6425 96.0901 35.086 97.1707 35.6458C98.0053 36.0793 98.8091 36.5696 99.5764 37.1133L100.13 37.5223L100.707 37.9793L101.26 38.4605L101.79 38.9416C103.147 40.2751 104.357 41.7511 105.398 43.344C107.45 46.5203 109.022 49.9816 110.065 53.6164C111.135 57.2095 111.781 60.9154 111.99 64.6585C112.205 68.3644 112.019 72.0826 111.436 75.7487C111.124 77.577 110.787 79.3572 110.306 81.1375C109.825 82.9177 109.344 84.6498 108.742 86.3819C108.141 88.114 107.467 89.7739 106.721 91.4338C105.956 93.081 105.105 94.687 104.171 96.2452C103.251 97.7862 102.23 99.2648 101.116 100.672C100.012 102.074 98.8063 103.393 97.5075 104.617C94.9466 107.054 91.9736 109.017 88.7268 110.415C87.9088 110.728 87.115 111.064 86.3211 111.305L85.0701 111.642L83.7951 111.906C82.0837 112.234 80.3382 112.347 78.5988 112.243C76.8503 112.153 75.1354 111.728 73.547 110.992C72.7415 110.606 72.0023 110.095 71.3576 109.477C70.6916 108.849 70.181 108.075 69.8662 107.215C69.5582 106.344 69.4756 105.409 69.6257 104.497C69.7901 103.648 70.0994 102.835 70.5399 102.091C70.9675 101.34 71.4756 100.639 72.0554 99.9981C72.6211 99.3605 73.2408 98.7729 73.9077 98.2419C75.1576 97.1644 76.5401 96.2509 78.0214 95.5235C79.5164 94.8787 81.0611 94.3558 82.6403 93.9598C85.7192 93.1931 88.8743 92.7735 92.0466 92.7089C95.1127 92.6386 98.1793 92.8318 101.212 93.2862C106.995 94.1189 112.578 95.9937 117.691 98.8193C120.134 100.143 122.331 101.876 124.186 103.943C125.077 104.963 125.829 106.095 126.424 107.311C127.58 109.701 127.959 112.393 127.506 115.01C127.295 116.252 126.931 117.464 126.424 118.618C125.439 120.809 124.014 122.774 122.238 124.392C121.38 125.175 120.427 125.846 119.399 126.389C118.399 126.911 117.342 127.315 116.248 127.591C114.181 128.115 112.034 128.237 109.921 127.952C107.934 127.714 106.022 127.049 104.316 126.004C103.503 125.492 102.766 124.868 102.126 124.151C100.922 122.812 100.165 121.13 99.9614 119.34C99.8639 118.541 99.8639 117.733 99.9614 116.934C100.156 115.474 100.621 114.062 101.332 112.772C102.014 111.601 102.994 110.63 104.171 109.958C105.115 109.396 106.179 109.067 107.274 108.995C108.018 108.918 108.77 108.996 109.482 109.224C110.194 109.451 110.851 109.824 111.412 110.319C111.717 110.61 111.927 110.988 112.014 111.401C112.028 111.513 112.028 111.626 112.014 111.738C111.995 111.803 111.956 111.861 111.902 111.902C111.847 111.943 111.781 111.965 111.713 111.965C111.645 111.965 111.579 111.943 111.525 111.902C111.47 111.861 111.431 111.803 111.412 111.738C111.418 111.682 111.418 111.625 111.412 111.569C111.28 111.339 111.089 111.148 110.859 111.016C109.833 110.473 108.645 110.319 107.515 110.583C106.655 110.717 105.834 111.037 105.109 111.521C104.29 112.097 103.615 112.855 103.137 113.735C102.55 114.81 102.167 115.984 102.006 117.199C101.79 118.592 101.987 120.018 102.573 121.301C103.159 122.583 104.108 123.666 105.302 124.416C106.759 125.361 108.398 125.992 110.113 126.268C112.004 126.633 113.948 126.633 115.839 126.268C116.827 126.061 117.788 125.738 118.701 125.306C119.641 124.847 120.515 124.265 121.3 123.574C122.997 122.109 124.359 120.295 125.293 118.257C126.296 116.121 126.671 113.743 126.376 111.401C126.207 110.19 125.85 109.013 125.317 107.913C124.762 106.782 124.058 105.73 123.224 104.785C121.438 102.837 119.331 101.209 116.994 99.974C111.982 97.2958 106.531 95.536 100.9 94.7778C97.9452 94.3462 94.959 94.1691 91.9743 94.2485C88.9031 94.3137 85.8474 94.7007 82.8569 95.4032C79.8046 96.0765 76.9175 97.3524 74.3648 99.1561C73.12 100.091 72.0596 101.25 71.2375 102.572C70.8414 103.224 70.5645 103.941 70.4196 104.689C70.2833 105.419 70.3329 106.172 70.5639 106.878C71.1336 108.325 72.2476 109.491 73.6672 110.126C75.1738 110.854 76.8085 111.279 78.4786 111.377C81.8473 111.595 85.2196 111.009 88.3178 109.669C91.4775 108.301 94.3566 106.36 96.8098 103.943C98.0617 102.734 99.2198 101.431 100.274 100.046C101.331 98.6514 102.295 97.1888 103.161 95.6679C104.875 92.6182 106.255 89.3918 107.274 86.0451C107.804 84.3611 108.237 82.629 108.622 80.8729C109.007 79.1167 109.295 77.3605 109.512 75.6044C110.405 68.4894 109.823 61.2668 107.804 54.3862C107.284 52.6711 106.674 50.9848 105.976 49.3342C105.284 47.6777 104.48 46.0702 103.57 44.5228C102.691 42.9798 101.66 41.529 100.491 40.1926L100.034 39.7114L99.5764 39.2544L99.0953 38.8213L98.5659 38.3883C97.8805 37.8258 97.1571 37.3114 96.4008 36.8487C95.2855 36.1317 94.0803 35.5655 92.8165 35.1647L92.7442 35.2369Z" fill="#C09068"/>
<path d="M74.5091 19.672H73.6914C72.8914 19.5937 72.0856 19.5937 71.2856 19.672C70.0844 19.7475 68.8925 19.9327 67.7251 20.2253C66.1965 20.6039 64.7129 21.1443 63.2988 21.8371C61.6186 22.6482 60.0566 23.6842 58.6557 24.9164C57.0886 26.2766 55.8332 27.9587 54.9751 29.8481C54.1011 31.8906 53.6823 34.0988 53.748 36.3194C53.7685 38.6143 54.3731 40.8661 55.5044 42.8629C56.0846 43.8381 56.8437 44.6951 57.7417 45.3889C58.6299 46.0734 59.6557 46.5576 60.7487 46.8082C62.9039 47.2105 65.1299 46.9679 67.1478 46.1106C68.0989 45.7567 68.979 45.2353 69.746 44.5709C70.4726 43.9183 71.0192 43.0899 71.3337 42.1652C71.6329 41.334 71.7399 40.4457 71.6464 39.5671C71.5609 38.7297 71.3245 37.9146 70.9487 37.1614C70.3258 35.8287 69.2643 34.7502 67.9416 34.1062C66.9467 33.6518 65.8266 33.55 64.7661 33.8175C64.0569 34.0047 63.3828 34.3053 62.7695 34.7076L62.2644 35.0444L62.0959 35.1647C62.0276 35.2068 61.9464 35.2231 61.8671 35.2107C61.7879 35.1983 61.7157 35.1581 61.6635 35.0971C61.6113 35.0362 61.5826 34.9587 61.5825 34.8784C61.5824 34.7982 61.6108 34.7205 61.6628 34.6595L61.8073 34.4911L62.2884 34.034C62.9253 33.4608 63.6692 33.0193 64.4775 32.7349C65.0724 32.5249 65.6991 32.4191 66.3299 32.4222C67.0825 32.4298 67.8262 32.5851 68.519 32.8793C69.2882 33.2139 69.9894 33.6868 70.5878 34.2746C71.2381 34.9175 71.7751 35.6658 72.1757 36.4878C72.6203 37.3828 72.8899 38.3545 72.9697 39.3506C73.0737 40.44 72.9086 41.5384 72.4892 42.5492C72.0698 43.5601 71.4087 44.4525 70.5639 45.1483C69.6751 45.8614 68.6643 46.4075 67.5808 46.7601C66.4981 47.1304 65.376 47.3727 64.237 47.4818C63.0597 47.5918 61.8721 47.5023 60.7246 47.2172C59.5598 46.9147 58.4705 46.3741 57.5251 45.6294C56.5604 44.8816 55.7443 43.9595 55.1193 42.911C53.9452 40.841 53.316 38.5067 53.291 36.127C53.2224 33.8235 53.6576 31.5329 54.5661 29.4151C55.4516 27.4672 56.7292 25.7229 58.319 24.2909C59.7676 23.0011 61.3864 21.9164 63.1303 21.0673C64.5776 20.3434 66.0924 19.7632 67.653 19.3352C68.8655 19.0058 70.1054 18.7883 71.3576 18.6857C72.1581 18.6171 72.963 18.6171 73.7634 18.6857H74.6054C74.7064 18.7193 74.7926 18.7872 74.849 18.8775C74.9053 18.9679 74.9283 19.075 74.914 19.1806C74.8998 19.2861 74.8491 19.3833 74.7708 19.4554C74.6925 19.5276 74.5914 19.5702 74.4851 19.5758L74.5091 19.672Z" fill="#C09068"/>
<path d="M108.309 53.472V53.6885C108.309 53.8329 108.309 54.0494 108.309 54.2899C108.388 55.0899 108.388 55.8956 108.309 56.6956C108.234 57.8968 108.049 59.0886 107.756 60.2561C107.378 61.7847 106.837 63.2686 106.144 64.6825C105.333 66.3627 104.297 67.9247 103.065 69.3255C101.704 70.8927 100.022 72.1481 98.133 73.0062C96.0906 73.8802 93.8824 74.2988 91.6618 74.2331C89.367 74.2126 87.1151 73.6082 85.1184 72.477C84.1432 71.8967 83.2863 71.1377 82.5925 70.2397C81.9079 69.3515 81.4236 68.3256 81.173 67.2326C80.7707 65.0773 81.0133 62.8513 81.8706 60.8334C82.2244 59.8823 82.7459 59.0024 83.4102 58.2353C84.0629 57.5087 84.8912 56.962 85.8159 56.6475C86.6472 56.3483 87.5355 56.2413 88.414 56.3348C89.2514 56.4203 90.0665 56.6566 90.8198 57.0324C92.1255 57.6687 93.1772 58.7287 93.8029 60.0395C94.2573 61.0345 94.359 62.1545 94.0915 63.2151C93.9039 63.9241 93.6033 64.5983 93.2014 65.2118L92.8646 65.717L92.7443 65.8854C92.7022 65.9537 92.6858 66.0348 92.6982 66.114C92.7106 66.1933 92.7509 66.2656 92.8118 66.3178C92.8728 66.37 92.9505 66.3988 93.0307 66.3989C93.111 66.399 93.1884 66.3704 93.2495 66.3184L93.4179 66.1741L93.8751 65.6929C94.4482 65.056 94.8896 64.312 95.174 63.5037C95.3836 62.9087 95.4893 62.2822 95.4868 61.6513C95.4792 60.8987 95.3239 60.1549 95.0297 59.4622C94.6951 58.693 94.2222 57.9918 93.6345 57.3933C92.9913 56.7433 92.243 56.2066 91.4212 55.8055C90.5263 55.3609 89.5547 55.0915 88.5585 55.0116C87.4691 54.9076 86.3708 55.0726 85.3599 55.4921C84.3491 55.9115 83.4565 56.5726 82.7607 57.4173C82.0476 58.3061 81.5015 59.3168 81.1489 60.4004C80.7786 61.483 80.5364 62.6053 80.4272 63.7443C80.3173 64.9216 80.4067 66.1091 80.6918 67.2566C80.9943 68.4214 81.5351 69.5108 82.2797 70.4562C83.0276 71.4209 83.9496 72.2369 84.9981 72.8619C87.0681 74.0361 89.4022 74.6652 91.7819 74.6902C94.0854 74.7588 96.376 74.3237 98.4939 73.4152C100.452 72.5249 102.205 71.239 103.642 69.6383C104.932 68.1895 106.016 66.5706 106.866 64.8269C107.589 63.3795 108.17 61.8647 108.598 60.3042C108.928 59.0918 109.145 57.8516 109.247 56.5994C109.316 55.799 109.316 54.9941 109.247 54.1937C109.247 53.905 109.247 53.6885 109.247 53.5682V53.3517C109.214 53.2507 109.146 53.1646 109.056 53.1083C108.965 53.0519 108.858 53.0289 108.752 53.0432C108.647 53.0574 108.55 53.1081 108.477 53.1864C108.405 53.2647 108.363 53.3657 108.357 53.472H108.309Z" fill="#C09068"/>
<path d="M116.32 11.6611L115.406 11.3002C113.213 10.4796 110.95 9.85958 108.646 9.44782C107.5 9.24954 106.343 9.12897 105.182 9.08696H101.694C99.3756 9.25652 97.0882 9.71722 94.8853 10.4582C92.7152 11.1852 90.7 12.3111 88.9433 13.7781C88.0501 14.4832 87.2426 15.2906 86.5376 16.1838C86.2082 16.6356 85.9108 17.1099 85.6474 17.6031C85.5271 17.8437 85.3829 18.1083 85.2867 18.3489C85.1844 18.584 85.0959 18.825 85.0219 19.0706L84.6372 20.2494L83.819 19.3593C83.4582 18.9744 83.0253 18.5654 82.6163 18.2045C82.2073 17.8437 81.7502 17.4588 81.2932 17.0979C79.4785 15.7836 77.5362 14.6552 75.4956 13.73C74.4529 13.2262 73.3849 12.7765 72.296 12.3828C71.2134 11.9738 70.1068 11.637 68.9762 11.3483C68.4228 11.204 67.8454 11.0596 67.2921 10.9393L66.4501 10.771L65.5842 10.6266C64.4295 10.4342 63.1785 10.3139 62.12 10.2176C61.5426 10.2176 60.9653 10.2176 60.3879 10.2176H56.9235L55.1916 10.3379C54.6142 10.3379 54.0368 10.4823 53.4354 10.5304H52.5693L49.9714 10.9634L48.2392 11.3002L46.531 11.6611L44.8232 12.07L43.1149 12.5031L41.4311 12.9842L39.747 13.5134L38.0871 14.0908C37.0046 14.4998 35.8979 14.9328 34.8635 15.438C33.8058 15.9157 32.7847 16.4705 31.8083 17.0979C31.7426 17.1216 31.6708 17.1225 31.6045 17.1007C31.5381 17.0788 31.481 17.0353 31.4422 16.9771C31.4035 16.919 31.3853 16.8496 31.3906 16.7799C31.3959 16.7102 31.4244 16.6443 31.4715 16.5927C32.4681 15.9221 33.5135 15.327 34.599 14.8125C35.6575 14.2833 36.7641 13.8262 37.8707 13.3932L39.5305 12.7677L41.2146 12.1903L42.9226 11.6851L44.6306 11.228L46.3628 10.795L48.0948 10.4101L49.8269 10.0492L51.5831 9.7365L52.4492 9.59216H53.3392C53.9166 9.59216 54.4938 9.42376 55.0952 9.37564L56.8757 9.20725H60.436C61.0374 9.20725 61.6388 9.20725 62.2161 9.20725C63.3949 9.20725 64.6218 9.3997 65.7766 9.59216L66.6667 9.7365L67.5568 9.9049C68.1342 9.9049 68.7356 10.1695 69.3129 10.2898C70.4677 10.5785 71.7186 10.9153 72.753 11.3243C73.8819 11.7162 74.9901 12.1659 76.073 12.6715C78.23 13.615 80.2854 14.7757 82.2074 16.1356C82.6885 16.4965 83.1697 16.8814 83.6268 17.2663C84.097 17.6684 84.5467 18.0939 84.974 18.5413L83.747 18.83C83.8465 18.5097 83.967 18.1962 84.1079 17.8918C84.2281 17.6031 84.3726 17.3144 84.541 17.0498C84.8414 16.5059 85.1788 15.9835 85.5512 15.4861C86.2934 14.4917 87.1492 13.5875 88.1013 12.7917C89.9769 11.2848 92.1134 10.1351 94.4043 9.39971C96.7428 8.64532 99.1681 8.1926 101.621 8.05252H105.23C106.441 8.11518 107.647 8.25985 108.838 8.48554C111.195 8.94096 113.506 9.60928 115.743 10.4823L117.066 11.0115L117.595 12.3346C118.468 14.5711 119.136 16.882 119.592 19.239C119.817 20.4307 119.962 21.6363 120.025 22.8475C120.025 23.1603 120.025 23.4489 120.025 23.7617C120.025 24.0744 120.025 24.0504 120.025 24.2188V24.6759C120.025 25.2773 120.025 25.8787 120.025 26.4801C119.885 28.9333 119.432 31.3586 118.678 33.6972C117.927 36.0375 116.743 38.2163 115.189 40.1204C114.394 41.0726 113.489 41.9285 112.495 42.6704C111.998 43.0429 111.475 43.3805 110.931 43.6808L110.089 44.1139C109.785 44.2548 109.471 44.3754 109.151 44.4747L109.44 43.2478C109.887 43.6752 110.313 44.1249 110.715 44.595C111.1 45.0521 111.485 45.5332 111.845 46.0143C113.283 47.942 114.517 50.014 115.526 52.197C116.032 53.2798 116.481 54.3879 116.873 55.5168C117.282 56.6475 117.619 57.8022 117.908 58.957C118.028 59.5343 118.196 60.1117 118.293 60.7131L118.461 61.6032L118.605 62.4934C118.798 63.6721 118.894 64.899 118.99 66.0538C118.99 66.6552 118.99 67.2566 118.99 67.834C118.99 68.4114 118.99 69.0368 118.99 69.6142C118.99 70.1916 118.99 70.793 118.99 71.3944C118.99 71.9958 118.99 72.5973 118.822 73.1746C118.654 73.752 118.678 74.3534 118.605 74.9308V75.3638C118.605 75.5322 118.605 75.6525 118.605 75.8209L118.461 76.6869C118.461 77.2643 118.268 77.8657 118.148 78.4431L117.787 80.1752C117.787 80.7526 117.523 81.3299 117.403 81.9073C117.282 82.4846 117.138 83.062 116.969 83.6394C116.801 84.2168 116.681 84.7941 116.512 85.3474L116.007 87.0555L115.43 88.7395L114.804 90.3994C114.371 91.506 113.914 92.5886 113.385 93.6711C112.87 94.7483 112.275 95.7856 111.605 96.7745C111.553 96.8216 111.487 96.8501 111.418 96.8554C111.348 96.8607 111.279 96.8426 111.22 96.8038C111.162 96.765 111.119 96.7079 111.097 96.6416C111.075 96.5752 111.076 96.5034 111.1 96.4377C111.727 95.4614 112.282 94.4403 112.759 93.3825C113.265 92.324 113.698 91.2414 114.107 90.1588L114.684 88.4989L115.213 86.839L115.694 85.155C115.863 84.6017 115.983 84.0243 116.128 83.4469C116.272 82.8696 116.392 82.3163 116.512 81.7389C116.633 81.1615 116.777 80.6082 116.873 80.0308L117.21 78.2988C117.21 77.7214 117.403 77.144 117.499 76.5667L117.763 74.8346C117.763 74.2572 117.932 73.6558 117.956 73.0784C117.98 72.501 117.956 71.9237 118.076 71.3463C118.196 70.7689 118.076 70.1916 118.076 69.6142C118.076 69.0368 118.076 68.4595 118.076 67.8821C118.076 67.3047 118.076 66.7274 118.076 66.15C118.076 64.9953 117.86 63.7443 117.667 62.6858L117.523 61.8198L117.354 60.9778C117.354 60.4004 117.09 59.8471 116.945 59.2938C116.633 58.1872 116.32 57.0565 115.911 55.9739C115.517 54.885 115.068 53.817 114.564 52.7744C113.561 50.6891 112.343 48.7138 110.931 46.8804C110.57 46.4233 110.209 45.9903 109.825 45.5573C109.44 45.1242 109.055 44.6912 108.67 44.3544L107.78 43.5365L108.959 43.1516L109.68 42.8869L110.426 42.5261C110.919 42.2627 111.394 41.9653 111.845 41.636C112.739 40.9309 113.546 40.1235 114.251 39.2303C115.693 37.3666 116.763 35.2432 117.403 32.9755C118.144 30.7727 118.604 28.4853 118.774 26.1674C118.774 25.59 118.774 25.0126 118.774 24.4112V23.9782C118.774 23.8579 118.774 23.6895 118.774 23.5452C118.774 23.4008 118.774 22.9678 118.774 22.6791C118.732 21.5176 118.611 20.3602 118.413 19.2149C118.001 16.9102 117.381 14.6477 116.561 12.4549L116.32 11.6611Z" fill="#C09068"/>
<path d="M110.21 17.7475C109.624 17.5969 109.029 17.4844 108.429 17.4107H107.563C107.503 17.4107 107.445 17.3866 107.402 17.3437C107.359 17.3009 107.335 17.2427 107.335 17.1821C107.335 17.1215 107.359 17.0634 107.402 17.0205C107.445 16.9777 107.503 16.9536 107.563 16.9536H108.429C109.159 17.0192 109.883 17.1398 110.594 17.3144C110.769 18.026 110.89 18.7498 110.955 19.4796C110.955 19.7682 110.955 19.9848 110.955 20.1291V20.3456C110.955 20.4062 110.931 20.4644 110.888 20.5072C110.846 20.5501 110.787 20.5742 110.727 20.5742C110.666 20.5742 110.608 20.5501 110.565 20.5072C110.522 20.4644 110.498 20.4062 110.498 20.3456V20.1291C110.498 19.9848 110.498 19.7682 110.498 19.4796C110.438 18.8967 110.342 18.3182 110.21 17.7475Z" fill="#C09068"/>
<path d="M103.498 24.4834C102.528 24.6618 101.588 24.9777 100.707 25.4216C99.7595 25.9104 98.9366 26.61 98.3015 27.4665C98.0622 27.7655 97.8676 28.0977 97.7241 28.4528C97.8413 28.0853 98.0117 27.7368 98.2294 27.4183C98.8374 26.488 99.663 25.72 100.635 25.181C101.72 24.5734 102.899 24.1507 104.123 23.9301C103.903 25.1542 103.48 26.333 102.872 27.4183C102.333 28.3903 101.565 29.216 100.635 29.824C100.317 30.0421 99.9682 30.2123 99.6005 30.3292C99.9556 30.1857 100.288 29.9912 100.587 29.7519C101.443 29.1168 102.143 28.2938 102.632 27.3462C103.057 26.4389 103.349 25.4746 103.498 24.4834Z" fill="#C09068"/>
<path d="M40.132 27.4183L40.541 27.2259L41.6958 26.6966C42.201 26.4801 42.8024 26.2155 43.5241 25.9509C44.2458 25.6863 45.0395 25.3976 45.9296 25.1089C46.8197 24.8202 47.8062 24.5315 48.8647 24.2909C49.9232 24.0504 51.0298 23.7857 52.1845 23.5933L53.9647 23.3287C54.5661 23.3287 55.1916 23.1843 55.793 23.1122L57.6694 22.9919C58.2949 22.9919 58.9205 22.9919 59.57 22.9919H63.3469C64.5666 23.1013 65.7791 23.278 66.9793 23.5211C67.5567 23.5211 68.1341 23.7857 68.6875 23.906C69.2408 24.0263 69.77 24.2188 70.2993 24.3631C71.274 24.6673 72.2298 25.0288 73.1619 25.4457C74.052 25.8065 74.7978 26.2396 75.5676 26.5764L77.2517 27.6108L78.6469 28.6212L77.1074 27.8514L75.3271 27.0575L74.1965 26.6245L72.9455 26.1914C72.5125 26.0471 72.0554 25.8787 71.5743 25.7584C71.0932 25.6381 70.612 25.4697 70.0827 25.3495C69.0483 25.1089 67.9657 24.8924 66.835 24.6999C65.7044 24.5075 64.4295 24.4112 63.3228 24.315H59.6662C59.0648 24.315 58.4393 24.315 57.8378 24.315H56.0095C54.8066 24.315 53.6038 24.5075 52.4731 24.6759L49.1774 25.181L46.2424 25.7584C44.4381 26.1433 42.9226 26.5282 41.8641 26.8169L40.6372 27.1537L40.132 27.4183Z" fill="#C09068"/>
<path d="M100.563 87.8493L100.755 87.4404C100.876 87.1758 101.068 86.7909 101.284 86.2857C101.501 85.7805 101.766 85.179 102.03 84.4573C102.295 83.7356 102.584 82.9417 102.872 82.0516C103.161 81.1615 103.45 80.1752 103.69 79.1167C103.931 78.0582 104.195 76.9516 104.388 75.7968C104.388 75.2195 104.58 74.618 104.653 74.0166C104.725 73.4152 104.797 72.7897 104.869 72.1883C104.941 71.5869 104.869 70.9373 104.989 70.3119C105.11 69.6864 104.989 69.0609 104.989 68.4114C104.989 67.7618 104.989 67.1363 104.989 66.5109V64.6344C104.88 63.4148 104.703 62.2021 104.46 61.0018C104.46 60.4245 104.195 59.8471 104.075 59.2938C103.955 58.7405 103.762 58.2112 103.618 57.682C103.314 56.7073 102.952 55.7514 102.535 54.8192C102.175 53.9291 101.742 53.1833 101.405 52.4135C101.068 51.6437 100.659 51.1866 100.37 50.7295L99.3599 49.3342L100.13 50.8739L100.924 52.6541L101.357 53.7847C101.525 54.1697 101.645 54.6027 101.79 55.0357C101.934 55.4687 102.102 55.9258 102.223 56.407C102.343 56.8881 102.511 57.3692 102.632 57.8985C102.872 58.9329 103.089 60.0155 103.281 61.1462C103.474 62.2768 103.57 63.5518 103.666 64.6585V66.6552C103.666 67.2566 103.666 67.8821 103.666 68.4835C103.666 69.085 103.666 69.7104 103.666 70.3119C103.666 70.9133 103.666 71.5387 103.666 72.1402C103.666 73.343 103.474 74.5459 103.305 75.6766C103.137 76.8072 102.992 77.9379 102.8 78.9724C102.608 80.0068 102.415 80.9931 102.223 81.9073C101.838 83.7115 101.453 85.2272 101.164 86.2857L100.827 87.5126L100.563 87.8493Z" fill="#C09068"/>
<path d="M64.1533 38.6684C65.5786 38.5025 66.5995 37.2125 66.4335 35.7872C66.2676 34.3619 64.9777 33.341 63.5524 33.507C62.1272 33.6729 61.1061 34.9628 61.2721 36.3881C61.438 37.8134 62.728 38.8343 64.1533 38.6684Z" fill="#C09068"/>
<path d="M94.4643 64.4068C94.6302 62.9815 93.6093 61.6915 92.184 61.5256C90.7588 61.3597 89.4688 62.3807 89.3029 63.806C89.137 65.2312 90.1579 66.5212 91.5832 66.6871C93.0085 66.8531 94.2984 65.8321 94.4643 64.4068Z" fill="#C09068"/>
<path d="M17.8955 21.9025C19.3711 20.0374 19.0554 17.3292 17.1903 15.8536C15.3252 14.378 12.6169 14.6937 11.1413 16.5588C9.66571 18.424 9.98142 21.1322 11.8465 22.6078C13.7116 24.0834 16.4199 23.7676 17.8955 21.9025Z" fill="#C09068"/>
<path d="M111.423 116.859C113.288 115.383 113.603 112.675 112.128 110.81C110.652 108.945 107.944 108.629 106.079 110.105C104.214 111.581 103.898 114.289 105.374 116.154C106.849 118.019 109.558 118.335 111.423 116.859Z" fill="#C09068"/>
<path d="M82.8798 13.5578C83.77 12.9297 83.9824 11.6988 83.3542 10.8087C82.726 9.9185 81.4952 9.70613 80.6051 10.3343C79.7149 10.9625 79.5025 12.1933 80.1307 13.0835C80.7589 13.9736 81.9897 14.186 82.8798 13.5578Z" fill="#C09068"/>
<path d="M117.693 47.4071C118.321 46.5169 118.109 45.286 117.219 44.6579C116.329 44.0297 115.098 44.2421 114.47 45.1323C113.842 46.0224 114.054 47.2533 114.944 47.8814C115.834 48.5096 117.065 48.2972 117.693 47.4071Z" fill="#C09068"/>
<path d="M77.6926 10.6746C78.4851 10.1155 78.6743 9.01986 78.1152 8.22731C77.5561 7.43477 76.4605 7.24548 75.6679 7.80456C74.8754 8.36364 74.686 9.4594 75.2451 10.252C75.8041 11.0445 76.9 11.2337 77.6926 10.6746Z" fill="#C09068"/>
<path d="M120.163 52.3191C120.722 51.5265 120.532 50.4309 119.74 49.8718C118.947 49.3127 117.852 49.5019 117.292 50.2945C116.733 51.087 116.923 52.1828 117.715 52.7419C118.508 53.301 119.603 53.1116 120.163 52.3191Z" fill="#C09068"/>
<path d="M72.3151 8.67359C73.0425 8.16046 73.2162 7.15475 72.7031 6.42735C72.19 5.69994 71.1844 5.52629 70.457 6.03942C69.7296 6.55255 69.5559 7.55818 70.069 8.28559C70.5822 9.01299 71.5877 9.18672 72.3151 8.67359Z" fill="#C09068"/>
<path d="M121.999 57.5529C122.512 56.8256 122.339 55.8198 121.611 55.3066C120.884 54.7933 119.878 54.9669 119.365 55.6942C118.852 56.4216 119.025 57.4272 119.753 57.9405C120.48 58.4537 121.486 58.2802 121.999 57.5529Z" fill="#C09068"/>
<path d="M67.2896 7.74189C67.9085 7.30535 68.0562 6.44978 67.6197 5.83094C67.1832 5.2121 66.3275 5.06433 65.7087 5.50087C65.0899 5.93741 64.9421 6.79298 65.3786 7.41182C65.8152 8.03065 66.6708 8.17843 67.2896 7.74189Z" fill="#C09068"/>
<path d="M122.648 62.4054C123.084 61.7866 122.937 60.931 122.318 60.4944C121.699 60.0577 120.843 60.2054 120.407 60.8242C119.97 61.4429 120.118 62.2985 120.737 62.7352C121.355 63.1718 122.211 63.0242 122.648 62.4054Z" fill="#C09068"/>
<path d="M62.3239 7.48174C62.9101 7.06808 63.05 6.25756 62.6363 5.67136C62.2226 5.08516 61.4121 4.94527 60.8259 5.35894C60.2397 5.77261 60.1 6.58313 60.5136 7.16932C60.9273 7.75552 61.7377 7.89541 62.3239 7.48174Z" fill="#C09068"/>
<path d="M122.54 67.0895C122.953 66.5033 122.813 65.6928 122.227 65.2791C121.641 64.8655 120.83 65.0053 120.417 65.5915C120.003 66.1777 120.143 66.9883 120.729 67.402C121.315 67.8156 122.126 67.6757 122.54 67.0895Z" fill="#C09068"/>
<path d="M57.7634 7.51739C58.2627 7.16501 58.3819 6.4746 58.0295 5.97524C57.6771 5.47589 56.9866 5.3567 56.4873 5.70908C55.9879 6.06147 55.8688 6.75197 56.2211 7.25132C56.5735 7.75067 57.264 7.86978 57.7634 7.51739Z" fill="#C09068"/>
<path d="M122.261 71.5018C122.613 71.0024 122.494 70.3119 121.995 69.9595C121.495 69.6071 120.805 69.7263 120.453 70.2257C120.1 70.725 120.219 71.4155 120.719 71.7679C121.218 72.1203 121.909 72.0011 122.261 71.5018Z" fill="#C09068"/>
<path d="M53.6901 7.84837C54.1244 7.54195 54.228 6.9415 53.9216 6.50728C53.6152 6.07306 53.0147 5.9695 52.5805 6.27592C52.1463 6.58234 52.0427 7.18278 52.3491 7.617C52.6555 8.05122 53.2559 8.15479 53.6901 7.84837Z" fill="#C09068"/>
<path d="M121.682 75.4038C121.989 74.9696 121.885 74.3691 121.451 74.0627C121.017 73.7563 120.416 73.8599 120.11 74.2941C119.804 74.7283 119.907 75.3287 120.342 75.6351C120.776 75.9415 121.376 75.838 121.682 75.4038Z" fill="#C09068"/>
<path d="M50.0394 8.6645C50.4193 8.39631 50.5098 7.87098 50.2417 7.49108C49.9735 7.11119 49.4482 7.02059 49.0683 7.28877C48.6884 7.55696 48.5977 8.0823 48.8659 8.4622C49.1341 8.84209 49.6595 8.93268 50.0394 8.6645Z" fill="#C09068"/>
<path d="M120.579 78.8399C120.847 78.46 120.757 77.9347 120.377 77.6665C119.997 77.3984 119.471 77.489 119.203 77.869C118.935 78.2489 119.026 78.7742 119.406 79.0423C119.786 79.3105 120.311 79.2199 120.579 78.8399Z" fill="#C09068"/>
<path d="M46.4824 9.37684C46.7863 9.16235 46.8589 8.74202 46.6444 8.43807C46.4299 8.13412 46.0095 8.06164 45.7055 8.27613C45.4016 8.49063 45.3292 8.91087 45.5437 9.21482C45.7582 9.51877 46.1784 9.59134 46.4824 9.37684Z" fill="#C09068"/>
<path d="M119.633 82.2116C119.848 81.9076 119.775 81.4874 119.471 81.273C119.167 81.0585 118.747 81.1311 118.533 81.4351C118.318 81.739 118.391 82.1594 118.695 82.3738C118.999 82.5883 119.419 82.5156 119.633 82.2116Z" fill="#C09068"/>
<path d="M43.2633 10.2611C43.5347 10.0696 43.5996 9.69441 43.4082 9.42295C43.2167 9.1515 42.8415 9.08662 42.57 9.27804C42.2986 9.46946 42.2337 9.84469 42.4251 10.1161C42.6165 10.3876 42.9918 10.4525 43.2633 10.2611Z" fill="#C09068"/>
<path d="M118.691 85.3792C118.882 85.1078 118.818 84.7325 118.546 84.5411C118.275 84.3497 117.899 84.4146 117.708 84.686C117.517 84.9575 117.581 85.3327 117.853 85.5242C118.124 85.7156 118.499 85.6507 118.691 85.3792Z" fill="#C09068"/>
<path d="M40.7714 10.9252C40.9886 10.7721 41.0405 10.4718 40.8873 10.2547C40.7341 10.0376 40.4339 9.98574 40.2168 10.1389C39.9996 10.2921 39.9479 10.5923 40.101 10.8094C40.2542 11.0265 40.5543 11.0784 40.7714 10.9252Z" fill="#C09068"/>
<path d="M117.922 87.8073C118.075 87.5902 118.024 87.29 117.807 87.1368C117.589 86.9836 117.289 87.0355 117.136 87.2526C116.983 87.4698 117.035 87.7699 117.252 87.923C117.469 88.0762 117.769 88.0245 117.922 87.8073Z" fill="#C09068"/>
<path d="M38.5424 11.7101C38.6944 11.6028 38.7305 11.3927 38.6232 11.2407C38.516 11.0888 38.3057 11.0526 38.1538 11.1598C38.0018 11.2671 37.9657 11.4772 38.073 11.6292C38.1802 11.7812 38.3905 11.8174 38.5424 11.7101Z" fill="#C09068"/>
<path d="M116.82 89.8242C116.927 89.6722 116.89 89.462 116.738 89.3548C116.587 89.2475 116.376 89.2838 116.269 89.4358C116.162 89.5878 116.198 89.798 116.35 89.9052C116.502 90.0124 116.712 89.9762 116.82 89.8242Z" fill="#C09068"/>
<path d="M36.6352 12.829C36.7545 12.7446 36.7828 12.5795 36.6984 12.4601C36.6141 12.3408 36.449 12.3124 36.3297 12.3968C36.2103 12.4812 36.1819 12.6463 36.2663 12.7657C36.3507 12.885 36.5159 12.9133 36.6352 12.829Z" fill="#C09068"/>
<path d="M115.637 91.6932C115.721 91.5738 115.693 91.4086 115.573 91.3243C115.454 91.2399 115.289 91.2684 115.204 91.3878C115.12 91.5071 115.148 91.6722 115.268 91.7565C115.387 91.8409 115.552 91.8126 115.637 91.6932Z" fill="#C09068"/>
</svg>
