<svg width="105" height="11" viewBox="0 0 105 11" fill="none" xmlns="http://www.w3.org/2000/svg">
<path d="M53.1906 1.33883L53.3315 1.47976C53.4231 1.57137 53.557 1.71936 53.7261 1.91668C53.9271 2.16289 54.1085 2.42442 54.2687 2.69889C54.4896 3.07761 54.6556 3.48569 54.762 3.91097C54.8277 4.16473 54.8678 4.42441 54.8818 4.68614C54.8998 4.976 54.8832 5.26697 54.8325 5.55292C54.7181 6.20338 54.4499 6.81707 54.0503 7.34286C53.5954 7.93543 53.0248 8.42932 52.3731 8.79453C51.6553 9.1922 50.8767 9.46841 50.0687 9.61198C49.1945 9.77051 48.3016 9.79901 47.4191 9.69654C46.4782 9.58386 45.5564 9.34689 44.6778 8.99185C43.7539 8.62659 42.8763 8.15351 42.0634 7.58245C41.65 7.29118 41.2483 6.97876 40.8583 6.6452C40.6681 6.47607 40.4708 6.30695 40.2875 6.12373L40.1466 5.98983L40.0691 5.91936L39.9986 5.84889C39.907 5.75728 39.8224 5.67272 39.7308 5.56701C39.3635 5.17574 39.0398 4.7457 38.7654 4.28446C38.6262 4.04875 38.5083 3.80113 38.413 3.54453C38.3137 3.28324 38.2451 3.01128 38.2087 2.73413C38.1624 2.45179 38.1624 2.16379 38.2087 1.88145C38.2665 1.59588 38.3815 1.32499 38.5469 1.08513C38.7151 0.846096 38.9311 0.64454 39.1812 0.49319C39.4322 0.344586 39.7099 0.246438 39.9986 0.204262C40.1417 0.192981 40.2854 0.192981 40.4285 0.204262H40.6469H40.8513C41.1394 0.239976 41.4228 0.306116 41.6969 0.401576C42.2491 0.598343 42.7569 0.902519 43.1909 1.29655C43.4104 1.49347 43.6109 1.71053 43.7899 1.94487C43.9725 2.17845 44.1329 2.42852 44.2691 2.69184C44.5439 3.22437 44.7206 3.80206 44.7906 4.39722C44.8925 5.0175 44.8733 5.65165 44.7342 6.26466C44.5782 6.86747 44.2865 7.42666 43.8815 7.89956C43.4752 8.36278 42.9758 8.735 42.4157 8.99185C41.8841 9.24114 41.3192 9.41205 40.7385 9.49923C40.1791 9.58527 39.6129 9.6183 39.0473 9.59789C38.4973 9.57986 37.9489 9.52808 37.4053 9.44285L36.9966 9.37238L36.602 9.29487C36.3342 9.23849 36.0734 9.16802 35.8198 9.09755C35.3053 8.95661 34.805 8.79453 34.3187 8.63245C33.3392 8.30124 32.3879 7.92775 31.4647 7.60359C30.5416 7.27943 29.6325 6.89889 28.7516 6.59587C26.9899 5.9546 25.3057 5.39789 23.7271 4.98916C22.3015 4.5936 20.8404 4.33869 19.3651 4.22809C18.2239 4.14089 17.0761 4.24328 15.9684 4.53111C15.5607 4.64447 15.1643 4.79545 14.7845 4.98211C14.5049 5.12384 14.2364 5.28638 13.9812 5.46836C13.8219 5.58203 13.669 5.70436 13.5231 5.8348L13.3751 5.96869L13.5231 5.82775C13.6639 5.69055 13.8121 5.56116 13.9671 5.44017C14.2167 5.24681 14.4805 5.07249 14.7563 4.91869C15.1344 4.7132 15.5307 4.54334 15.9402 4.41131C16.4473 4.24572 16.9687 4.12776 17.4976 4.05896C18.1167 3.97897 18.741 3.94599 19.3651 3.9603C20.8708 4.01765 22.3673 4.223 23.8328 4.57339C25.4466 4.93984 27.159 5.45426 28.9489 6.03916C29.8439 6.33513 30.76 6.6452 31.6973 6.96232C32.6345 7.27943 33.5859 7.60359 34.5583 7.89956C35.0446 8.04755 35.5379 8.18849 36.0312 8.30829C36.2778 8.36466 36.5315 8.42809 36.7711 8.47037L37.1516 8.53379L37.5251 8.58312C38.5367 8.73364 39.5649 8.73364 40.5765 8.58312C41.0647 8.4982 41.539 8.34644 41.9859 8.13211C42.638 7.82683 43.1737 7.31858 43.5129 6.68343C43.852 6.04827 43.9764 5.32036 43.8674 4.60862C43.8055 4.12366 43.6774 3.64946 43.4869 3.19923C43.3922 2.95725 43.2816 2.72183 43.1557 2.49453C43.0284 2.27715 42.8847 2.06983 42.7258 1.8744C42.4149 1.46461 42.018 1.12786 41.563 0.88782C41.3397 0.775763 41.1028 0.692871 40.8583 0.641176H40.661H40.4778C40.3536 0.629063 40.2285 0.629063 40.1043 0.641176C39.8622 0.667139 39.6282 0.743202 39.4171 0.864523C39.206 0.985845 39.0225 1.14977 38.8781 1.34587C38.6083 1.76272 38.5075 2.26672 38.5963 2.75527C38.6342 2.9979 38.7028 3.23471 38.8006 3.45997C38.8982 3.69078 39.0161 3.91245 39.153 4.12238C39.4272 4.54081 39.7488 4.92625 40.1114 5.27104C40.1959 5.35561 40.2946 5.44721 40.3932 5.53178L40.4637 5.5952L40.5342 5.65158L40.6751 5.77138C40.8654 5.93346 41.0627 6.08849 41.253 6.24352C41.6476 6.5395 42.0422 6.82843 42.451 7.08916C42.8597 7.3499 43.2755 7.58245 43.6912 7.79386L44.0083 7.94889L44.3255 8.08983L44.6426 8.22373L44.9597 8.35057L45.2768 8.47037L45.5939 8.58312L46.2352 8.76634C46.6547 8.87547 47.0807 8.95785 47.5107 9.01299C48.3265 9.12762 49.1543 9.12762 49.9701 9.01299C50.7086 8.89531 51.4228 8.65725 52.0842 8.30829C52.6871 8.00321 53.2217 7.57887 53.6557 7.06098C54.0452 6.6008 54.3204 6.0551 54.459 5.46836C54.5196 5.21202 54.5503 4.94954 54.5506 4.68614C54.5524 4.44974 54.5312 4.21372 54.4872 3.98144C54.411 3.57138 54.2807 3.17327 54.0996 2.79755C53.964 2.51673 53.8086 2.24591 53.6345 1.98715C53.4936 1.77574 53.3738 1.6207 53.2892 1.515L53.1906 1.35997V1.33883Z" fill="#C09068"/>
<path d="M54.0219 5.79964L53.9021 5.91944L53.7542 6.06038L53.5216 6.2436C53.437 6.31407 53.3313 6.37045 53.2115 6.44796C53.15 6.48436 53.0865 6.5173 53.0213 6.54662C52.9578 6.54662 52.8874 6.61709 52.8099 6.64528L52.5773 6.74394L52.3166 6.82145C52.225 6.82145 52.1333 6.86374 52.0347 6.88488C51.9347 6.9069 51.8335 6.92337 51.7317 6.93421C51.2598 6.98731 50.7822 6.95388 50.3223 6.83555L50.139 6.78622L49.9558 6.7228C49.8287 6.67784 49.704 6.62608 49.5823 6.56776C49.3305 6.44294 49.094 6.28922 48.8776 6.10971C48.6414 5.9266 48.4326 5.71065 48.2575 5.46843C48.0714 5.20386 47.9484 4.90009 47.8981 4.58051C47.8708 4.41421 47.8806 4.24392 47.9269 4.08187C47.9732 3.91982 48.0548 3.77004 48.1659 3.64327C48.282 3.50862 48.4416 3.41887 48.6169 3.38958C48.7985 3.36529 48.9833 3.3896 49.1525 3.46005C49.5019 3.61191 49.8039 3.85539 50.0263 4.16474C50.2588 4.47413 50.4222 4.82978 50.5055 5.20769C50.6026 5.59687 50.6265 6.00072 50.576 6.39863C50.5216 6.80827 50.3875 7.20329 50.1813 7.56139C49.968 7.92076 49.6965 8.24224 49.378 8.51273C49.0598 8.7886 48.7097 9.0252 48.335 9.21743C48.1518 9.31608 47.9545 9.40065 47.7642 9.47817L47.6162 9.53454H47.5387H47.4682L47.1723 9.64024C46.975 9.71071 46.7706 9.77414 46.5662 9.83756C46.3619 9.90098 46.1575 9.9644 45.9461 10.0137L45.636 10.0913L45.3189 10.1617L45.0018 10.2251L44.734 10.2604C44.2977 10.326 43.8574 10.3613 43.4162 10.3661C42.9682 10.3722 42.5204 10.3416 42.0773 10.2745C41.6295 10.2092 41.1868 10.1127 40.7525 9.98555C40.3156 9.8587 39.8857 9.70367 39.4629 9.5275C39.0401 9.35132 38.6243 9.16105 38.2156 8.95669C37.3911 8.54796 36.5948 8.09696 35.8125 7.62481L34.6427 6.92011L34.0649 6.55367L33.4588 6.17313L32.888 5.81373L32.3243 5.46139C31.9437 5.22883 31.5632 5.00333 31.1827 4.75669C29.6942 3.91056 28.13 3.20515 26.5105 2.64964C25.7406 2.3775 24.9515 2.16315 24.1498 2.00836C23.3956 1.86272 22.6272 1.80361 21.8595 1.83219C21.6763 1.83219 21.4931 1.83219 21.3169 1.88152L21.0491 1.9238L20.7743 1.94494C20.4398 2.02085 20.1156 2.13679 19.8088 2.29024L19.6961 2.34662L19.5904 2.41005L19.379 2.54394C19.2454 2.63618 19.1183 2.73742 18.9984 2.84696C18.764 3.05591 18.5558 3.29254 18.3783 3.55165L18.2585 3.74193L18.1458 3.94628C18.109 4.01488 18.0761 4.08546 18.0471 4.15769C18.0153 4.22666 17.9871 4.29722 17.9625 4.36911C17.8576 4.64611 17.7867 4.93478 17.7511 5.22884C17.7171 5.50734 17.7171 5.78893 17.7511 6.06743C17.785 6.34506 17.8536 6.61734 17.9555 6.87783C18.0944 7.34095 18.3352 7.76713 18.6602 8.12514C18.956 8.41522 19.3087 8.64078 19.6961 8.78756C20.0144 8.90426 20.3507 8.9639 20.6897 8.96373H20.9082H21.1055L21.4508 8.90736L21.7186 8.83689L21.9088 8.77347L22.0639 8.71709C22.0772 8.71657 22.0904 8.72026 22.1015 8.72764C22.1126 8.73502 22.1211 8.74571 22.1257 8.75819C22.1304 8.77068 22.1311 8.78432 22.1275 8.79718C22.124 8.81005 22.1165 8.82147 22.1062 8.82984L21.9511 8.90031L21.7609 8.98487L21.486 9.07649L21.1337 9.1681H20.9223H20.8095H20.6897C20.3191 9.19467 19.9466 9.15409 19.5904 9.0483C19.14 8.90422 18.7264 8.66374 18.3783 8.3436C17.9671 7.9738 17.6443 7.51618 17.434 7.00468C17.1918 6.4211 17.0927 5.78804 17.1451 5.15836C17.173 4.81784 17.2416 4.48189 17.3495 4.15769C17.3495 4.07313 17.4058 3.99562 17.4411 3.91105C17.4721 3.82709 17.5073 3.74476 17.5468 3.66441L17.6666 3.41776L17.8075 3.17112C17.8568 3.08655 17.9062 3.01608 17.9484 2.94561L18.0189 2.83991L18.0541 2.78354L18.2374 2.56508L18.2867 2.5087L18.336 2.45938L18.4417 2.36071C18.5809 2.22389 18.7292 2.09675 18.8857 1.98018L19.1323 1.8181L19.3649 1.73353L19.4988 1.66306C19.8474 1.47945 20.2163 1.33754 20.5981 1.24025L20.8941 1.16978L21.1971 1.1134C21.4015 1.07112 21.6058 1.05702 21.8102 1.03588C22.6441 0.982145 23.4814 1.02709 24.3048 1.16978C25.153 1.31405 25.9892 1.52133 26.8065 1.78991C28.4954 2.36178 30.1259 3.09327 31.676 3.97447C32.0706 4.19293 32.4652 4.42548 32.8528 4.67917C33.2404 4.93286 33.628 5.17951 33.9944 5.4332L35.1008 6.17313L36.2072 6.9624C36.9119 7.48387 37.687 7.9983 38.4481 8.47045C38.8286 8.703 39.2162 8.9285 39.6109 9.12582C40.0035 9.32909 40.4083 9.50795 40.8229 9.66138C42.0514 10.1261 43.3783 10.2692 44.6776 10.0772C45.0992 10.0174 45.516 9.92794 45.925 9.80938L46.228 9.71776L46.531 9.6191C46.7283 9.54863 46.9256 9.47817 47.1159 9.40065L47.4048 9.28085H47.4753H47.5458L47.6867 9.21743C47.8699 9.13286 48.0531 9.04125 48.2293 8.93555C48.5732 8.73918 48.8926 8.50262 49.1807 8.23085C49.4634 7.97626 49.7016 7.67614 49.8854 7.34293C50.2168 6.71022 50.3022 5.97715 50.125 5.28521C50.0376 4.96043 49.9097 4.64792 49.7444 4.35501C49.6675 4.20884 49.5779 4.06972 49.4766 3.93924C49.3785 3.80991 49.2594 3.69796 49.1243 3.60803C48.9947 3.51709 48.8384 3.47241 48.6803 3.48119C48.6033 3.48928 48.5286 3.51279 48.4608 3.55032C48.393 3.58785 48.3335 3.63863 48.2857 3.69964C48.1873 3.81568 48.1197 3.95455 48.0889 4.10352C48.0581 4.25249 48.0652 4.40681 48.1095 4.55232C48.1965 4.81887 48.3464 5.06057 48.5464 5.25702C48.7342 5.45092 48.9448 5.62129 49.1736 5.76441C49.926 6.2711 50.8179 6.52982 51.7246 6.50434C52.3167 6.47869 52.8961 6.32481 53.4229 6.05333L53.6696 5.92649L53.8458 5.82078L53.9867 5.73622C53.996 5.72874 54.008 5.72529 54.0199 5.72661C54.0318 5.72793 54.0426 5.73392 54.0501 5.74327C54.0576 5.75261 54.0611 5.76454 54.0597 5.77644C54.0584 5.78833 54.0524 5.79921 54.0431 5.80669L54.0219 5.79964Z" fill="#C09068"/>
<path d="M55.1002 1.33909L54.9592 1.48003C54.8676 1.57164 54.7337 1.71963 54.5646 1.91694C54.3636 2.16315 54.1822 2.42469 54.022 2.69916C53.8011 3.07783 53.635 3.48592 53.5287 3.91124C53.463 4.16498 53.4229 4.42466 53.4089 4.68641C53.3909 4.97626 53.4074 5.26724 53.4582 5.55319C53.5726 6.20364 53.8408 6.81734 54.2405 7.34312C54.6953 7.93569 55.266 8.42958 55.9176 8.7948C56.6354 9.19247 57.4141 9.46868 58.222 9.61224C59.0962 9.77077 59.9891 9.79927 60.8717 9.69681C61.8126 9.58412 62.7344 9.34715 63.6129 8.99211C64.5369 8.62691 65.4144 8.15383 66.2274 7.58271C66.6408 7.29144 67.0425 6.97902 67.4324 6.64546C67.6227 6.47634 67.82 6.30721 68.0032 6.12399L68.1441 5.9901L68.2217 5.91963L68.2921 5.84916C68.3837 5.75755 68.4683 5.67298 68.5599 5.56728C68.9272 5.176 69.251 4.74596 69.5254 4.28473C69.6645 4.04902 69.7824 3.8014 69.8777 3.54479C69.9802 3.30244 70.0558 3.04959 70.1032 2.79077C70.1495 2.50842 70.1495 2.22043 70.1032 1.93808C70.0454 1.65252 69.9303 1.38163 69.7649 1.14177C69.5967 0.902737 69.3808 0.701175 69.1307 0.549826C68.8796 0.401221 68.602 0.303079 68.3133 0.260902C68.1702 0.249621 68.0265 0.249621 67.8834 0.260902H67.665H67.4606C67.1725 0.296617 66.8891 0.362757 66.615 0.458217C66.0628 0.654983 65.555 0.959159 65.121 1.35319C64.9015 1.55012 64.701 1.76717 64.522 2.00151C64.3395 2.23512 64.1791 2.48518 64.0428 2.74849C63.768 3.28101 63.5913 3.85869 63.5213 4.45385C63.4451 5.05928 63.4834 5.67363 63.6341 6.26493C63.7901 6.86773 64.0817 7.42692 64.4868 7.89983C64.8705 8.3545 65.3428 8.72617 65.875 8.99211C66.4066 9.24141 66.9716 9.41231 67.5522 9.49949C68.1116 9.58553 68.6779 9.61857 69.2435 9.59815C69.7934 9.58012 70.3418 9.52835 70.8854 9.44312L71.2941 9.37265L71.6888 9.29513C71.9636 9.23876 72.2173 9.16829 72.471 9.09782C72.9854 8.95688 73.4858 8.79479 73.972 8.63271C74.9515 8.30151 75.9029 7.92802 76.826 7.60385C77.7492 7.27969 78.6582 6.89916 79.5391 6.59614C81.3009 5.95486 82.9851 5.39815 84.5636 4.98943C85.9939 4.59296 87.4596 4.33804 88.9398 4.22835C90.081 4.14116 91.2287 4.24355 92.3364 4.53137C92.7442 4.64473 93.1405 4.79572 93.5203 4.98238C93.7999 5.12411 94.0684 5.28665 94.3237 5.46862C94.4829 5.5823 94.6359 5.70463 94.7817 5.83506L94.9297 5.96896L94.7817 5.82802C94.6409 5.69081 94.4927 5.56142 94.3378 5.44043C94.0882 5.24703 93.8243 5.07271 93.5485 4.91896C93.1705 4.71343 92.7741 4.54357 92.3646 4.41157C91.8576 4.24599 91.3362 4.12803 90.8072 4.05922C90.1833 3.98087 89.5543 3.95025 88.9257 3.96762C87.4199 4.02496 85.9235 4.23031 84.4579 4.5807C82.8441 4.94714 81.1317 5.46157 79.3418 6.04647C78.4468 6.34245 77.5307 6.65251 76.5935 6.96963C75.6562 7.28674 74.7049 7.6109 73.7324 7.90688C73.2462 8.05486 72.7529 8.1958 72.2596 8.3156C72.0129 8.37198 71.7592 8.4354 71.5197 8.47768L71.1391 8.5411L70.7656 8.59043C69.7541 8.74095 68.7258 8.74095 67.7143 8.59043C67.226 8.50551 66.7518 8.35375 66.3049 8.13943C65.6528 7.83414 65.117 7.32589 64.7779 6.69073C64.4387 6.05558 64.3143 5.32767 64.4233 4.61594C64.4853 4.13097 64.6133 3.65677 64.8039 3.20654C64.8985 2.96456 65.0092 2.72914 65.1351 2.50184C65.2623 2.28446 65.406 2.07714 65.5649 1.88171C65.8817 1.4839 66.2807 1.15935 66.7348 0.930363C66.9581 0.818307 67.195 0.735414 67.4394 0.68372H67.6368H67.82C67.9442 0.671607 68.0693 0.671607 68.1935 0.68372C68.4356 0.709683 68.6696 0.785746 68.8807 0.907067C69.0918 1.02839 69.2753 1.19231 69.4196 1.38842C69.6894 1.80527 69.7902 2.30926 69.7015 2.79781C69.6636 3.04044 69.595 3.27725 69.4972 3.50251C69.3996 3.73332 69.2817 3.955 69.1448 4.16493C68.8705 4.58336 68.549 4.96879 68.1864 5.31359C68.1019 5.39815 68.0032 5.48976 67.9045 5.57433L67.8341 5.63775L67.7636 5.69412L67.6227 5.81392C67.4324 5.976 67.2351 6.13104 67.0448 6.28607C66.6502 6.58205 66.2556 6.87097 65.8468 7.13171C65.4381 7.39245 65.0223 7.625 64.6066 7.83641L64.2894 7.99144L63.9723 8.13238L63.6552 8.26627L63.3381 8.39312L63.021 8.51292L62.7039 8.62567L62.0626 8.80889C61.6431 8.91802 61.2171 9.0004 60.7871 9.05553C59.9713 9.17017 59.1435 9.17017 58.3277 9.05553C57.5892 8.93785 56.875 8.69979 56.2136 8.35083C55.591 8.0362 55.0412 7.59448 54.5999 7.05419C54.224 6.59261 53.961 6.0497 53.8317 5.46862C53.7712 5.21228 53.7404 4.9498 53.7401 4.68641C53.7383 4.45 53.7595 4.21399 53.8035 3.98171C53.8797 3.57165 54.0101 3.17353 54.1911 2.79781C54.3267 2.51699 54.4822 2.24617 54.6562 1.98741C54.7972 1.776 54.917 1.62097 55.0015 1.51526L55.1284 1.36023L55.1002 1.33909Z" fill="#C09068"/>
<path d="M54.2685 5.79968L54.3883 5.91948L54.5363 6.06042L54.7689 6.24364C54.8534 6.31411 54.9662 6.37049 55.0789 6.448C55.1405 6.4844 55.204 6.51734 55.2692 6.54666C55.3326 6.54666 55.4031 6.61713 55.4806 6.64532L55.7132 6.74397L55.9739 6.82149C56.0655 6.82149 56.1571 6.86378 56.2558 6.88492C56.3558 6.90694 56.457 6.9234 56.5588 6.93425C57.0307 6.98735 57.5083 6.95392 57.9682 6.83559L58.1514 6.78626L58.3347 6.72283C58.4618 6.67788 58.5865 6.62612 58.7081 6.5678C58.96 6.44298 59.1965 6.28926 59.4128 6.10975C59.6487 5.90626 59.853 5.66875 60.0189 5.40505C60.205 5.14048 60.328 4.8367 60.3783 4.51713C60.4056 4.35083 60.3957 4.18054 60.3494 4.01849C60.3031 3.85644 60.2215 3.70665 60.1105 3.57988C59.9944 3.44524 59.8348 3.35548 59.6595 3.32619C59.4779 3.3019 59.2931 3.32622 59.1239 3.39666C58.7745 3.54852 58.4725 3.792 58.2501 4.10136C58.0176 4.41074 57.8542 4.7664 57.7709 5.14431C57.6738 5.53349 57.6499 5.93734 57.7004 6.33525C57.7548 6.74489 57.8888 7.1399 58.0951 7.498C58.3084 7.85737 58.5798 8.17886 58.8984 8.44935C59.2165 8.72522 59.5667 8.96182 59.9414 9.15405C60.1246 9.2527 60.3219 9.33726 60.5122 9.41478L60.6602 9.47116H60.7377H60.8081L61.1041 9.57686C61.3014 9.64733 61.5058 9.71076 61.7102 9.77418C61.9145 9.8376 62.1189 9.90102 62.3303 9.95035L62.6404 10.0279L62.9575 10.0983L63.2746 10.1618L63.5987 10.2181C64.035 10.2838 64.4754 10.3191 64.9165 10.3238C65.3646 10.33 65.8124 10.2993 66.2555 10.2322C66.7033 10.167 67.146 10.0704 67.5803 9.9433C68.0172 9.81646 68.4471 9.66142 68.8699 9.48525C69.2927 9.30908 69.7085 9.11881 70.1172 8.91445C70.9417 8.50572 71.738 8.05471 72.5202 7.58257L73.69 6.87787L74.2679 6.51143L74.8387 6.14498L75.4095 5.78558L75.9732 5.43324C76.3538 5.20069 76.7343 4.97518 77.1149 4.72854C78.6021 3.8925 80.1639 3.19656 81.78 2.64968C82.5498 2.37754 83.3389 2.16319 84.1407 2.0084C84.8949 1.86276 85.6633 1.80365 86.431 1.83223C86.6142 1.83223 86.7974 1.83223 86.9736 1.88156L87.2414 1.92384L87.5021 1.98022C87.8366 2.05613 88.1608 2.17206 88.4675 2.32552L88.5803 2.3819L88.686 2.44532L88.8974 2.57921C89.031 2.67146 89.1581 2.7727 89.2779 2.88223C89.5124 3.09119 89.7206 3.32782 89.8981 3.58693L90.0179 3.7772L90.1306 3.98156C90.1674 4.05016 90.2003 4.12074 90.2293 4.19297C90.2611 4.26195 90.2893 4.33251 90.3138 4.40438C90.4187 4.6814 90.4897 4.97007 90.5253 5.26411C90.5593 5.54261 90.5593 5.82421 90.5253 6.1027C90.4977 6.36719 90.4385 6.62743 90.3491 6.87787C90.1898 7.33607 89.9297 7.75269 89.588 8.097C89.2922 8.38707 88.9395 8.61263 88.5521 8.75941C88.2338 8.87611 87.8975 8.93575 87.5585 8.93559H87.34H87.1427L86.7974 8.87921L86.5296 8.80874L86.3393 8.74532L86.1843 8.68894C86.171 8.68842 86.1578 8.69211 86.1467 8.69949C86.1356 8.70687 86.1271 8.71756 86.1224 8.73005C86.1178 8.74253 86.1171 8.75617 86.1207 8.76904C86.1242 8.7819 86.1316 8.79333 86.142 8.8017L86.2971 8.87217L86.4873 8.95673L86.7622 9.04834L87.1145 9.13995H87.3259H87.4387H87.5585C87.9291 9.16652 88.3016 9.12594 88.6578 9.02015C89.1082 8.87607 89.5218 8.63559 89.8699 8.31545C90.2811 7.94565 90.6039 7.48803 90.8142 6.97653C91.0564 6.39295 91.1555 5.75989 91.1031 5.13022C91.0752 4.78969 91.0066 4.45374 90.8987 4.12955C90.8987 4.04498 90.8424 3.96747 90.8071 3.8829C90.7761 3.79894 90.7408 3.71662 90.7014 3.63626L90.5816 3.38962L90.4407 3.14297C90.3914 3.0584 90.342 2.98793 90.2998 2.91746L90.2293 2.81176L90.194 2.75539L90.0108 2.53693L89.9615 2.48055L89.9122 2.43123L89.8065 2.33257C89.6673 2.19575 89.519 2.0686 89.3625 1.95203L89.1159 1.78995L88.989 1.70539L88.8551 1.63491C88.4941 1.45841 88.1132 1.32592 87.7206 1.24028L87.4246 1.16982L87.1216 1.11344C86.9172 1.07116 86.7128 1.05706 86.5085 1.03592C85.6746 0.982118 84.8372 1.02706 84.0139 1.16982C83.1657 1.31409 82.3295 1.52137 81.5122 1.78995C79.8233 2.36181 78.1928 3.09331 76.6427 3.97451C76.2481 4.19297 75.8534 4.42552 75.4659 4.67921C75.0783 4.9329 74.6907 5.17954 74.3242 5.43324L73.1897 6.17317L72.0833 6.96243C71.3786 7.48391 70.6034 7.99834 69.8424 8.47049C69.4618 8.70304 69.0743 8.92854 68.6796 9.12586C68.287 9.32913 67.8822 9.50799 67.4675 9.66142C66.239 10.1261 64.9122 10.2692 63.6128 10.0772C63.1913 10.0175 62.7745 9.92798 62.3655 9.80942L62.0625 9.7178L61.7595 9.61914C61.5622 9.54867 61.3649 9.47821 61.1746 9.40069L60.8857 9.28089H60.8152H60.7447L60.6038 9.21747C60.4206 9.1329 60.2373 9.04129 60.0612 8.93559C59.7172 8.73922 59.3979 8.50266 59.1098 8.23089C58.827 7.97629 58.5888 7.67618 58.4051 7.34297C58.0736 6.71026 57.9883 5.97719 58.1655 5.28525C58.2529 4.96047 58.3808 4.64796 58.5461 4.35505C58.623 4.20888 58.7126 4.06976 58.8138 3.93928C58.9121 3.81004 59.0311 3.6981 59.1662 3.60807C59.2957 3.51713 59.4521 3.47245 59.6102 3.48122C59.6872 3.48932 59.7619 3.51283 59.8297 3.55036C59.8975 3.58789 59.957 3.63867 60.0048 3.69968C60.1031 3.81572 60.1708 3.95459 60.2016 4.10356C60.2324 4.25253 60.2253 4.40684 60.181 4.55236C60.0942 4.81903 59.9443 5.06079 59.744 5.25706C59.5563 5.45096 59.3457 5.62133 59.1169 5.76444C58.3645 6.27114 57.4726 6.52986 56.5659 6.50438C55.9738 6.47873 55.3943 6.32485 54.8675 6.05337L54.6209 5.92653L54.4447 5.82082L54.3038 5.73626C54.2992 5.73255 54.2938 5.7298 54.2881 5.72815C54.2825 5.7265 54.2765 5.72599 54.2706 5.72665C54.2587 5.72797 54.2478 5.73396 54.2404 5.7433C54.2329 5.75265 54.2294 5.76458 54.2307 5.77648C54.2321 5.78837 54.2381 5.79925 54.2474 5.80673L54.2685 5.79968Z" fill="#C09068"/>
<path d="M104.76 0.479195H0.239597C0.176052 0.479195 0.115109 0.453955 0.0701757 0.409022C0.0252425 0.364089 0 0.303145 0 0.2396C0 0.176055 0.0252425 0.115112 0.0701757 0.0701784C0.115109 0.0252452 0.176052 0 0.239597 0H104.76C104.824 0 104.885 0.0252452 104.93 0.0701784C104.975 0.115112 105 0.176055 105 0.2396C105 0.303145 104.975 0.364089 104.93 0.409022C104.885 0.453955 104.824 0.479195 104.76 0.479195Z" fill="#C09068"/>
</svg>
