<svg width="227" height="46" viewBox="0 0 227 46" fill="none" xmlns="http://www.w3.org/2000/svg">
<path d="M0 5.10632C0.699732 5.98931 1.31878 6.87231 2.07233 7.73078C2.82589 8.58925 3.60635 9.39867 4.41373 10.1836C6.05919 11.7844 7.86077 13.2457 9.79628 14.5495C11.7697 15.8544 13.8898 16.9644 16.1208 17.8607C18.3544 18.7621 20.6802 19.4605 23.0642 19.9456C25.4448 20.4345 27.8668 20.7381 30.3038 20.8531C32.7236 20.9892 35.1504 20.9892 37.5703 20.8531C39.9924 20.706 42.3607 20.4116 44.729 20.0682C47.0973 19.7249 49.4388 19.2588 51.7533 18.7683C54.0677 18.2777 56.3822 17.7136 58.6429 17.1249L65.4518 15.3344L72.207 13.5193C74.4407 12.9552 76.7014 12.3911 78.9351 11.925C81.1407 11.4542 83.38 11.1263 85.6364 10.9439C86.7296 10.8773 87.8265 10.8773 88.9198 10.9439C90.0275 10.9916 91.1274 11.1395 92.2031 11.3854C93.1464 11.6407 94.0506 12.0032 94.8944 12.4646C95.7503 12.9644 96.5287 13.5666 97.2088 14.2552C98.5847 15.7676 99.6266 17.5084 100.277 19.3815L102.403 18.4985C102.134 18.1551 101.919 17.8853 101.65 17.6155L100.869 16.806C100.334 16.2798 99.7679 15.7804 99.1735 15.3099C97.9799 14.3475 96.6601 13.5237 95.2443 12.8571C94.8864 12.6829 94.518 12.5273 94.1408 12.3911C93.7722 12.2486 93.3947 12.1257 93.0105 12.0231C92.631 11.9055 92.2447 11.8072 91.8532 11.7288H91.2611H90.9651H90.6422C89.0778 11.5597 87.4969 11.5597 85.9325 11.7288C84.3141 11.8957 82.7442 12.3366 81.3035 13.0288C79.8578 13.7381 78.6066 14.7358 77.6433 15.9476C76.698 17.1482 76.0213 18.5067 75.6518 19.9456C75.2833 21.3584 75.1742 22.8171 75.3288 24.2625C75.4779 25.7065 75.8965 27.1167 76.5668 28.4322C77.2391 29.769 78.2324 30.9509 79.4734 31.8906C80.7401 32.8311 82.2677 33.4339 83.8871 33.6321H84.4792H86.8206H87.4126C87.8125 33.5836 88.2082 33.5099 88.5968 33.4113C90.2126 33.0878 91.6294 32.2094 92.553 30.9586C92.9716 30.2988 93.2227 29.562 93.2879 28.8023C93.3531 28.0425 93.2307 27.2791 92.9297 26.5681C92.6436 25.8539 92.1835 25.2082 91.5841 24.6795C90.9748 24.1506 90.2226 23.7782 89.4042 23.6002C88.5994 23.4233 87.7599 23.4233 86.9551 23.6002C86.1845 23.7946 85.4498 24.0921 84.7752 24.4832C84.6901 24.546 84.6326 24.6345 84.613 24.7326C84.5935 24.8308 84.6131 24.9321 84.6685 25.0181C84.7238 25.1042 84.8112 25.1693 84.9147 25.2017C85.0182 25.234 85.1311 25.2315 85.2327 25.1945C85.8345 24.8622 86.4877 24.6141 87.1704 24.4587C87.8249 24.315 88.5075 24.315 89.162 24.4587C89.7962 24.6363 90.373 24.9526 90.8421 25.3802C91.3112 25.8078 91.6584 26.3335 91.8532 26.9115C92.0867 27.4827 92.1765 28.0944 92.116 28.7015C92.0554 29.3085 91.846 29.8955 91.5034 30.4189C90.7307 31.4374 89.5529 32.1413 88.22 32.3812C87.8839 32.4601 87.5423 32.5175 87.1974 32.5529H86.686H84.5599H84.0486C82.6892 32.3655 81.4132 31.8392 80.3615 31.0321C79.3114 30.1989 78.4832 29.1588 77.9394 27.9907C77.3798 26.8164 77.043 25.564 76.9435 24.287C76.6827 21.7365 77.4374 19.1857 79.0697 17.1004C79.8816 16.0775 80.9405 15.2384 82.1646 14.6476C83.3934 14.0863 84.7257 13.737 86.0939 13.6174C86.784 13.5765 87.4762 13.5765 88.1662 13.6174C88.897 13.6518 89.6249 13.7255 90.3461 13.8382H90.5615H90.8037H91.315C91.6109 13.8245 91.9073 13.8245 92.2031 13.8382C92.5335 13.9345 92.857 14.0492 93.1719 14.1816C93.4948 14.3032 93.8094 14.4424 94.1139 14.5986C95.3579 15.2017 96.515 15.9432 97.5587 16.806C98.0881 17.2386 98.5912 17.6971 99.0658 18.1796L99.7386 18.9154L100.331 19.6513L104.529 25.3662L102.511 18.7437C102.349 18.2041 102.215 17.64 102.026 17.1004L101.73 16.291L101.569 15.874L101.38 15.4815L101.004 14.6967L100.546 13.9118C100.23 13.3942 99.879 12.8946 99.4964 12.4156C98.6724 11.4748 97.7024 10.6485 96.6168 9.96281C95.506 9.29613 94.3021 8.76817 93.0374 8.39303C91.7991 8.06042 90.5282 7.83862 89.2427 7.73078C87.9882 7.65358 86.7294 7.65358 85.4749 7.73078C83.0402 7.86748 80.6202 8.17085 78.2354 8.63832C75.8671 9.07981 73.5526 9.59489 71.265 10.1836L64.4291 11.9496L57.6471 13.8382C55.3865 14.4269 53.1527 14.9665 50.892 15.4815C48.6314 15.9966 46.3707 16.4627 44.11 16.8551C41.8494 17.2475 39.5618 17.5419 37.2742 17.7626C35.0044 17.9886 32.7214 18.0869 30.4383 18.057C28.1647 18.0154 25.8977 17.8186 23.6563 17.4683C21.4181 17.1112 19.2202 16.5693 17.0896 15.8495C14.9546 15.1285 12.9073 14.2079 10.9804 13.1024C9.07337 11.9829 7.27286 10.7193 5.5979 9.32509L4.333 8.24587C3.90239 7.90248 3.52558 7.48551 3.12189 7.11759C2.28759 6.38176 1.56096 5.52329 0.780493 4.66482C0.709249 4.60125 0.614736 4.56397 0.515127 4.56014C0.415517 4.55631 0.317836 4.58621 0.240973 4.64408C0.16411 4.70195 0.113481 4.7837 0.0988038 4.87357C0.0841265 4.96344 0.10643 5.05509 0.16147 5.13085L0 5.10632Z" fill="#C09068"/>
<path d="M225.69 4.66459C224.91 5.47401 224.156 6.30796 223.322 7.11739C222.918 7.48531 222.542 7.90229 222.111 8.24568L220.846 9.32491C219.171 10.7189 217.37 11.9824 215.464 13.1022C213.537 14.2076 211.489 15.1282 209.354 15.8493C207.224 16.5691 205.026 17.1109 202.788 17.4682C200.546 17.8184 198.279 18.0152 196.006 18.0569C193.723 18.0868 191.44 17.9885 189.17 17.7625C186.882 17.5418 184.621 17.2474 182.334 16.855C180.046 16.4625 177.813 15.9965 175.552 15.4814C173.291 14.9663 171.057 14.4267 168.797 13.8381L162.042 12.023L155.206 10.257C152.918 9.69283 150.604 9.15321 148.235 8.71171C145.851 8.24424 143.431 7.94087 140.996 7.80417C139.741 7.72697 138.483 7.72697 137.228 7.80417C135.943 7.91201 134.672 8.13381 133.433 8.46643C132.169 8.8413 130.965 9.36928 129.854 10.0362C128.768 10.7219 127.798 11.5482 126.974 12.489C126.591 12.9678 126.241 13.4674 125.925 13.9852C125.763 14.255 125.602 14.5003 125.467 14.7701L125.09 15.555L124.902 15.9475L124.498 16.2909L124.202 17.1003C124.014 17.6399 123.879 18.204 123.718 18.7436L121.807 25.4153L126.006 19.7002L126.598 18.9644L127.27 18.2286C127.745 17.746 128.248 17.2874 128.778 16.855C129.821 15.9923 130.978 15.2509 132.222 14.6475C132.527 14.4915 132.842 14.3523 133.164 14.2305C133.479 14.0983 133.803 13.9836 134.133 13.8871C134.459 13.7793 134.792 13.6892 135.129 13.6173H135.64H135.883H136.098C136.819 13.5046 137.547 13.4309 138.278 13.3966C138.968 13.3556 139.66 13.3556 140.35 13.3966C141.718 13.5161 143.05 13.8654 144.279 14.4267C145.503 15.0175 146.562 15.8567 147.374 16.8795C149.016 18.9615 149.78 21.5127 149.527 24.0662C149.428 25.3433 149.092 26.5958 148.531 27.7699C147.988 28.9381 147.159 29.9782 146.109 30.8114C145.058 31.6185 143.782 32.1448 142.422 32.3321H141.911H139.785H139.273C138.929 32.2968 138.587 32.2394 138.251 32.1604C136.918 31.9206 135.74 31.2167 134.968 30.1982C134.625 29.6747 134.415 29.0878 134.355 28.4807C134.294 27.8737 134.384 27.2619 134.618 26.6907C134.812 26.1127 135.16 25.587 135.629 25.1594C136.098 24.7319 136.675 24.4155 137.309 24.2379C137.963 24.0942 138.646 24.0942 139.3 24.2379C139.983 24.3934 140.636 24.6414 141.238 24.9738C141.34 25.0107 141.453 25.0133 141.556 24.9809C141.66 24.9485 141.747 24.8834 141.802 24.7973C141.858 24.7113 141.877 24.61 141.858 24.5119C141.838 24.4137 141.781 24.3252 141.696 24.2624C141.021 23.8714 140.286 23.5738 139.516 23.3794C138.711 23.2025 137.872 23.2025 137.067 23.3794C136.248 23.5574 135.496 23.9298 134.887 24.4587C134.288 24.9879 133.828 25.6335 133.541 26.3473C133.24 27.0583 133.118 27.8218 133.183 28.5815C133.248 29.3413 133.499 30.0781 133.918 30.7378C134.841 31.9887 136.258 32.8671 137.874 33.1906C138.263 33.2891 138.658 33.3628 139.058 33.4114H139.65H141.992H142.584C144.203 33.2131 145.731 32.6104 146.997 31.6699C148.238 30.7302 149.232 29.5482 149.904 28.2114C150.574 26.896 150.993 25.4857 151.142 24.0417C151.297 22.5963 151.188 21.1375 150.819 19.7248C150.45 18.2859 149.773 16.9274 148.828 15.7267C147.864 14.5149 146.613 13.5172 145.167 12.8079C143.727 12.1157 142.157 11.6748 140.538 11.5079C138.974 11.3388 137.393 11.3388 135.829 11.5079H135.506H135.21H134.618C134.226 11.5863 133.84 11.6846 133.46 11.8022C133.076 11.9048 132.699 12.0276 132.33 12.1702C131.953 12.3064 131.584 12.462 131.227 12.6362C129.811 13.3028 128.491 14.1266 127.297 15.089C126.703 15.5593 126.137 16.0588 125.602 16.5852L124.821 17.3946C124.552 17.6889 124.337 17.9342 124.068 18.2776L126.194 19.1606C126.807 17.2586 127.822 15.4839 129.181 13.9362C129.862 13.2478 130.64 12.6456 131.496 12.1456C132.34 11.6845 133.244 11.3219 134.187 11.0664C135.22 10.8366 136.274 10.697 137.336 10.6494C138.429 10.5828 139.526 10.5828 140.619 10.6494C142.876 10.8318 145.115 11.1597 147.32 11.6305C149.554 12.0966 151.788 12.6362 154.049 13.2249L160.804 15.0399L167.613 16.8305C169.9 17.3946 172.188 17.9588 174.502 18.4738C176.817 18.9889 179.158 19.4059 181.527 19.7738C183.895 20.1417 186.29 20.4116 188.685 20.5587C191.105 20.6948 193.532 20.6948 195.952 20.5587C198.389 20.4437 200.811 20.1401 203.191 19.6512C205.575 19.1662 207.901 18.4678 210.135 17.5663C212.366 16.6701 214.486 15.5601 216.459 14.255C218.395 12.9512 220.196 11.4899 221.842 9.88905C222.649 9.07963 223.457 8.2702 224.183 7.43625C224.91 6.6023 225.583 5.69477 226.256 4.81176C226.311 4.736 226.333 4.64435 226.318 4.55448C226.304 4.46461 226.253 4.38286 226.176 4.32499C226.099 4.26712 226.002 4.23722 225.902 4.24105C225.802 4.24488 225.708 4.28217 225.637 4.34573L225.69 4.66459Z" fill="#C09068"/>
<path d="M225.582 4.56653L224.936 5.20425L224.156 5.96463C223.833 6.25896 223.51 6.65141 223.053 6.9948L221.626 8.2212C221.353 8.46437 221.066 8.69365 220.765 8.90799L219.796 9.61929C218.258 10.7255 216.619 11.7102 214.898 12.5627C210.279 14.8239 205.096 15.9563 199.854 15.8494C196.613 15.7891 193.389 15.3941 190.246 14.6721C186.745 13.867 183.316 12.8174 179.992 11.5325C178.243 10.8702 176.493 10.1344 174.61 9.37402L169.227 6.92122C167.37 6.08727 165.486 5.22879 163.414 4.46842L163.037 4.32125H162.822H162.633L161.88 4.07597L160.346 3.58541L158.812 3.09485L157.197 2.65334C152.819 1.40597 148.308 0.583801 143.741 0.200542C138.867 -0.186649 133.957 0.161419 129.208 1.23072C126.753 1.82299 124.372 2.64496 122.103 3.68352C119.806 4.78646 117.656 6.12809 115.698 7.68159C111.735 10.8708 108.631 14.8491 106.628 19.3078C105.606 21.5483 104.857 23.8843 104.394 26.2738C103.907 28.6998 103.762 31.1727 103.964 33.6322V34.0982V34.5888L104.098 35.4473C104.098 35.7171 104.098 36.0605 104.287 36.3793C104.475 36.6982 104.421 37.0171 104.529 37.3114C104.864 38.558 105.371 39.7612 106.036 40.8925C106.697 42.0833 107.612 43.1422 108.727 44.0075L109.185 44.3264L109.696 44.5962C110.041 44.7769 110.401 44.9327 110.772 45.0622C111.533 45.3061 112.335 45.4224 113.141 45.4056C113.931 45.3616 114.706 45.1871 115.428 44.8905C116.101 44.5857 116.718 44.1886 117.258 43.7132C118.262 42.8206 119.059 41.7528 119.6 40.5736C120.128 39.4561 120.517 38.2877 120.757 37.0906C120.757 36.7963 120.757 36.502 120.919 36.2076C121.08 35.9133 120.919 35.619 120.919 35.3246V34.4416C120.919 34.1228 120.919 33.853 120.919 33.5586C121.152 28.8706 120.232 24.1945 118.227 19.872C115.363 13.4603 110.165 8.14238 103.506 4.81181C101.333 3.78734 99.0517 2.96557 96.6972 2.35901C92.0868 1.23085 87.3045 0.799969 82.5411 1.08355C77.9861 1.34902 73.4752 2.05615 69.0847 3.19296L67.4968 3.58541L65.9358 4.05144L64.3749 4.51748L63.5944 4.73823H63.406H63.1908L62.814 4.86087L61.3068 5.40049L59.8267 5.98915L57.2161 7.24008L51.8336 9.69288C50.0304 10.4287 48.2542 11.14 46.451 11.8023C40.1546 14.3012 33.3988 15.699 26.5356 15.923C21.2777 15.982 16.0903 14.8169 11.4645 12.5381C9.74941 11.6851 8.11152 10.7091 6.56631 9.61929L5.5975 8.90799C5.29759 8.70148 5.01008 8.48041 4.73627 8.24573L3.28296 7.01933C2.82544 6.65141 2.50248 6.28349 2.17952 6.01368L1.39911 5.25331L0.75315 4.64011C0.718469 4.6204 0.677735 4.6115 0.637017 4.61476C0.596299 4.61802 0.557836 4.63325 0.527454 4.65817C0.497072 4.68309 0.476395 4.71635 0.468566 4.75291C0.460737 4.78947 0.466217 4.82736 0.484088 4.86087L1.07617 5.52312L1.80279 6.33254C2.13093 6.71717 2.48124 7.08561 2.85234 7.4363L4.25186 8.76081C4.51523 9.0196 4.79373 9.26523 5.08615 9.49665L6.02811 10.257C7.54978 11.4693 9.18917 12.553 10.9262 13.4947C13.078 14.6653 15.3721 15.6037 17.762 16.2909C20.6277 17.0206 23.5871 17.4 26.5625 17.4192C29.9332 17.422 33.2929 17.068 36.574 16.3645C40.1821 15.5752 43.7182 14.5337 47.1508 13.2494C48.945 12.5954 50.7392 11.8759 52.5333 11.091L57.9159 8.63818C59.7729 7.82875 61.6298 6.9948 63.5675 6.18538L63.9443 6.06274H64.1058H64.2942L65.0478 5.81746L66.5549 5.35143L68.0889 4.88539L69.6498 4.46842C73.9098 3.29648 78.2943 2.54004 82.7295 2.21184C87.3535 1.85978 92.0095 2.20789 96.5088 3.24202C98.801 3.85345 101.019 4.67525 103.129 5.69482C105.263 6.72491 107.258 7.97594 109.077 9.42307C110.911 10.8736 112.547 12.5207 113.948 14.3287C115.372 16.1714 116.564 18.1543 117.501 20.2399C118.456 22.3396 119.16 24.5271 119.6 26.7644C120.062 29.003 120.198 31.2875 120.004 33.5586C119.908 34.6853 119.701 35.8018 119.385 36.8944C119.084 37.9733 118.632 39.0121 118.039 39.9849C117.503 40.9365 116.751 41.7728 115.832 42.4377C115.415 42.7283 114.952 42.9598 114.46 43.1245C113.998 43.2561 113.516 43.3142 113.033 43.2962C112.565 43.2443 112.11 43.1198 111.688 42.9283C111.252 42.712 110.853 42.4393 110.503 42.1189C109.746 41.4162 109.151 40.5822 108.754 39.6661C108.309 38.7049 107.984 37.7011 107.785 36.6737C107.785 36.4039 107.785 36.1586 107.651 35.9133C107.516 35.668 107.651 35.4227 107.651 35.1284V34.2699V33.5096C107.453 29.1616 108.327 24.8286 110.207 20.8286C111.111 18.8422 112.248 16.9507 113.598 15.1871L114.11 14.5494C114.271 14.3287 114.46 14.1079 114.648 13.9117L115.751 12.6853L116.936 11.5325C117.339 11.1646 117.77 10.8212 118.2 10.4532C119.917 9.06241 121.794 7.84526 123.798 6.8231C125.813 5.8183 127.931 4.99673 130.123 4.3703C134.5 3.271 139.047 2.84002 143.579 3.09485C147.959 3.33704 152.299 4.00305 156.524 5.08162L158.058 5.44954L159.619 5.89104L161.153 6.33254L161.907 6.5533H162.095H162.257H162.606C164.517 7.19102 166.401 8.02498 168.285 8.80987L173.829 11.14C175.659 11.8759 177.489 12.5872 179.212 13.2249C182.709 14.4756 186.309 15.4761 189.977 16.2173C193.27 16.8922 196.64 17.2132 200.015 17.1739C202.993 17.1342 205.951 16.7384 208.816 15.9966C211.229 15.3358 213.55 14.4221 215.732 13.274C217.462 12.3318 219.101 11.2568 220.63 10.0608L221.572 9.30043C221.874 9.06969 222.161 8.82404 222.434 8.56459L223.86 7.24008C224.291 6.84764 224.613 6.47971 224.909 6.16085L225.663 5.35143L226.282 4.68917C226.307 4.66501 226.326 4.63665 226.339 4.6057C226.351 4.57475 226.357 4.54183 226.356 4.5088C226.355 4.47578 226.347 4.4433 226.332 4.41322C226.316 4.38315 226.295 4.35606 226.269 4.33351C226.242 4.31097 226.211 4.2934 226.177 4.28181C226.143 4.27022 226.107 4.26485 226.071 4.26599C226.034 4.26712 225.999 4.27476 225.966 4.28845C225.933 4.30214 225.903 4.32162 225.878 4.34578L225.582 4.56653Z" fill="#C09068"/>
</svg>
