<svg width="848" height="20" viewBox="0 0 848 20" fill="none" xmlns="http://www.w3.org/2000/svg">
<path d="M794.285 10.8477L794.467 11.1292C794.467 11.223 794.597 11.3436 794.675 11.4776L794.792 11.7055C794.836 11.792 794.875 11.8815 794.908 11.9735C795.093 12.442 795.189 12.9422 795.194 13.4478C795.193 13.7584 795.163 14.0681 795.103 14.3725C795.028 14.7154 794.915 15.0482 794.766 15.3643C794.427 16.089 793.923 16.7189 793.299 17.2004C792.597 17.7503 791.751 18.068 790.871 18.1118H789.833L789.482 18.018C789.018 17.862 788.58 17.6313 788.184 17.3344C787.307 16.6504 786.64 15.7197 786.263 14.654C786.05 14.077 785.915 13.4728 785.861 12.8581C785.78 12.2175 785.78 11.5687 785.861 10.9281C785.861 10.7673 785.861 10.6065 785.952 10.4456V10.0168L786.042 9.74872V9.52088C786.096 9.37907 786.156 9.24038 786.224 9.10541C786.536 8.49195 786.92 7.9203 787.367 7.40331C787.838 6.85544 788.364 6.36121 788.937 5.92907C789.08 5.82185 789.223 5.70122 789.379 5.60741L790.105 5.19194L790.586 4.91048L790.832 4.77647L791.092 4.65585C791.777 4.31848 792.489 4.04488 793.221 3.83831L793.779 3.70428L794.065 3.63726H794.35L794.934 3.53004H795.518C797.139 3.37106 798.773 3.44775 800.373 3.75788C802.041 4.08003 803.672 4.57855 805.241 5.24554L805.838 5.48679L806.422 5.76823L807.02 6.04968L807.318 6.18372L807.604 6.34454L808.772 6.96105L809.914 7.64456L810.485 7.99302L811.044 8.35489L812.16 9.09202L813.25 9.86935L813.796 10.2714L814.328 10.6869L815.379 11.5178L816.431 12.3622C816.781 12.6436 817.145 12.9117 817.508 13.1931L818.053 13.5952L818.598 13.9839C820.056 15.0292 821.573 15.9825 823.142 16.8386C824.695 17.6834 826.315 18.3918 827.984 18.9561C828.811 19.2253 829.652 19.449 830.502 19.6262L831.138 19.7469L831.774 19.8541C832.202 19.8541 832.631 19.9613 833.072 19.9881C833.513 20.0149 833.929 19.9881 834.37 19.9881C834.811 19.9881 835.227 19.9881 835.668 19.9881C836.51 19.936 837.348 19.8196 838.174 19.6396C839.78 19.2816 841.324 18.6762 842.756 17.8437C843.454 17.4379 844.114 16.9668 844.729 16.4365C845.337 15.9126 845.886 15.3191 846.364 14.6674C847.308 13.3952 847.876 11.8687 848 10.2714V9.98997C848 9.89615 848 9.80233 848 9.70851C848 9.6147 848 9.33325 848 9.14562C847.969 8.7764 847.917 8.40942 847.844 8.04664V7.48374L847.701 7.01465L847.468 6.46515L847.208 5.98267C846.686 5.13989 845.95 4.46082 845.08 4.01903C844.211 3.57724 843.241 3.38959 842.275 3.47644H841.847L841.445 3.57025H841.042L840.653 3.74448C840.178 3.98716 839.765 4.34047 839.446 4.77647C839.156 5.1758 838.949 5.63182 838.836 6.1167C838.733 6.53235 838.706 6.96421 838.758 7.38992V7.68477C838.758 7.77858 838.758 7.8724 838.823 7.95281V8.20746C838.857 8.2944 838.896 8.3794 838.939 8.46211C839.218 8.98243 839.685 9.36787 840.237 9.5343C840.561 9.61771 840.9 9.61771 841.224 9.5343H841.536H841.211C840.903 9.53139 840.601 9.45331 840.328 9.30646C840.092 9.18264 839.885 9.0069 839.721 8.79158C839.557 8.57626 839.441 8.32658 839.381 8.06003V7.8724C839.381 7.79199 839.381 7.72498 839.381 7.64456V7.40331C839.392 7.06825 839.458 6.73756 839.575 6.42495C839.704 6.08412 839.898 5.77399 840.147 5.5136C840.406 5.23776 840.721 5.02292 841.068 4.88369C841.157 4.8467 841.248 4.81536 841.341 4.78986H842.029C842.47 4.79153 842.908 4.86387 843.327 5.00431C844.261 5.3203 845.05 5.97817 845.547 6.85383L845.728 7.20228L845.858 7.53734L845.988 8.00643V8.40848C846.039 8.70098 846.074 8.99634 846.092 9.29304C846.092 9.44047 846.092 9.58789 846.092 9.74872C846.092 9.90954 846.092 9.89616 846.092 9.97657V10.2044C846.099 10.3562 846.099 10.5083 846.092 10.6601L846.014 11.1158C845.942 11.4209 845.851 11.7209 845.741 12.0137C845.511 12.6234 845.206 13.2 844.833 13.7292C844.45 14.2817 844.015 14.7935 843.535 15.2571C843.005 15.7578 842.431 16.2064 841.821 16.5973C839.167 18.2415 836.114 19.0692 833.02 18.9829C831.366 18.9481 829.723 18.7051 828.126 18.2592C826.475 17.7938 824.871 17.1655 823.336 16.3829C821.765 15.5874 820.255 14.6688 818.819 13.6354L818.274 13.2467L817.742 12.8447C817.391 12.5766 817.028 12.3086 816.69 12.0137L814.6 10.2982L814.081 9.86935L813.536 9.45386L812.458 8.62293L811.355 7.8322L810.797 7.44352L810.226 7.06825C808.731 6.06252 807.169 5.16681 805.553 4.38779C803.946 3.60408 802.268 2.98896 800.542 2.55168C798.844 2.12355 797.096 1.94311 795.35 2.01559H794.701L794.052 2.09601H793.403L792.767 2.23002C791.926 2.42893 791.105 2.70709 790.313 3.06097L790.015 3.19498L789.729 3.34241L789.158 3.65068L788.613 3.98574C788.431 4.09296 788.262 4.22696 788.081 4.34758C787.392 4.84363 786.757 5.41424 786.185 6.04968C785.614 6.68259 785.125 7.38999 784.731 8.15386C784.625 8.35798 784.529 8.56828 784.446 8.78375L784.381 8.94459V9.0786L784.29 9.34666V9.64152L784.212 9.94976C784.212 10.1508 784.134 10.3518 784.108 10.5663C783.862 12.1572 784.037 13.7872 784.615 15.2839C785.15 16.6908 786.088 17.8966 787.302 18.7417C787.878 19.1282 788.515 19.4093 789.184 19.5726C789.353 19.5726 789.508 19.653 789.677 19.6664H791.118C791.719 19.5931 792.304 19.4116 792.844 19.1303C793.515 18.7845 794.111 18.3041 794.599 17.7172C795.087 17.1304 795.457 16.449 795.687 15.7128C795.806 15.3164 795.88 14.9071 795.908 14.4931C795.945 14.1368 795.945 13.7773 795.908 13.421C795.808 12.8741 795.61 12.3514 795.324 11.8797L795.155 11.6251L794.986 11.4106L794.714 11.1024L794.285 10.8477Z" fill="#C09068"/>
<path d="M53.7147 10.8477L53.533 11.1292C53.533 11.223 53.4031 11.3436 53.3253 11.4776L53.2084 11.7055C53.1637 11.792 53.1246 11.8815 53.0916 11.9735C52.9075 12.442 52.8106 12.9422 52.806 13.4478C52.8069 13.7584 52.8374 14.0681 52.8969 14.3725C52.9722 14.7154 53.0854 15.0482 53.2344 15.3643C53.5735 16.089 54.0766 16.7189 54.7012 17.2004C55.4027 17.7503 56.2489 18.068 57.1286 18.1118H58.1671L58.5176 18.018C58.9824 17.862 59.4205 17.6313 59.8157 17.3344C60.6925 16.6504 61.3596 15.7197 61.7368 14.654C61.9495 14.077 62.0849 13.4728 62.1392 12.8581C62.22 12.2175 62.22 11.5687 62.1392 10.9281C62.1392 10.7673 62.1392 10.6065 62.0484 10.4456V10.0168L61.9575 9.74872V9.52088C61.9043 9.37907 61.8437 9.24038 61.7758 9.10541C61.4639 8.49195 61.0802 7.9203 60.6335 7.40331C60.1624 6.85544 59.6358 6.36121 59.0628 5.92907C58.92 5.82185 58.7772 5.70122 58.6214 5.60741L57.8945 5.19194L57.4142 4.91048L57.1676 4.77647L56.908 4.65585C56.2233 4.31848 55.5109 4.04488 54.7791 3.83831L54.2209 3.70428L53.9354 3.63726H53.6498L53.0656 3.53004H52.4815C50.8609 3.37106 49.2266 3.44775 47.6267 3.75788C45.9589 4.08003 44.3277 4.57855 42.7589 5.24554L42.1617 5.48679L41.5776 5.76823L40.9805 6.04968L40.6819 6.18372L40.3963 6.34454L39.2281 6.96105L38.0858 7.64456L37.5146 7.99302L36.9564 8.35489L35.8401 9.09202L34.7497 9.86935L34.2045 10.2714L33.6723 10.6869L32.6208 11.5178L31.5694 12.3622C31.2189 12.6436 30.8554 12.9117 30.492 13.1931L29.9468 13.5952L29.4016 13.9839C27.9443 15.0292 26.4271 15.9825 24.8583 16.8386C23.3047 17.6834 21.6851 18.3918 20.0165 18.9561C19.1891 19.2253 18.3485 19.449 17.4982 19.6262L16.8621 19.7469L16.226 19.8541C15.7977 19.8541 15.3693 19.9613 14.928 19.9881C14.4866 20.0149 14.0712 19.9881 13.6299 19.9881C13.1885 19.9881 12.7731 19.9881 12.3318 19.9881C11.4895 19.936 10.6521 19.8196 9.8265 19.6396C8.2205 19.2816 6.67581 18.6762 5.24427 17.8437C4.54631 17.4379 3.88585 16.9668 3.27117 16.4365C2.66287 15.9126 2.11417 15.3191 1.6356 14.6674C0.691888 13.3952 0.123944 11.8687 0 10.2714V9.98997C0 9.89615 0 9.80233 0 9.70851C0 9.6147 0 9.33325 0 9.14562C0.0305808 8.7764 0.0826111 8.40942 0.155783 8.04664V7.48374L0.298573 7.01465L0.532219 6.46515L0.791831 5.98267C1.31419 5.13989 2.05002 4.46082 2.91954 4.01903C3.78906 3.57724 4.75911 3.38959 5.72455 3.47644H6.15292L6.55532 3.57025H6.95773L7.34716 3.74448C7.82163 3.98716 8.23493 4.34047 8.55438 4.77647C8.84379 5.1758 9.05138 5.63182 9.16448 6.1167C9.26731 6.53235 9.29373 6.96421 9.24236 7.38992V7.68477C9.24236 7.77858 9.24236 7.8724 9.17746 7.95281V8.20746C9.14287 8.2944 9.10387 8.3794 9.06063 8.46211C8.78202 8.98243 8.31538 9.36787 7.76255 9.5343C7.43867 9.61771 7.09988 9.61771 6.776 9.5343H6.46447H6.78899C7.09652 9.53139 7.399 9.45331 7.67168 9.30646C7.90812 9.18264 8.11546 9.0069 8.27916 8.79158C8.44286 8.57626 8.55894 8.32658 8.61927 8.06003V7.8724C8.61927 7.79199 8.61927 7.72498 8.61927 7.64456V7.40331C8.60773 7.06825 8.54193 6.73756 8.42457 6.42495C8.29637 6.08412 8.102 5.77399 7.85341 5.5136C7.59355 5.23776 7.27922 5.02292 6.93178 4.88369C6.84285 4.8467 6.75181 4.81536 6.65917 4.78986H5.97119C5.53035 4.79153 5.09244 4.86387 4.67311 5.00431C3.73929 5.3203 2.94974 5.97817 2.45338 6.85383L2.27165 7.20228L2.14185 7.53734L2.01203 8.00643V8.40848C1.96063 8.70098 1.92595 8.99634 1.90818 9.29304C1.90818 9.44047 1.90818 9.58789 1.90818 9.74872C1.90818 9.90954 1.90818 9.89616 1.90818 9.97657V10.2044C1.90051 10.3562 1.90051 10.5083 1.90818 10.6601L1.98607 11.1158C2.05772 11.4209 2.14879 11.7209 2.25867 12.0137C2.48901 12.6234 2.7944 13.2 3.16733 13.7292C3.54987 14.2817 3.98471 14.7935 4.46541 15.2571C4.99503 15.7578 5.56867 16.2064 6.17889 16.5973C8.8327 18.2415 11.8861 19.0692 14.9799 18.9829C16.6336 18.9481 18.277 18.7051 19.8737 18.2592C21.5249 17.7938 23.1289 17.1655 24.6636 16.3829C26.235 15.5874 27.7452 14.6688 29.1809 13.6354L29.7261 13.2467L30.2583 12.8447C30.6088 12.5766 30.9723 12.3086 31.3098 12.0137L33.3997 10.2982L33.9189 9.86935L34.4641 9.45386L35.5415 8.62293L36.6449 7.8322L37.2031 7.44352L37.7742 7.06825C39.269 6.06252 40.8306 5.16681 42.4473 4.38779C44.0538 3.60408 45.7324 2.98896 47.4579 2.55168C49.156 2.12355 50.9037 1.94311 52.6503 2.01559H53.2993L53.9483 2.09601H54.5974L55.2334 2.23002C56.0741 2.42893 56.8954 2.70709 57.6868 3.06097L57.9854 3.19498L58.271 3.34241L58.8421 3.65068L59.3873 3.98574C59.569 4.09296 59.7378 4.22696 59.9195 4.34758C60.6082 4.84363 61.2435 5.41424 61.8147 6.04968C62.3862 6.68259 62.8749 7.38999 63.2686 8.15386C63.3754 8.35798 63.4708 8.56828 63.5542 8.78375L63.6191 8.94459V9.0786L63.7099 9.34666V9.64152L63.7878 9.94976C63.7878 10.1508 63.8657 10.3518 63.8917 10.5663C64.1377 12.1572 63.9628 13.7872 63.3854 15.2839C62.8495 16.6908 61.9125 17.8966 60.6984 18.7417C60.1219 19.1282 59.4851 19.4093 58.8162 19.5726C58.6474 19.5726 58.4916 19.653 58.3229 19.6664H56.882C56.2807 19.5931 55.6964 19.4116 55.1556 19.1303C54.4854 18.7845 53.8888 18.3041 53.4007 17.7172C52.9126 17.1304 52.5427 16.449 52.3128 15.7128C52.1937 15.3164 52.1197 14.9071 52.0921 14.4931C52.055 14.1368 52.055 13.7773 52.0921 13.421C52.192 12.8741 52.3901 12.3514 52.6762 11.8797L52.845 11.6251L53.0137 11.4106L53.2863 11.1024L53.7147 10.8477Z" fill="#C09068"/>
<path d="M845.876 13.2536C845.664 13.5522 845.432 13.8359 845.18 14.1024C844.476 14.8539 843.69 15.5254 842.834 16.1042C841.514 17.0108 840.063 17.7156 838.529 18.1946C837.59 18.4853 836.629 18.7014 835.655 18.8407C835.397 18.8407 835.139 18.9167 834.868 18.9421L834.056 19.0054C833.515 19.0054 832.948 19.0054 832.381 19.0054C831.814 19.0054 831.234 19.0054 830.641 18.9168C830.048 18.8281 829.455 18.8027 828.836 18.6887C828.217 18.5747 827.612 18.4733 826.993 18.3466C826.684 18.3466 826.374 18.1946 826.065 18.1186C825.756 18.0426 825.433 17.9666 825.124 17.8652L824.17 17.5865H823.964L823.719 17.4978L823.242 17.3331C822.585 17.1177 821.953 16.8643 821.335 16.6236C820.046 16.0915 818.757 15.5214 817.468 14.8626L816.991 14.6219L816.514 14.3558L815.56 13.8364C814.929 13.469 814.271 13.1016 813.666 12.7215C812.377 11.9486 811.152 11.1378 809.889 10.3017C807.311 8.64198 804.824 6.86829 802.155 5.23395C800.867 4.42312 799.462 3.63763 798.057 2.94082C796.649 2.23183 795.189 1.63036 793.687 1.14176C792.196 0.652927 790.659 0.309212 789.099 0.115556C787.565 -0.0385188 786.018 -0.0385188 784.484 0.115556L783.363 0.254919C783.17 0.254919 782.989 0.254928 782.809 0.343613L782.255 0.44497L781.713 0.546326H781.43L781.172 0.609657C780.837 0.685673 780.463 0.79971 780.115 0.901064C779.424 1.11244 778.744 1.35767 778.078 1.63586C777.424 1.91624 776.788 2.2335 776.171 2.58606C774.975 3.26972 773.889 4.12359 772.948 5.11991C772.069 6.06869 771.359 7.15666 770.848 8.33792C770.384 9.42597 770.105 10.5816 770.023 11.7586C769.949 12.8155 770.054 13.8771 770.332 14.9006C770.735 16.5978 771.74 18.0982 773.168 19.1321C773.706 19.4938 774.31 19.7518 774.946 19.8923C775.411 19.994 775.89 20.0239 776.364 19.981C776.651 19.958 776.936 19.9113 777.215 19.8416L777.498 19.7656C777.533 19.761 777.565 19.7461 777.59 19.7229C777.616 19.6997 777.633 19.6693 777.64 19.636C777.647 19.6026 777.643 19.5679 777.63 19.5367C777.616 19.5055 777.593 19.4792 777.563 19.4615H777.292C777.026 19.4811 776.759 19.4811 776.493 19.4615C775.51 19.4204 774.57 19.0543 773.825 18.4226C772.699 17.4286 771.949 16.0888 771.698 14.6219C771.343 12.7095 771.614 10.7358 772.472 8.98404C772.956 7.99368 773.6 7.08673 774.379 6.29816C775.225 5.45105 776.188 4.72593 777.241 4.14439C778.372 3.52421 779.57 3.02718 780.811 2.66209C781.133 2.57341 781.43 2.48471 781.778 2.39603L782.035 2.33268H782.28L783.286 2.12998L783.788 2.04129L784.819 1.90193C786.221 1.76202 787.633 1.76202 789.034 1.90193C790.475 2.07327 791.895 2.38303 793.275 2.82678C794.695 3.2799 796.078 3.83898 797.412 4.49913C798.766 5.15793 800.093 5.89274 801.408 6.66556C803.986 8.22388 806.564 9.94691 809.141 11.5939C810.43 12.4174 811.719 13.2156 813.008 13.9631C813.653 14.3432 814.297 14.6979 814.967 15.0653L815.947 15.5847L816.437 15.8381L816.939 16.0788C818.232 16.7192 819.557 17.2943 820.909 17.8019C821.579 18.0426 822.198 18.2833 822.907 18.4733L823.642 18.7014H823.848L824.84 18.9548C825.163 19.0435 825.498 19.1068 825.82 19.1828C826.142 19.2588 826.465 19.3348 826.787 19.3855C827.431 19.4995 828.076 19.6136 828.707 19.6769C829.339 19.7403 829.996 19.8036 830.576 19.8416C831.156 19.8796 831.801 19.8416 832.394 19.8416C832.986 19.8416 833.566 19.8416 834.134 19.7403L834.971 19.6389C835.242 19.6389 835.513 19.5502 835.783 19.4995C836.789 19.317 837.776 19.05 838.735 18.7014C840.292 18.1376 841.753 17.3429 843.066 16.3449C843.903 15.7042 844.663 14.9733 845.334 14.1658C845.574 13.8812 845.794 13.5807 845.992 13.2663C846 13.2511 846.002 13.2333 845.997 13.2167C845.993 13.2 845.981 13.186 845.966 13.1776C845.951 13.1692 845.932 13.1671 845.915 13.1719C845.898 13.1766 845.884 13.1878 845.876 13.2029V13.2536Z" fill="#C09068"/>
<path d="M2.12435 13.2536C2.33581 13.5522 2.56838 13.8359 2.82036 14.1024C3.52357 14.8539 4.31046 15.5254 5.1662 16.1042C6.48551 17.0108 7.93699 17.7156 9.4712 18.1946C10.4101 18.4853 11.3713 18.7014 12.3455 18.8407C12.6033 18.8407 12.8611 18.9167 13.1317 18.9421L13.9438 19.0054C14.4851 19.0054 15.0522 19.0054 15.6194 19.0054C16.1865 19.0054 16.7665 19.0054 17.3594 18.9168C17.9523 18.8281 18.5452 18.8027 19.1639 18.6887C19.7826 18.5747 20.3884 18.4733 21.007 18.3466C21.3164 18.3466 21.6257 18.1946 21.9351 18.1186C22.2444 18.0426 22.5666 17.9666 22.876 17.8652L23.8298 17.5865H24.036L24.2809 17.4978L24.7578 17.3331C25.4151 17.1177 26.0467 16.8643 26.6654 16.6236C27.9543 16.0915 29.2432 15.5214 30.5322 14.8626L31.0091 14.6219L31.486 14.3558L32.4398 13.8364C33.0713 13.469 33.7287 13.1016 34.3345 12.7215C35.6234 11.9486 36.8479 11.1378 38.111 10.3017C40.6889 8.64198 43.1765 6.86829 45.8446 5.23395C47.1335 4.42312 48.5384 3.63763 49.9433 2.94082C51.3507 2.23183 52.8115 1.63036 54.3128 1.14176C55.8044 0.652927 57.3413 0.309212 58.9013 0.115556C60.4354 -0.0385188 61.9815 -0.0385188 63.5157 0.115556L64.637 0.254919C64.8304 0.254919 65.0108 0.254928 65.1913 0.343613L65.7455 0.44497L66.2868 0.546326H66.5704L66.8282 0.609657C67.1633 0.685673 67.5371 0.79971 67.8851 0.901064C68.576 1.11244 69.2557 1.35767 69.9216 1.63586C70.5755 1.91624 71.2125 2.2335 71.8292 2.58606C73.0247 3.26972 74.1105 4.12359 75.0515 5.11991C75.9311 6.06869 76.6414 7.15666 77.1524 8.33792C77.6164 9.42597 77.8951 10.5816 77.9773 11.7586C78.0505 12.8155 77.946 13.8771 77.668 14.9006C77.2652 16.5978 76.2598 18.0982 74.8324 19.1321C74.2938 19.4938 73.6902 19.7518 73.0537 19.8923C72.5886 19.994 72.1103 20.0239 71.6359 19.981C71.3488 19.958 71.0643 19.9113 70.7852 19.8416L70.5016 19.7656C70.4673 19.761 70.4352 19.7461 70.4098 19.7229C70.3845 19.6997 70.3671 19.6693 70.36 19.636C70.3529 19.6026 70.3565 19.5679 70.3704 19.5367C70.3842 19.5055 70.4075 19.4792 70.4372 19.4615H70.7078C70.9738 19.4811 71.241 19.4811 71.507 19.4615C72.49 19.4204 73.43 19.0543 74.175 18.4226C75.3009 17.4286 76.0506 16.0888 76.3018 14.6219C76.6566 12.7095 76.3858 10.7358 75.5284 8.98404C75.0437 7.99368 74.3996 7.08673 73.6208 6.29816C72.7752 5.45105 71.8119 4.72593 70.7594 4.14439C69.6276 3.52421 68.4305 3.02718 67.1891 2.66209C66.8669 2.57341 66.5704 2.48471 66.2224 2.39603L65.9646 2.33268H65.7197L64.7143 2.12998L64.2117 2.04129L63.1805 1.90193C61.7792 1.76202 60.3671 1.76202 58.9658 1.90193C57.5249 2.07327 56.1046 2.38303 54.7252 2.82678C53.3048 3.2799 51.9216 3.83898 50.5878 4.49913C49.2344 5.15793 47.9068 5.89274 46.5921 6.66556C44.0143 8.22388 41.4364 9.94691 38.8586 11.5939C37.5697 12.4174 36.2808 13.2156 34.9918 13.9631C34.3474 14.3432 33.7029 14.6979 33.0327 15.0653L32.0531 15.5847L31.5633 15.8381L31.0606 16.0788C29.768 16.7192 28.443 17.2943 27.0907 17.8019C26.4205 18.0426 25.8018 18.2833 25.0929 18.4733L24.3582 18.7014H24.152L23.1595 18.9548C22.8373 19.0435 22.5022 19.1068 22.18 19.1828C21.8577 19.2588 21.5355 19.3348 21.2133 19.3855C20.5688 19.4995 19.9244 19.6136 19.2928 19.6769C18.6612 19.7403 18.0039 19.8036 17.4238 19.8416C16.8438 19.8796 16.1994 19.8416 15.6065 19.8416C15.0136 19.8416 14.4335 19.8416 13.8664 19.7403L13.0286 19.6389C12.758 19.6389 12.4873 19.5502 12.2166 19.4995C11.2113 19.317 10.2238 19.05 9.26496 18.7014C7.70752 18.1376 6.24702 17.3429 4.93419 16.3449C4.09748 15.7042 3.33656 14.9733 2.66569 14.1658C2.42569 13.8812 2.20605 13.5807 2.00835 13.2663C1.99981 13.2511 1.99772 13.2333 2.00255 13.2167C2.00738 13.2 2.01873 13.186 2.03412 13.1776C2.0495 13.1692 2.06766 13.1671 2.08458 13.1719C2.1015 13.1766 2.1158 13.1878 2.12435 13.2029V13.2536Z" fill="#C09068"/>
</svg>
