<svg width="12" height="47" viewBox="0 0 12 47" fill="none" xmlns="http://www.w3.org/2000/svg">
<path d="M5.99077 18.1087C-0.217152 18.1087 0.61057 8 5.99077 8C11.371 8 13.8541 20.1304 5.99077 23.5C-1.87257 26.8696 0.653468 39 6.03366 39C11.4139 39 12.2416 28.8913 6.03366 28.8913M8 44C8 45.1046 7.10457 46 6 46C4.89543 46 4 45.1046 4 44C4 42.8954 4.89543 42 6 42C7.10457 42 8 42.8954 8 44ZM8 3C8 4.10457 7.10457 5 6 5C4.89543 5 4 4.10457 4 3C4 1.89543 4.89543 1 6 1C7.10457 1 8 1.89543 8 3ZM9 36C9 37.6569 7.65685 39 6 39C4.34315 39 3 37.6569 3 36C3 34.3431 4.34315 33 6 33C7.65685 33 9 34.3431 9 36ZM9 11C9 12.6569 7.65685 14 6 14C4.34315 14 3 12.6569 3 11C3 9.34315 4.34315 8 6 8C7.65685 8 9 9.34315 9 11Z" stroke="#C09068" stroke-width="1.5" stroke-linecap="round"/>
</svg>
