<svg width="633" height="61" viewBox="0 0 633 61" fill="none" xmlns="http://www.w3.org/2000/svg">
<path d="M10.5 5.5C10.5 7 9.8 9.3 7 6.5C4.2 3.7 8.16667 3 10.5 3H622.5C624.833 3 628.8 3.7 626 6.5C623.2 9.3 622.5 7 622.5 5.5M10.5 55.3192C10.5 53.8192 9.8 51.5192 7 54.3192C4.2 57.1192 8.16667 57.8192 10.5 57.8192H622.5C624.833 57.8192 628.8 57.1192 626 54.3192C623.2 51.5192 622.5 53.8192 622.5 55.3192M5.50002 10.463C7.00002 10.463 9.30002 9.76305 6.50002 6.96305C3.70002 4.16305 3.00002 8.12971 3.00002 10.463V50.5C3.00002 52.8333 3.70002 56.8 6.50002 54C9.30002 51.2 7.00002 50.5 5.50002 50.5M627.319 10.463C625.819 10.463 623.519 9.76305 626.319 6.96305C629.119 4.16305 629.819 8.12971 629.819 10.463V50.5C629.819 52.8333 629.119 56.8 626.319 54C623.519 51.2 625.819 50.5 627.319 50.5M5 3C5 4.10457 4.10457 5 3 5C1.89543 5 1 4.10457 1 3C1 1.89543 1.89543 1 3 1C4.10457 1 5 1.89543 5 3ZM5 58C5 59.1046 4.10457 60 3 60C1.89543 60 1 59.1046 1 58C1 56.8954 1.89543 56 3 56C4.10457 56 5 56.8954 5 58ZM632 3C632 4.10457 631.105 5 630 5C628.895 5 628 4.10457 628 3C628 1.89543 628.895 1 630 1C631.105 1 632 1.89543 632 3ZM632 58C632 59.1046 631.105 60 630 60C628.895 60 628 59.1046 628 58C628 56.8954 628.895 56 630 56C631.105 56 632 56.8954 632 58Z" stroke="#C09068" stroke-width="1.58" stroke-linecap="round"/>
</svg>
