<svg width="12" height="24" viewBox="0 0 12 24" fill="none" xmlns="http://www.w3.org/2000/svg">
<path d="M6.18639 2.31555C5.66135 3.23216 4.79026 4.43902 3.36256 6.01409C3.34736 6.03086 3.33141 6.04693 3.31475 6.06225C2.78747 6.54752 2.38792 7.16024 2.15382 7.84471C1.91972 8.52924 1.85886 9.26286 1.9771 9.97783C2.09533 10.6928 2.38867 11.3654 2.82924 11.9338C3.02871 12.1911 3.14949 12.274 3.27709 12.3473C3.30823 12.3651 3.35182 12.388 3.40513 12.416C3.57237 12.5039 3.83541 12.642 4.11095 12.8339C4.45089 13.0706 4.53459 13.538 4.29791 13.8779C4.18062 14.0464 4.00666 14.1519 3.81963 14.1867C4.13691 14.4058 4.42773 14.6396 4.68716 14.8685C5.22599 15.3438 5.67551 15.8378 6.00571 16.2349C6.62002 15.4799 7.36344 14.8383 8.20362 14.3425C8.30003 14.2856 8.39746 14.2308 8.49586 14.178C8.1728 14.2573 7.82611 14.1132 7.65986 13.8098C7.46654 13.457 7.58604 13.0144 7.93068 12.8069C8.01936 12.7535 8.11 12.7026 8.20251 12.6548C8.71431 12.3486 9.78442 11.5956 10.2833 10.4968C10.5256 9.963 10.6348 9.34495 10.4747 8.62668C10.3125 7.89857 9.86041 7.01057 8.87989 5.97342L8.87987 5.97344L8.87492 5.96811C7.50959 4.49556 6.68458 3.26845 6.18639 2.31555ZM8.64128 14.102C8.64131 14.102 8.64133 14.1019 8.64136 14.1019L8.3176 13.4494L8.64128 14.102ZM5.87124 19.1613C4.77361 19.1613 3.86588 20.0666 3.86588 21.2056C3.86588 22.3447 4.77361 23.25 5.87124 23.25C6.96887 23.25 7.87661 22.3447 7.87661 21.2056C7.87661 20.0666 6.96887 19.1613 5.87124 19.1613Z" stroke="#C09068" stroke-width="1.5" stroke-linejoin="round"/>
</svg>
