<svg width="12" height="23" viewBox="0 0 12 23" fill="none" xmlns="http://www.w3.org/2000/svg">
<path d="M5.97743 6.79871C5.97743 6.79871 3.28308 10.7925 0.348145 10.0468C0.757934 10.542 1.3382 10.8659 1.97481 10.955C2.61143 11.044 3.25831 10.8915 3.78825 10.5277C5.32789 9.30081 2.05618 11.49 5.95339 14.016C9.85059 11.6103 6.41045 9.51732 8.11849 10.5277C8.64843 10.8915 9.29531 11.044 9.93192 10.955C10.5685 10.8659 11.1488 10.542 11.5586 10.0468C10.435 9.99722 9.34019 9.6754 8.3681 9.10974C7.39601 8.54408 6.57566 7.75111 5.97743 6.79871Z" fill="#C09068"/>
<path d="M4.17317 10.0707C3.45437 10.3785 2.82445 10.8617 2.34123 11.4764C1.85801 12.0912 1.53697 12.8176 1.40764 13.5887C1.27832 14.3599 1.34482 15.1512 1.60106 15.89C1.85729 16.6288 2.29506 17.2913 2.87412 17.8168C6.43453 21.6899 6.02555 22.8929 6.02555 22.8929C6.02555 22.8929 6.02554 21.0887 9.0567 17.8651C13.5313 13.1981 7.46894 10.1908 7.46894 10.1908L4.17317 10.0707Z" fill="#C09068"/>
<path d="M5.78497 5.95691C7.2066 5.95691 8.35903 4.80432 8.35903 3.38269C8.35903 1.96106 7.2066 0.808472 5.78497 0.808472C4.36335 0.808472 3.21087 1.96106 3.21087 3.38269C3.21087 4.80432 4.36335 5.95691 5.78497 5.95691Z" fill="#C09068"/>
</svg>
