<svg width="276" height="9" viewBox="0 0 276 9" fill="none" xmlns="http://www.w3.org/2000/svg">
<path d="M7.2876 4.66428C7.2876 4.66428 5.47921 3.46255 5.81689 2.15354C5.59264 2.33631 5.44608 2.59518 5.40576 2.87912C5.36544 3.16306 5.43438 3.45136 5.59912 3.68772C6.15467 4.37441 5.16331 2.91534 4.01953 4.65354C5.10885 6.39173 6.05663 4.85755 5.59912 5.61936C5.43438 5.85572 5.36544 6.14401 5.40576 6.42795C5.44608 6.71189 5.59264 6.97077 5.81689 7.15354C5.83932 6.6524 5.98508 6.16425 6.24121 5.73068C6.49735 5.29712 6.85634 4.93109 7.2876 4.66428Z" fill="#C09068"/>
<path d="M5.80615 3.85959C5.66677 3.539 5.4478 3.25822 5.16943 3.0427C4.89107 2.82717 4.56208 2.68387 4.21289 2.62619C3.8637 2.56851 3.50542 2.59785 3.1709 2.71213C2.83638 2.82641 2.53628 3.02174 2.29834 3.28C0.544544 4.86798 0 4.68576 0 4.68576C0 4.68576 0.817174 4.68588 2.27686 6.03781C4.39013 8.03352 5.75146 5.32932 5.75146 5.32932L5.80615 3.85959Z" fill="#C09068"/>
<path d="M7.66895 4.57834C7.66895 5.2124 8.19075 5.72629 8.83447 5.72629C9.4782 5.72629 10 5.2124 10 4.57834C10 3.94428 9.4782 3.43039 8.83447 3.43039C8.19075 3.43039 7.66895 3.94428 7.66895 4.57834Z" fill="#C09068"/>
<path d="M268.712 4.66428C268.712 4.66428 270.521 3.46255 270.183 2.15354C270.407 2.33631 270.554 2.59518 270.594 2.87912C270.635 3.16306 270.566 3.45136 270.401 3.68772C269.845 4.37441 270.837 2.91534 271.98 4.65354C270.891 6.39173 269.943 4.85755 270.401 5.61936C270.566 5.85572 270.635 6.14401 270.594 6.42795C270.554 6.71189 270.407 6.97077 270.183 7.15354C270.161 6.6524 270.015 6.16425 269.759 5.73068C269.503 5.29712 269.144 4.93109 268.712 4.66428Z" fill="#C09068"/>
<path d="M270.194 3.85959C270.333 3.539 270.552 3.25822 270.831 3.0427C271.109 2.82717 271.438 2.68387 271.787 2.62619C272.136 2.56851 272.495 2.59785 272.829 2.71213C273.164 2.82641 273.464 3.02174 273.702 3.28C275.455 4.86798 276 4.68576 276 4.68576C276 4.68576 275.183 4.68588 273.723 6.03781C271.61 8.03352 270.249 5.32932 270.249 5.32932L270.194 3.85959Z" fill="#C09068"/>
<path d="M268.331 4.57834C268.331 5.2124 267.809 5.72629 267.166 5.72629C266.522 5.72629 266 5.2124 266 4.57834C266 3.94428 266.522 3.43039 267.166 3.43039C267.809 3.43039 268.331 3.94428 268.331 4.57834Z" fill="#C09068"/>
<path d="M138.65 8.9968C141.134 8.91223 143.079 6.83023 142.995 4.34641C142.91 1.86258 140.828 -0.0819098 138.344 0.00265706C135.86 0.087224 133.915 2.16922 134 4.65305C134.085 7.13687 136.167 9.08136 138.65 8.9968Z" fill="#C09068"/>
<path d="M129.235 5.15354H11.7646C11.5618 5.15354 11.367 5.10082 11.2236 5.00705C11.0802 4.91328 11 4.78614 11 4.65354C11 4.52093 11.0802 4.39379 11.2236 4.30002C11.367 4.20625 11.5618 4.15354 11.7646 4.15354H129.235C129.438 4.15354 129.632 4.20625 129.776 4.30002C129.919 4.39379 130 4.52093 130 4.65354C130 4.78614 129.919 4.91328 129.776 5.00705C129.632 5.10082 129.438 5.15354 129.235 5.15354Z" fill="#C09068"/>
<path d="M146.765 5.15354H264.235C264.438 5.15354 264.633 5.10082 264.776 5.00705C264.92 4.91328 265 4.78614 265 4.65354C265 4.52093 264.92 4.39379 264.776 4.30002C264.633 4.20625 264.438 4.15354 264.235 4.15354H146.765C146.562 4.15354 146.368 4.20625 146.224 4.30002C146.081 4.39379 146 4.52093 146 4.65354C146 4.78614 146.081 4.91328 146.224 5.00705C146.368 5.10082 146.562 5.15354 146.765 5.15354Z" fill="#C09068"/>
</svg>
