<svg width="128" height="129" viewBox="0 0 128 129" fill="none" xmlns="http://www.w3.org/2000/svg">
<path d="M41.9004 86.8104C42.1057 87.0488 42.2984 87.2981 42.4778 87.5565C43.0126 88.3073 43.4644 89.1135 43.825 89.9618C44.5428 91.694 44.9812 93.5292 45.124 95.3988C45.2303 96.342 45.2303 97.2944 45.124 98.2377C45.124 98.4782 45.124 98.7189 44.9797 98.9354C44.8353 99.1519 44.9797 99.3682 44.8113 99.6088C44.6429 99.8493 44.5226 100.499 44.3783 100.956C42.9956 104.53 40.4545 107.537 37.1612 109.496C35.5543 110.465 33.8221 111.211 32.0131 111.71C30.2297 112.218 28.4005 112.548 26.5522 112.696C24.7182 112.829 22.8771 112.829 21.0432 112.696C20.129 112.696 19.2148 112.552 18.3247 112.432H16.3521V111.493C16.3521 111.349 16.3521 111.252 16.3521 111.132V110.459C16.2318 109.569 16.1837 108.654 16.0875 107.74C15.9547 105.906 15.9547 104.065 16.0875 102.231C16.2354 100.383 16.5658 98.5537 17.0738 96.7704C17.5805 94.96 18.3333 93.2276 19.3111 91.6219C21.2703 88.3287 24.2774 85.7878 27.8512 84.4051C28.2843 84.2367 28.7413 84.0918 29.1984 83.9715L29.872 83.8036L30.5696 83.659C31.5129 83.5528 32.4651 83.5528 33.4084 83.659C35.2779 83.8023 37.1129 84.241 38.8452 84.9584C39.6935 85.319 40.5001 85.7707 41.2509 86.3055L41.9004 86.8104ZM18.2044 110.507H18.6375C19.5035 110.651 20.3696 110.723 21.2356 110.819C22.9795 110.968 24.7311 111.008 26.48 110.939C29.9827 110.86 33.4183 109.962 36.5117 108.317C39.6069 106.6 42.0314 103.887 43.3919 100.619C43.5603 100.21 43.7047 99.8011 43.849 99.368C43.9934 98.935 43.9693 98.9592 44.0415 98.7186C44.1136 98.4781 44.0415 98.3096 44.1858 98.0931C44.3339 97.2274 44.3823 96.3478 44.3301 95.4711C44.2257 93.6806 43.8359 91.9184 43.1754 90.2508C42.8504 89.4044 42.4308 88.5973 41.9245 87.8451L41.4193 87.1952L40.7697 86.6903C40.0176 86.184 39.2105 85.7643 38.3641 85.4393C36.6965 84.7789 34.9342 84.389 33.1437 84.2845C32.267 84.2326 31.3873 84.2812 30.5216 84.4291L29.8961 84.5731L29.2465 84.7655L27.9956 85.2225C24.7276 86.5831 22.015 89.0081 20.2974 92.1034C18.6524 95.1968 17.7543 98.6319 17.6752 102.135C17.6062 103.884 17.6464 105.635 17.7955 107.379C17.7955 108.245 17.9639 109.111 18.1082 109.977L18.2044 110.507ZM35.0442 93.6669C35.4128 94.9342 35.9466 96.1473 36.632 97.2753C37.0947 98.0316 37.6091 98.7549 38.1716 99.4403L38.6046 99.9696L39.0376 100.451L39.4947 100.908L39.9759 101.365C41.3123 102.534 42.763 103.566 44.3061 104.444C45.8535 105.354 47.461 106.158 49.1175 106.85C50.768 107.548 52.4544 108.159 54.1694 108.679C61.05 110.698 68.2725 111.279 75.3875 110.387C77.1437 110.17 78.9239 109.881 80.656 109.496C82.3881 109.111 84.1201 108.679 85.8282 108.149C89.1748 107.129 92.4012 105.75 95.4509 104.035C96.9719 103.17 98.4345 102.205 99.8292 101.148C101.214 100.094 102.517 98.9364 103.726 97.6844C106.136 95.222 108.069 92.3342 109.428 89.1678C110.768 86.0696 111.354 82.6977 111.136 79.329C111.037 77.6588 110.612 76.0241 109.885 74.5174C109.25 73.0979 108.084 71.9836 106.637 71.4139C105.931 71.1829 105.178 71.1335 104.448 71.2699C103.7 71.4152 102.983 71.6921 102.331 72.0878C101.009 72.9099 99.8504 73.9703 98.9151 75.2152C97.1113 77.7679 95.8355 80.6546 95.1622 83.7069C94.4597 86.6974 94.0727 89.7539 94.0075 92.8251C93.9282 95.8098 94.1053 98.7954 94.5367 101.75C95.2978 107.373 97.0575 112.816 99.733 117.82C100.968 120.157 102.596 122.264 104.544 124.051C105.489 124.884 106.541 125.588 107.672 126.143C108.772 126.676 109.949 127.034 111.16 127.202C113.502 127.498 115.879 127.122 118.016 126.119C120.055 125.186 121.868 123.823 123.333 122.126C124.024 121.341 124.606 120.468 125.065 119.528C125.497 118.615 125.82 117.654 126.027 116.665C126.391 114.774 126.391 112.83 126.027 110.939C125.751 109.224 125.12 107.586 124.175 106.128C123.425 104.934 122.342 103.985 121.06 103.4C119.777 102.814 118.351 102.617 116.958 102.832C115.743 102.993 114.569 103.377 113.493 103.963C112.613 104.441 111.855 105.116 111.28 105.936C110.796 106.66 110.476 107.481 110.342 108.342C110.078 109.472 110.232 110.66 110.775 111.685C110.907 111.916 111.098 112.107 111.328 112.239H111.497C111.562 112.257 111.62 112.297 111.661 112.351C111.701 112.406 111.724 112.471 111.724 112.539C111.724 112.607 111.701 112.674 111.661 112.728C111.62 112.782 111.562 112.822 111.497 112.84H111.088C110.675 112.754 110.297 112.544 110.005 112.239C109.512 111.677 109.14 111.019 108.912 110.307C108.685 109.596 108.606 108.845 108.682 108.101C108.753 107.005 109.083 105.942 109.644 104.998C110.333 103.864 111.302 102.928 112.459 102.279C113.749 101.568 115.16 101.103 116.621 100.908C117.42 100.811 118.228 100.811 119.027 100.908C120.817 101.112 122.498 101.869 123.838 103.073C124.555 103.712 125.179 104.45 125.69 105.263C126.736 106.969 127.4 108.881 127.639 110.868C127.924 112.98 127.801 115.128 127.278 117.194C127.002 118.288 126.598 119.346 126.075 120.346C125.533 121.373 124.862 122.327 124.079 123.184C122.55 124.918 120.694 126.333 118.618 127.347C117.464 127.854 116.252 128.218 115.009 128.429C112.393 128.882 109.701 128.503 107.311 127.347C106.095 126.752 104.963 126 103.943 125.109C101.875 123.254 100.142 121.056 98.8189 118.614C95.9932 113.5 94.1185 107.917 93.2858 102.135C92.8312 99.1016 92.638 96.0352 92.7084 92.9691C92.773 89.7968 93.1926 86.6418 93.9594 83.5629C94.3552 81.9836 94.8781 80.4392 95.5231 78.9442C96.176 77.406 97.025 75.9581 98.049 74.6376C98.58 73.9707 99.1675 73.3512 99.8052 72.7855C100.446 72.2057 101.147 71.6975 101.898 71.2699C102.642 70.8298 103.456 70.5202 104.304 70.3553C105.214 70.1975 106.149 70.2723 107.022 70.5721C107.882 70.887 108.656 71.3973 109.284 72.0633C109.902 72.7081 110.413 73.4473 110.799 74.2528C111.535 75.8413 111.96 77.5561 112.05 79.3046C112.154 81.0439 112.041 82.7894 111.713 84.5008C111.713 84.9339 111.545 85.3432 111.449 85.7762C111.352 86.2093 111.232 86.5942 111.112 87.0272C110.871 87.8692 110.535 88.6867 110.222 89.4325C108.824 92.6793 106.861 95.6528 104.424 98.2137C103.2 99.5125 101.881 100.719 100.479 101.822C99.0719 102.937 97.5932 103.957 96.0523 104.877C94.4941 105.811 92.8881 106.662 91.2409 107.428C89.6051 108.173 87.9211 108.847 86.189 109.448C84.4569 110.05 82.7248 110.555 80.9446 111.012C79.1644 111.469 77.3842 111.83 75.5559 112.142C71.8898 112.725 68.1716 112.911 64.4657 112.696C60.7226 112.487 57.0168 111.841 53.4236 110.771C49.7889 109.729 46.3276 108.156 43.1514 106.104C41.5584 105.063 40.0824 103.854 38.749 102.496L38.2678 101.967L37.7867 101.413L37.3296 100.836L36.9206 100.283C36.3769 99.5153 35.8866 98.7114 35.4532 97.8768C34.8932 96.7962 34.4497 95.6591 34.1301 94.4847C32.9557 94.1651 31.8187 93.7215 30.7381 93.1615C29.9034 92.7281 29.0996 92.238 28.3324 91.6942L27.7791 91.285L27.2017 90.828L26.6484 90.347L26.1191 89.8661C24.7615 88.5326 23.5517 87.0562 22.5106 85.4632C20.4588 82.287 18.8863 78.826 17.8436 75.1913C16.7741 71.5981 16.1282 67.8919 15.919 64.1488C15.704 60.4429 15.8895 56.7245 16.4723 53.0585C16.7851 51.2301 17.1219 49.45 17.603 47.6698C18.0842 45.8896 18.5653 44.1577 19.1667 42.4256C19.7682 40.6936 20.4417 39.0338 21.1875 37.3739C21.9531 35.7268 22.8043 34.1206 23.7375 32.5624C24.6577 31.0214 25.6783 29.5425 26.7927 28.1356C27.8964 26.7331 29.1025 25.4144 30.4013 24.1903C32.9618 21.7531 35.9349 19.7899 39.182 18.3924C39.9999 18.0797 40.7938 17.7434 41.5877 17.5028L42.8386 17.1659L44.1136 16.9012C45.8251 16.5738 47.5706 16.4606 49.3099 16.5643C51.0584 16.6544 52.7733 17.0791 54.3618 17.8153C55.1673 18.2012 55.9063 18.7128 56.551 19.3309C57.217 19.9587 57.7277 20.7328 58.0426 21.5922C58.3424 22.4656 58.4169 23.4005 58.2591 24.3104C58.0942 25.1587 57.785 25.973 57.3449 26.7167C56.9173 27.4673 56.4091 28.1689 55.8293 28.8094C55.2637 29.4472 54.6439 30.0345 53.9769 30.5653C52.6564 31.5893 51.209 32.4387 49.6708 33.0917C48.1758 33.7365 46.6311 34.2592 45.0519 34.6551C41.973 35.4219 38.8179 35.8415 35.6456 35.9061C32.5795 35.9764 29.513 35.7834 26.48 35.329C20.6976 34.4962 15.1143 32.6214 10.0011 29.7958C7.55844 28.4724 5.36133 26.7392 3.50572 24.6717C2.61537 23.6521 1.86316 22.5196 1.26845 21.3036C0.111925 18.9137 -0.266656 16.2215 0.185903 13.6053C0.3972 12.3626 0.760783 11.1508 1.26845 9.99694C2.25076 7.79739 3.67568 5.82366 5.45435 4.19909C6.31187 3.41556 7.26578 2.74423 8.29304 2.20202C9.2929 1.67928 10.3506 1.27578 11.4445 0.999379C13.5111 0.476263 15.6588 0.353786 17.7714 0.638539C19.7583 0.877162 21.6702 1.54195 23.3767 2.58727C24.1896 3.09908 24.9266 3.72231 25.5659 4.43932C26.7704 5.77889 27.5272 7.46089 27.731 9.25084C27.8284 10.0498 27.8284 10.8582 27.731 11.6571C27.5363 13.1175 27.0713 14.5286 26.3597 15.8187C25.7111 16.9754 24.7747 17.9448 23.6413 18.6332C22.6974 19.1945 21.6339 19.5244 20.5379 19.5956C19.7943 19.6713 19.0431 19.5928 18.3312 19.3651C17.6192 19.1374 16.9619 18.7655 16.4002 18.2723C16.0951 17.9804 15.8854 17.6031 15.7988 17.1898C15.7844 17.078 15.7844 16.9647 15.7988 16.8529C15.8174 16.7875 15.8569 16.7302 15.9112 16.6893C15.9654 16.6484 16.0315 16.6263 16.0995 16.6263C16.1674 16.6263 16.2336 16.6484 16.2878 16.6893C16.3421 16.7302 16.3815 16.7875 16.4002 16.8529C16.3944 16.9089 16.3944 16.9654 16.4002 17.0214C16.5321 17.2517 16.7231 17.4427 16.9535 17.5746C17.9794 18.1175 19.167 18.2714 20.2974 18.0077C21.158 17.8735 21.9789 17.5531 22.7031 17.0692C23.5225 16.4934 24.1976 15.7363 24.6757 14.8563C25.2625 13.7809 25.6458 12.6064 25.8064 11.392C26.0221 9.99855 25.8249 8.5725 25.2392 7.28991C24.6535 6.00732 23.7049 4.92466 22.5106 4.17516C21.0532 3.22969 19.4145 2.59862 17.6993 2.32262C15.8081 1.95826 13.8648 1.95826 11.9737 2.32262C10.9851 2.53013 10.0242 2.85323 9.11096 3.28502C8.17136 3.74362 7.29752 4.32602 6.51282 5.01696C4.74058 6.56877 3.34245 8.50143 2.42317 10.6703C1.42026 12.807 1.04485 15.1849 1.34062 17.5267C1.50929 18.7376 1.86645 19.9146 2.39913 21.015C2.95438 22.146 3.65824 23.1978 4.49206 24.1424C6.2783 26.091 8.38581 27.7186 10.7228 28.954C15.7345 31.6322 21.1851 33.392 26.8168 34.1503C29.7712 34.5817 32.7572 34.7583 35.7419 34.6791C38.8131 34.6138 41.8689 34.2268 44.8594 33.5243C47.9117 32.851 50.7988 31.5751 53.3514 29.7714C54.5959 28.8356 55.6563 27.6774 56.4788 26.3553C56.8745 25.7036 57.1514 24.9866 57.2968 24.2381C57.4331 23.5079 57.3835 22.7552 57.1524 22.0492C56.5828 20.6023 55.4687 19.4364 54.0491 18.8016C52.5425 18.0742 50.9079 17.6491 49.2378 17.5506C45.869 17.3328 42.4967 17.9182 39.3985 19.2587C36.2322 20.6171 33.3448 22.5504 30.8824 24.9603C29.6305 26.1697 28.4725 27.4723 27.4182 28.8573C26.3613 30.2521 25.3969 31.7147 24.5314 33.2357C22.8167 36.2854 21.4374 39.5116 20.4177 42.8583C19.8884 44.5423 19.4554 46.2745 19.0705 48.0306C18.6856 49.7868 18.3969 51.543 18.1804 53.2992C17.2878 60.4142 17.8692 67.6368 19.8884 74.5174C20.4084 76.2325 21.0187 77.9186 21.7167 79.5692C22.4086 81.2257 23.2124 82.8333 24.1224 84.3807C25.001 85.9238 26.0326 87.3744 27.2017 88.7108L27.6588 89.1923L28.1159 89.6493L28.597 90.0824L29.1263 90.5155C29.8116 91.078 30.535 91.5923 31.2913 92.055C32.4442 92.7817 33.6906 93.3483 34.9961 93.7391L35.0442 93.6669Z" fill="#C09068"/>
<path d="M53.3034 109.304H54.1213C54.9213 109.382 55.727 109.382 56.527 109.304C57.7282 109.228 58.9199 109.043 60.0874 108.75C61.6159 108.372 63.0997 107.831 64.5138 107.139C66.194 106.327 67.756 105.292 69.1568 104.059C70.7239 102.699 71.9793 101.017 72.8375 99.1278C73.7114 97.0854 74.1301 94.8767 74.0644 92.6561C74.0438 90.3613 73.4395 88.1099 72.3082 86.1132C71.728 85.1379 70.969 84.2806 70.071 83.5868C69.1828 82.9022 68.1569 82.4184 67.0639 82.1678C64.9086 81.7655 62.6826 82.0078 60.6647 82.8651C59.7137 83.219 58.8337 83.7408 58.0666 84.4051C57.34 85.0578 56.7933 85.8858 56.4788 86.8104C56.1796 87.6417 56.0727 88.53 56.1661 89.4086C56.2516 90.246 56.488 91.0611 56.8638 91.8143C57.5 93.1201 58.56 94.172 59.8709 94.7977C60.8658 95.2521 61.9858 95.3538 63.0463 95.0863C63.7637 94.9011 64.4463 94.6005 65.0671 94.1962L65.5723 93.8592L65.7407 93.7391C65.809 93.697 65.8901 93.6808 65.9694 93.6932C66.0487 93.7056 66.1209 93.7456 66.1731 93.8065C66.2254 93.8674 66.2541 93.945 66.2542 94.0253C66.2543 94.1055 66.2258 94.1829 66.1737 94.244L66.0294 94.4125L65.5483 94.8695C64.9114 95.4427 64.1674 95.8844 63.3591 96.1688C62.7642 96.3788 62.1376 96.4844 61.5067 96.4813C60.7541 96.4737 60.0103 96.3185 59.3176 96.0243C58.5484 95.6897 57.8471 95.2165 57.2487 94.6288C56.5987 93.9856 56.062 93.2377 55.6609 92.4159C55.2163 91.5209 54.9469 90.5492 54.867 89.5531C54.763 88.4636 54.928 87.3652 55.3474 86.3544C55.7669 85.3435 56.428 84.451 57.2727 83.7552C58.1615 83.0422 59.1722 82.4961 60.2558 82.1434C61.3384 81.7731 62.4607 81.5309 63.5997 81.4217C64.777 81.3118 65.9644 81.4013 67.1119 81.6864C68.2767 81.9889 69.3661 82.5296 70.3115 83.2743C71.2762 84.0221 72.0922 84.944 72.7172 85.9925C73.8953 88.0697 74.5245 90.4128 74.5455 92.8007C74.6141 95.1041 74.179 97.3948 73.2705 99.5126C72.3802 101.471 71.0943 103.224 69.4936 104.661C68.045 105.951 66.4261 107.036 64.6822 107.885C63.235 108.609 61.7201 109.189 60.1595 109.617C58.9472 109.946 57.707 110.164 56.4548 110.266C55.6544 110.335 54.8495 110.335 54.0491 110.266H53.2071C53.1061 110.232 53.02 110.164 52.9637 110.074C52.9073 109.984 52.8843 109.877 52.8986 109.771C52.9128 109.666 52.9635 109.568 53.0418 109.496C53.1201 109.424 53.2211 109.381 53.3274 109.376L53.3034 109.304Z" fill="#C09068"/>
<path d="M19.5035 75.4315V75.2152C19.5035 75.0709 19.5035 74.8542 19.5035 74.6136C19.425 73.8137 19.425 73.0079 19.5035 72.2079C19.5788 71.0067 19.764 69.8148 20.0568 68.6473C20.4352 67.1188 20.9755 65.6351 21.6686 64.2211C22.4794 62.5408 23.5154 60.9787 24.7479 59.578C26.1081 58.0109 27.7902 56.7555 29.6795 55.8973C31.722 55.0234 33.9302 54.6051 36.1508 54.6708C38.4457 54.6913 40.6975 55.2954 42.6943 56.4266C43.6695 57.0069 44.5265 57.7659 45.2202 58.6639C45.9048 59.5521 46.389 60.5777 46.6396 61.6708C47.0419 63.826 46.7992 66.0523 45.9419 68.0702C45.5885 69.0215 45.067 69.9015 44.4023 70.6683C43.7496 71.3949 42.9212 71.9417 41.9966 72.2562C41.1653 72.5555 40.277 72.6621 39.3985 72.5687C38.5611 72.4832 37.746 72.2467 36.9928 71.871C35.6871 71.2347 34.6355 70.175 34.0098 68.8641C33.5554 67.8692 33.4536 66.7489 33.7211 65.6883C33.9083 64.9792 34.2089 64.305 34.6112 63.6918L34.948 63.1864L35.0683 63.0184C35.1104 62.9501 35.1267 62.8687 35.1143 62.7894C35.1019 62.7101 35.0616 62.638 35.0007 62.5858C34.9398 62.5336 34.8622 62.5049 34.782 62.5047C34.7018 62.5046 34.6241 62.5333 34.563 62.5853L34.3947 62.7294L33.9376 63.2108C33.3644 63.8477 32.9229 64.5915 32.6385 65.3998C32.4285 65.9947 32.3227 66.6215 32.3258 67.2523C32.3334 68.0049 32.4887 68.7485 32.7829 69.4413C33.1175 70.2105 33.5904 70.9121 34.1781 71.5106C34.8213 72.1605 35.5696 72.697 36.3914 73.098C37.2863 73.5426 38.258 73.8121 39.2541 73.892C40.3436 73.996 41.4419 73.8309 42.4528 73.4115C43.4636 72.9921 44.356 72.331 45.0518 71.4862C45.7649 70.5974 46.311 69.5869 46.6636 68.5033C47.0339 67.4207 47.2762 66.298 47.3853 65.159C47.4953 63.9817 47.4058 62.7944 47.1207 61.6468C46.8182 60.4821 46.2776 59.3925 45.533 58.4471C44.7851 57.4824 43.8631 56.6668 42.8146 56.0419C40.7375 54.8637 38.3943 54.2347 36.0065 54.2137C33.703 54.1451 31.4124 54.5797 29.2946 55.4881C27.3363 56.3784 25.5835 57.6648 24.1464 59.2655C22.8566 60.714 21.7719 62.3331 20.9228 64.077C20.1989 65.5243 19.6187 67.0389 19.1907 68.5995C18.8611 69.8119 18.6437 71.0523 18.5412 72.3046C18.4727 73.105 18.4727 73.9094 18.5412 74.7098C18.5412 74.9985 18.5412 75.215 18.5412 75.3353V75.6239C18.5748 75.7249 18.6427 75.8112 18.7331 75.8675C18.8234 75.9239 18.9306 75.9467 19.0361 75.9325C19.1416 75.9182 19.2388 75.8677 19.311 75.7894C19.3831 75.7111 19.4257 75.6101 19.4313 75.5038L19.5035 75.4315Z" fill="#C09068"/>
<path d="M11.4926 117.243L12.4068 117.603C14.5994 118.424 16.862 119.044 19.1667 119.456C20.312 119.654 21.4694 119.775 22.6309 119.817H26.1191C28.437 119.647 30.7244 119.186 32.9272 118.445C35.0973 117.718 37.1126 116.593 38.8693 115.126C39.7632 114.422 40.5707 113.614 41.2749 112.72C41.6043 112.268 41.9017 111.794 42.165 111.301C42.2853 111.06 42.4296 110.795 42.5259 110.555C42.6282 110.319 42.7166 110.078 42.7905 109.833L43.1754 108.654L43.9933 109.544C44.3542 109.929 44.7872 110.338 45.1962 110.699C45.6051 111.06 46.0622 111.445 46.5193 111.806C48.3527 113.217 50.3279 114.435 52.4132 115.438C53.4559 115.942 54.5238 116.392 55.6128 116.786C56.6953 117.194 57.802 117.532 58.9326 117.82C59.4859 117.965 60.0633 118.109 60.6166 118.229L61.4586 118.397L62.3246 118.542C63.4794 118.734 64.7303 118.854 65.7888 118.951C66.3662 118.951 66.9435 118.951 67.5209 118.951H70.9851L72.7172 118.83C73.2945 118.83 73.8719 118.686 74.4733 118.638H75.3394L77.9375 118.205L79.6696 117.868L81.3776 117.507L83.0857 117.099L84.7937 116.665L86.4777 116.184L88.1376 115.655L89.7975 115.078C90.8801 114.669 91.9867 114.236 93.0211 113.73C94.0789 113.253 95.1001 112.698 96.0764 112.07C96.1421 112.047 96.2139 112.046 96.2802 112.068C96.3466 112.09 96.4037 112.133 96.4425 112.191C96.4812 112.249 96.4994 112.319 96.4941 112.389C96.4888 112.458 96.4603 112.524 96.4132 112.576C95.4166 113.246 94.3712 113.841 93.2858 114.356C92.2273 114.885 91.1207 115.342 90.014 115.775L88.3541 116.4L86.6701 116.978L84.9621 117.483L83.2541 117.94L81.522 118.373L79.7899 118.758L78.0578 119.119L76.3017 119.432L75.4356 119.576H74.5455C73.9681 119.576 73.3908 119.745 72.7893 119.793L71.0092 119.961H67.4487C66.8473 119.961 66.2459 119.961 65.6685 119.961C64.4898 119.961 63.2628 119.769 62.1081 119.576L61.218 119.432L60.3279 119.264C59.7506 119.264 59.1491 118.999 58.5718 118.879C57.417 118.59 56.1661 118.253 55.1317 117.844C54.0027 117.452 52.8946 117.002 51.8118 116.497C49.6289 115.488 47.5569 114.254 45.6292 112.816C45.1481 112.455 44.667 112.07 44.2099 111.685C43.7396 111.283 43.2899 110.858 42.8627 110.411L44.0896 110.122C43.9901 110.442 43.8696 110.755 43.7287 111.06C43.6084 111.349 43.4641 111.638 43.2957 111.902C42.9953 112.446 42.6577 112.968 42.2853 113.466C41.5433 114.46 40.6875 115.364 39.7353 116.16C37.8312 117.714 35.6524 118.897 33.3121 119.648C30.9736 120.403 28.5483 120.855 26.0951 120.995H22.4865C21.2753 120.933 20.0697 120.788 18.878 120.562C16.5209 120.107 14.21 119.439 11.9737 118.566L10.6506 118.036L10.1213 116.713C9.24847 114.477 8.58019 112.166 8.12465 109.809C7.89889 108.617 7.7542 107.412 7.6916 106.201C7.6916 105.888 7.6916 105.599 7.6916 105.286C7.6916 104.973 7.6916 104.997 7.6916 104.829V104.372C7.6916 103.771 7.6916 103.169 7.6916 102.568C7.83168 100.115 8.2844 97.689 9.03878 95.3505C9.78968 93.0101 10.9729 90.8317 12.527 88.9276C13.3226 87.9754 14.2269 87.1198 15.2214 86.3778C15.7187 86.0053 16.2412 85.6674 16.7851 85.3671L17.6271 84.9344C17.9315 84.7936 18.2449 84.6726 18.5653 84.5731L18.2766 85.8002C17.8293 85.3727 17.4038 84.9231 17.0016 84.453C16.6167 83.9959 16.2318 83.5147 15.8709 83.0336C14.433 81.1058 13.1995 79.0338 12.1902 76.8509C11.6845 75.7682 11.2349 74.6601 10.843 73.5311C10.4341 72.4004 10.0973 71.2454 9.80862 70.0907C9.68833 69.5133 9.51993 68.9363 9.4237 68.3348L9.25528 67.4447L9.11095 66.5546C8.91849 65.3758 8.82229 64.1487 8.72607 62.994C8.72607 62.3926 8.72607 61.7911 8.72607 61.2137C8.72607 60.6364 8.72607 60.0108 8.72607 59.4335C8.72607 58.8561 8.72607 58.2546 8.72607 57.6532C8.72607 57.0518 8.72605 56.4508 8.89444 55.8734C9.06284 55.296 9.03878 54.6944 9.11095 54.1171V53.6844C9.11095 53.516 9.11095 53.3958 9.11095 53.2274L9.25528 52.3612C9.25528 51.7838 9.44775 51.1822 9.56803 50.6048L9.92891 48.8729C9.92891 48.2955 10.1935 47.7179 10.3138 47.1405C10.4341 46.5631 10.5784 45.9859 10.7468 45.4086C10.9152 44.8312 11.0355 44.2539 11.2039 43.7006L11.7091 41.9925L12.2865 40.3085L12.9119 38.6483C13.345 37.5417 13.802 36.4594 14.3313 35.3768C14.8458 34.2914 15.4408 33.2459 16.1115 32.2494C16.1631 32.2022 16.229 32.1736 16.2986 32.1683C16.3683 32.163 16.4378 32.1813 16.4959 32.2201C16.554 32.2588 16.5975 32.3158 16.6194 32.3822C16.6413 32.4485 16.6404 32.5205 16.6167 32.5863C15.9892 33.5626 15.4344 34.5837 14.9568 35.6415C14.4516 36.7 14.0186 37.7825 13.6096 38.8651L13.0322 40.5253L12.503 42.1849L12.0218 43.869C11.8534 44.4223 11.7331 44.9996 11.5888 45.577C11.4445 46.1544 11.3242 46.7077 11.1798 47.285C11.0355 47.8624 10.9152 48.4157 10.819 48.993L10.4822 50.7255C10.4822 51.3028 10.2897 51.88 10.1935 52.4574L9.92891 54.1893C9.92891 54.7667 9.7605 55.3678 9.73645 55.9452C9.71239 56.5225 9.73644 57.1002 9.61616 57.6776C9.49587 58.255 9.61616 58.8327 9.61616 59.41C9.61616 59.9874 9.61616 60.5641 9.61616 61.1415C9.61616 61.7188 9.61616 62.2965 9.61616 62.8739C9.61616 64.0286 9.83266 65.2793 10.0251 66.3378L10.1695 67.204L10.3379 68.0463C10.3379 68.6236 10.6025 69.177 10.7468 69.7303C11.0596 70.837 11.3723 71.9671 11.7813 73.0497C12.1748 74.1387 12.6244 75.2073 13.1284 76.2499C14.1316 78.3352 15.3491 80.3101 16.761 82.1434C17.1219 82.6005 17.4827 83.0336 17.8676 83.4667C18.2525 83.8997 18.6375 84.333 19.0224 84.6698L19.9125 85.4872L18.7337 85.8724L18.012 86.1371L17.2662 86.4979C16.773 86.7613 16.2987 87.0587 15.8469 87.3881C14.9537 88.0931 14.1463 88.9006 13.4412 89.7938C12.0493 91.5983 11.0051 93.6456 10.3619 95.8319C9.62093 98.0347 9.16021 100.322 8.99066 102.64C8.99066 103.217 8.99066 103.795 8.99066 104.396V104.829C8.99066 104.949 8.99066 105.118 8.99066 105.263C8.99066 105.407 8.99066 105.84 8.99066 106.128C9.03259 107.29 9.15317 108.447 9.35153 109.593C9.76315 111.897 10.3832 114.16 11.2039 116.352L11.4926 117.243Z" fill="#C09068"/>
<path d="M17.579 111.156C18.1645 111.307 18.7591 111.419 19.3592 111.493H20.2252C20.2858 111.493 20.344 111.517 20.3868 111.56C20.4297 111.603 20.4538 111.661 20.4538 111.722C20.4538 111.782 20.4297 111.84 20.3868 111.883C20.344 111.926 20.2858 111.95 20.2252 111.95H19.3351C18.6053 111.885 17.8815 111.764 17.17 111.589C16.9954 110.878 16.8747 110.154 16.8091 109.424C16.8091 109.136 16.8091 108.919 16.8091 108.774V108.558C16.8091 108.497 16.8332 108.439 16.8761 108.396C16.9189 108.353 16.9771 108.329 17.0377 108.329C17.0983 108.329 17.1564 108.353 17.1993 108.396C17.2421 108.439 17.2662 108.497 17.2662 108.558V108.774C17.2662 108.919 17.2662 109.136 17.2662 109.424C17.3341 110.008 17.4385 110.586 17.579 111.156Z" fill="#C09068"/>
<path d="M24.3149 104.493C25.285 104.314 26.2246 103.998 27.1055 103.554C28.0531 103.065 28.8761 102.366 29.5112 101.51C29.7505 101.211 29.9449 100.878 30.0885 100.523C29.9713 100.891 29.8011 101.239 29.5833 101.557C28.9753 102.488 28.1496 103.256 27.1776 103.795C26.0923 104.402 24.9135 104.825 23.6894 105.046C23.91 103.822 24.3327 102.643 24.9403 101.557C25.4793 100.586 26.2473 99.7597 27.1776 99.1517C27.4959 98.9337 27.8444 98.7633 28.2121 98.6464C27.857 98.7899 27.5247 98.9847 27.2257 99.224C26.3692 99.8591 25.6697 100.682 25.1809 101.63C24.7554 102.537 24.4637 103.501 24.3149 104.493Z" fill="#C09068"/>
<path d="M87.6565 101.485L87.2475 101.678L86.0928 102.207C85.5876 102.423 84.9862 102.688 84.2645 102.953C83.5428 103.218 82.7489 103.506 81.8588 103.795C80.9687 104.083 79.9823 104.372 78.9238 104.613C77.8653 104.853 76.7587 105.118 75.604 105.31L73.8238 105.575C73.2224 105.575 72.5969 105.719 71.9955 105.791L70.119 105.912C69.4936 105.912 68.8681 105.912 68.2186 105.912H64.4416C63.222 105.802 62.0093 105.626 60.8091 105.383C60.2317 105.383 59.6543 105.118 59.101 104.998C58.5477 104.878 58.0185 104.685 57.4892 104.54C56.5145 104.236 55.5586 103.875 54.6264 103.458C53.7363 103.097 52.9906 102.664 52.2208 102.327L50.5368 101.293L49.1415 100.283L50.6811 101.052L52.4613 101.846L53.592 102.279L54.843 102.712C55.276 102.857 55.7331 103.025 56.2142 103.145C56.6953 103.266 57.1765 103.434 57.7057 103.554C58.7402 103.795 59.8227 104.012 60.9534 104.204C62.0841 104.396 63.3591 104.493 64.4657 104.589H68.0983C68.6997 104.589 69.3252 104.589 69.9266 104.589H71.7549C72.9578 104.589 74.1606 104.396 75.2913 104.228L78.5871 103.723L81.522 103.145C83.3262 102.76 84.8418 102.375 85.9003 102.087L87.1272 101.75L87.6565 101.485Z" fill="#C09068"/>
<path d="M27.2017 41.0785L27.0092 41.4872C26.889 41.7518 26.6965 42.1368 26.48 42.642C26.2635 43.1472 25.9989 43.7489 25.7342 44.4706C25.4696 45.1923 25.1809 45.9857 24.8922 46.8758C24.6035 47.7659 24.3149 48.7524 24.0743 49.8109C23.8337 50.8694 23.5691 51.976 23.3767 53.1307C23.3767 53.7081 23.1842 54.3096 23.112 54.911C23.0399 55.5124 22.9677 56.1377 22.8955 56.7391C22.8234 57.3405 22.8955 57.9906 22.7753 58.6161C22.655 59.2416 22.7753 59.8669 22.7753 60.5165C22.7753 61.166 22.7753 61.7914 22.7753 62.4169V64.2933C22.8846 65.513 23.0613 66.7255 23.3045 67.9257C23.3045 68.503 23.5691 69.0804 23.6894 69.6337C23.8097 70.187 24.0021 70.7167 24.1465 71.246C24.4506 72.2207 24.8121 73.1762 25.229 74.1083C25.5899 74.9984 26.0229 75.7442 26.3597 76.514C26.6965 77.2839 27.1055 77.741 27.3942 78.1981L28.4045 79.5936L27.6347 78.0536L26.8409 76.2738L26.4078 75.1429C26.2394 74.758 26.1192 74.325 25.9748 73.892C25.8305 73.4589 25.6621 73.002 25.5418 72.5209C25.4215 72.0397 25.2531 71.5584 25.1328 71.0292C24.8922 69.9947 24.6757 68.9123 24.4833 67.7816C24.2908 66.6509 24.1946 65.376 24.0984 64.2694V62.4408C24.0984 61.8394 24.0984 61.2141 24.0984 60.6127C24.0984 60.0112 24.0984 59.3855 24.0984 58.784C24.0984 58.1826 24.0984 57.5573 24.0984 56.9559C24.0984 55.7531 24.2908 54.5505 24.4592 53.4198C24.6276 52.2891 24.772 51.1583 24.9644 50.1239C25.1569 49.0894 25.3493 48.103 25.5418 47.1888C25.9267 45.3846 26.3116 43.8689 26.6003 42.8104L26.9371 41.5839L27.2017 41.0785Z" fill="#C09068"/>
<path d="M64.2116 95.5028C65.6369 95.3369 66.6579 94.0472 66.4919 92.6219C66.326 91.1966 65.0361 90.1757 63.6108 90.3417C62.1855 90.5076 61.1646 91.7972 61.3305 93.2225C61.4964 94.6478 62.7864 95.6687 64.2116 95.5028Z" fill="#C09068"/>
<path d="M38.406 65.1009C38.5721 63.6757 37.5514 62.3858 36.1262 62.2196C34.7009 62.0534 33.4108 63.0741 33.2447 64.4994C33.0785 65.9246 34.0992 67.2146 35.5244 67.3807C36.9497 67.5469 38.2398 66.5262 38.406 65.1009Z" fill="#C09068"/>
<path d="M116.583 112.288C118.059 110.423 117.743 107.715 115.878 106.239C114.013 104.764 111.305 105.079 109.829 106.944C108.354 108.809 108.669 111.517 110.534 112.993C112.4 114.469 115.108 114.153 116.583 112.288Z" fill="#C09068"/>
<path d="M21.724 18.8866C23.5891 17.411 23.9049 14.7029 22.4292 12.8378C20.9536 10.9727 18.2455 10.6571 16.3804 12.1327C14.5153 13.6083 14.1995 16.3164 15.6751 18.1815C17.1508 20.0466 19.8589 20.3622 21.724 18.8866Z" fill="#C09068"/>
<path d="M47.1642 118.569C48.0544 117.941 48.2667 116.71 47.6385 115.82C47.0104 114.93 45.7796 114.718 44.8894 115.346C43.9993 115.974 43.7869 117.205 44.4151 118.095C45.0432 118.985 46.2741 119.197 47.1642 118.569Z" fill="#C09068"/>
<path d="M13.3466 83.8163C13.9747 82.9261 13.7623 81.6954 12.8722 81.0673C11.982 80.4391 10.7512 80.6512 10.1231 81.5414C9.4949 82.4315 9.70725 83.6627 10.5974 84.2909C11.4875 84.9191 12.7184 84.7064 13.3466 83.8163Z" fill="#C09068"/>
<path d="M52.0683 121C52.8608 120.441 53.0501 119.345 52.491 118.553C51.9319 117.76 50.8362 117.571 50.0437 118.13C49.2512 118.689 49.0619 119.784 49.621 120.577C50.1801 121.37 51.2757 121.559 52.0683 121Z" fill="#C09068"/>
<path d="M10.5302 78.704C11.0893 77.9114 10.9 76.8158 10.1075 76.2567C9.31494 75.6976 8.21923 75.887 7.66015 76.6796C7.10107 77.4721 7.29033 78.5677 8.08287 79.1268C8.87542 79.6859 9.97114 79.4965 10.5302 78.704Z" fill="#C09068"/>
<path d="M57.3545 122.86C58.0818 122.347 58.2554 121.341 57.7421 120.614C57.2289 119.887 56.2232 119.713 55.4959 120.226C54.7685 120.74 54.595 121.745 55.1083 122.473C55.6215 123.2 56.6272 123.373 57.3545 122.86Z" fill="#C09068"/>
<path d="M8.42257 73.244C8.93582 72.5167 8.76231 71.5112 8.035 70.9979C7.30769 70.4847 6.30199 70.6583 5.78874 71.3856C5.27549 72.1129 5.44901 73.1185 6.17633 73.6317C6.90364 74.145 7.90931 73.9713 8.42257 73.244Z" fill="#C09068"/>
<path d="M62.0997 123.544C62.7185 123.108 62.8663 122.252 62.4297 121.633C61.9932 121.014 61.1377 120.867 60.5188 121.303C59.9 121.74 59.7522 122.595 60.1887 123.214C60.6253 123.833 61.4808 123.981 62.0997 123.544Z" fill="#C09068"/>
<path d="M7.44412 68.1097C7.88066 67.4909 7.73288 66.6356 7.11405 66.1991C6.49521 65.7626 5.63966 65.9103 5.20312 66.5292C4.76658 67.148 4.91436 68.0033 5.5332 68.4398C6.15203 68.8764 7.00758 68.7286 7.44412 68.1097Z" fill="#C09068"/>
<path d="M66.9192 123.473C67.5054 123.059 67.6452 122.248 67.2316 121.662C66.8179 121.076 66.0073 120.936 65.4212 121.35C64.835 121.764 64.6951 122.574 65.1088 123.16C65.5225 123.746 66.333 123.886 66.9192 123.473Z" fill="#C09068"/>
<path d="M7.34716 63.3226C7.76083 62.7364 7.62097 61.9262 7.03478 61.5126C6.44858 61.0989 5.63803 61.2384 5.22436 61.8246C4.8107 62.4108 4.95056 63.2215 5.53675 63.6351C6.12295 64.0488 6.93349 63.9088 7.34716 63.3226Z" fill="#C09068"/>
<path d="M71.2579 123.074C71.7572 122.722 71.8764 122.031 71.524 121.532C71.1716 121.033 70.4812 120.914 69.9818 121.266C69.4825 121.618 69.3633 122.309 69.7157 122.808C70.0681 123.308 70.7585 123.426 71.2579 123.074Z" fill="#C09068"/>
<path d="M7.38763 58.7709C7.74001 58.2715 7.6209 57.5808 7.12155 57.2284C6.6222 56.876 5.93171 56.9956 5.57933 57.495C5.22694 57.9943 5.34609 58.6846 5.84544 59.037C6.34479 59.3894 7.03525 59.2702 7.38763 58.7709Z" fill="#C09068"/>
<path d="M75.1406 122.508C75.5748 122.201 75.6784 121.601 75.372 121.167C75.0656 120.733 74.4652 120.629 74.031 120.935C73.5967 121.242 73.4931 121.842 73.7996 122.276C74.106 122.71 74.7064 122.814 75.1406 122.508Z" fill="#C09068"/>
<path d="M7.73494 54.6952C8.04144 54.261 7.93794 53.6609 7.50377 53.3544C7.06961 53.0479 6.46919 53.1516 6.16269 53.5858C5.85619 54.02 5.95969 54.6201 6.39385 54.9266C6.82801 55.2331 7.42845 55.1293 7.73494 54.6952Z" fill="#C09068"/>
<path d="M78.7194 121.576C79.0993 121.307 79.1898 120.782 78.9216 120.402C78.6535 120.022 78.1281 119.932 77.7482 120.2C77.3683 120.468 77.2777 120.994 77.5459 121.373C77.8141 121.753 78.3395 121.844 78.7194 121.576Z" fill="#C09068"/>
<path d="M8.508 50.9955C8.77619 50.6156 8.68562 50.0903 8.30573 49.8221C7.92584 49.5539 7.40048 49.6444 7.13229 50.0243C6.86411 50.4042 6.95466 50.9294 7.33456 51.1976C7.71445 51.4658 8.23982 51.3754 8.508 50.9955Z" fill="#C09068"/>
<path d="M82.0396 120.556C82.3435 120.341 82.4161 119.921 82.2016 119.617C81.9871 119.313 81.5668 119.24 81.2628 119.455C80.9589 119.669 80.8864 120.089 81.1009 120.393C81.3154 120.697 81.7356 120.77 82.0396 120.556Z" fill="#C09068"/>
<path d="M9.20964 47.431C9.42414 47.1271 9.35162 46.7066 9.04767 46.4921C8.74371 46.2776 8.32343 46.3502 8.10894 46.6542C7.89445 46.9581 7.96697 47.3781 8.27092 47.5926C8.57487 47.8071 8.99515 47.735 9.20964 47.431Z" fill="#C09068"/>
<path d="M85.2052 119.716C85.4767 119.524 85.5416 119.149 85.3502 118.878C85.1587 118.606 84.7835 118.542 84.512 118.733C84.2406 118.925 84.1757 119.3 84.3671 119.571C84.5585 119.843 84.9338 119.907 85.2052 119.716Z" fill="#C09068"/>
<path d="M10.0007 44.1224C10.1921 43.851 10.1273 43.4755 9.85581 43.284C9.58436 43.0926 9.20912 43.1576 9.01771 43.4291C8.82629 43.7005 8.89117 44.076 9.16262 44.2674C9.43407 44.4589 9.80931 44.3939 10.0007 44.1224Z" fill="#C09068"/>
<path d="M87.5916 118.762C87.8087 118.608 87.8606 118.308 87.7074 118.091C87.5542 117.874 87.254 117.822 87.0369 117.975C86.8198 118.129 86.7679 118.429 86.921 118.646C87.0742 118.863 87.3745 118.915 87.5916 118.762Z" fill="#C09068"/>
<path d="M10.6625 41.6981C10.8157 41.481 10.7638 41.1804 10.5467 41.0272C10.3296 40.874 10.0294 40.9263 9.87621 41.1434C9.72303 41.3606 9.77488 41.6607 9.99202 41.8138C10.2092 41.967 10.5093 41.9152 10.6625 41.6981Z" fill="#C09068"/>
<path d="M89.6208 117.666C89.7728 117.559 89.8091 117.349 89.7018 117.197C89.5946 117.045 89.3845 117.009 89.2325 117.116C89.0805 117.223 89.0442 117.433 89.1515 117.585C89.2587 117.737 89.4689 117.774 89.6208 117.666Z" fill="#C09068"/>
<path d="M11.5268 39.4471C11.634 39.2951 11.5977 39.0846 11.4457 38.9774C11.2937 38.8702 11.0835 38.9069 10.9763 39.0589C10.8692 39.211 10.9055 39.421 11.0575 39.5282C11.2095 39.6354 11.4196 39.5991 11.5268 39.4471Z" fill="#C09068"/>
<path d="M91.4762 116.601C91.5956 116.517 91.624 116.352 91.5396 116.232C91.4553 116.113 91.2902 116.084 91.1709 116.169C91.0515 116.253 91.0231 116.419 91.1074 116.538C91.1917 116.657 91.3568 116.686 91.4762 116.601Z" fill="#C09068"/>
<path d="M12.5992 37.5555C12.6836 37.4361 12.6551 37.2707 12.5357 37.1864C12.4164 37.1021 12.2512 37.1305 12.1669 37.2499C12.0826 37.3692 12.1111 37.5347 12.2304 37.619C12.3498 37.7033 12.5149 37.6749 12.5992 37.5555Z" fill="#C09068"/>
</svg>
