<svg width="23" height="12" viewBox="0 0 23 12" fill="none" xmlns="http://www.w3.org/2000/svg">
<path d="M16.4408 6.26257C16.4408 6.26257 12.4474 3.56861 13.1932 0.633667C12.6979 1.04346 12.3739 1.62351 12.2849 2.26013C12.1958 2.89675 12.3482 3.54366 12.7121 4.07361C13.9389 5.61325 11.7498 2.34142 9.22379 6.23865C11.6295 10.1359 13.7224 6.69613 12.7121 8.40417C12.3482 8.93412 12.1958 9.58103 12.2849 10.2177C12.3739 10.8543 12.6979 11.4343 13.1932 11.8441C13.2427 10.7205 13.5641 9.6253 14.1297 8.6532C14.6954 7.6811 15.4884 6.8608 16.4408 6.26257Z" fill="#C09068"/>
<path d="M13.1451 4.55457C12.8372 3.83576 12.3538 3.20576 11.739 2.72253C11.1242 2.23931 10.3979 1.91827 9.62675 1.78894C8.85559 1.65961 8.06431 1.72655 7.32555 1.98279C6.58678 2.23902 5.92423 2.67668 5.39876 3.25574C1.52561 6.81616 0.322754 6.4071 0.322754 6.4071C0.322754 6.4071 2.12702 6.40718 5.35063 9.43835C10.0177 13.9129 13.0247 7.85046 13.0247 7.85046L13.1451 4.55457Z" fill="#C09068"/>
<path d="M19.8328 8.66882C21.2545 8.66882 22.4069 7.51624 22.4069 6.0946C22.4069 4.67297 21.2545 3.52039 19.8328 3.52039C18.4112 3.52039 17.2587 4.67297 17.2587 6.0946C17.2587 7.51624 18.4112 8.66882 19.8328 8.66882Z" fill="#C09068"/>
</svg>
