<svg width="129" height="129" viewBox="0 0 129 129" fill="none" xmlns="http://www.w3.org/2000/svg">
<path d="M87.0512 86.8104L87.7971 86.2333C88.5477 85.6983 89.3542 85.2466 90.2026 84.8861C91.9348 84.1683 93.7699 83.7296 95.6395 83.5868C96.5827 83.4805 97.535 83.4805 98.4782 83.5868L99.1757 83.7313L99.8494 83.8998C100.307 84.0201 100.74 84.1886 101.197 84.3329C104.771 85.7155 107.778 88.2564 109.737 91.5497C110.715 93.1553 111.467 94.8878 111.974 96.6981C112.482 98.4815 112.812 100.311 112.96 102.159C113.093 103.993 113.093 105.834 112.96 107.668C112.96 108.582 112.816 109.496 112.696 110.387V111.06C112.696 111.06 112.696 111.276 112.696 111.421V112.359H110.723C109.833 112.48 108.919 112.528 108.005 112.624C106.171 112.757 104.329 112.757 102.496 112.624C100.647 112.476 98.818 112.146 97.0346 111.638C95.2243 111.131 93.4922 110.378 91.8866 109.4C88.5933 107.441 86.052 104.434 84.6694 100.86C84.501 100.427 84.3568 99.9697 84.2365 99.5126C84.1162 99.0555 84.1162 99.0553 84.0681 98.8388C84.02 98.6222 84.0681 98.358 83.9238 98.1415C83.8175 97.1982 83.8175 96.2459 83.9238 95.3026C84.0666 93.433 84.5051 91.5983 85.2229 89.8661C85.5833 89.0177 86.035 88.2105 86.57 87.4598C86.7207 87.2363 86.8813 87.0197 87.0512 86.8104ZM110.747 110.507V110.074C110.891 109.208 110.964 108.342 111.06 107.475C111.209 105.732 111.249 103.98 111.18 102.231C111.101 98.7286 110.203 95.2925 108.558 92.1991C106.84 89.1038 104.128 86.6798 100.86 85.3192L99.6088 84.8622L98.9592 84.6698L98.3338 84.5253C97.4681 84.3774 96.5883 84.3288 95.7116 84.3807C93.9211 84.4852 92.1589 84.8751 90.4914 85.5355C89.6449 85.8605 88.8378 86.2802 88.0856 86.7865L87.436 87.2919L86.9309 87.9413C86.4245 88.6935 86.0049 89.5006 85.6799 90.3471C85.0194 92.0146 84.6296 93.7768 84.5251 95.5673C84.4729 96.444 84.5213 97.3237 84.6694 98.1893C84.6694 98.4059 84.6696 98.6229 84.8139 98.8153C84.9583 99.0078 84.9341 99.2482 85.0063 99.4647C85.0785 99.6812 85.2949 100.307 85.4633 100.716C86.8239 103.984 89.2483 106.696 92.3436 108.414C95.437 110.059 98.8727 110.957 102.375 111.036C104.124 111.105 105.876 111.065 107.62 110.916C108.486 110.916 109.352 110.747 110.218 110.603L110.747 110.507ZM93.9073 93.6669C95.1746 93.2983 96.3879 92.7643 97.5158 92.079C98.2721 91.6163 98.9956 91.1019 99.681 90.5394L100.379 90.0585L100.86 89.6254L101.317 89.1679L101.774 88.6869C102.943 87.3504 103.975 85.8999 104.853 84.3568C105.763 82.8094 106.567 81.2018 107.259 79.5453C107.957 77.8947 108.567 76.2086 109.087 74.4935C111.106 67.6129 111.688 60.3903 110.795 53.2753C110.579 51.5191 110.29 49.7388 109.905 48.0067C109.52 46.2746 109.087 44.5424 108.558 42.8344C107.538 39.4876 106.159 36.2615 104.444 33.2118C103.579 31.6909 102.614 30.2282 101.557 28.8334C100.503 27.4484 99.3451 26.1458 98.0932 24.9364C95.6308 22.5265 92.7434 20.5932 89.5771 19.2347C86.4789 17.8943 83.1065 17.3089 79.7377 17.5267C78.0676 17.6252 76.4331 18.0503 74.9265 18.7777C73.5069 19.4125 72.3928 20.5783 71.8232 22.0253C71.5921 22.7313 71.5426 23.4844 71.6789 24.2147C71.8237 24.9634 72.1006 25.6799 72.4968 26.3314C73.3189 27.6538 74.3794 28.8121 75.6242 29.7474C78.1769 31.5512 81.0639 32.8271 84.1162 33.5004C87.0805 34.2222 90.112 34.6335 93.1616 34.7274C96.1463 34.8068 99.1324 34.6297 102.087 34.1981C107.718 33.4399 113.169 31.6801 118.181 29.0018C120.518 27.7664 122.625 26.1389 124.411 24.1903C125.245 23.2457 125.949 22.1939 126.504 21.0629C127.037 19.9626 127.395 18.7855 127.563 17.5746C127.859 15.2328 127.483 12.8554 126.48 10.7186C125.546 8.68025 124.184 6.86662 122.487 5.40174C121.702 4.7108 120.828 4.1284 119.889 3.6698C118.975 3.23801 118.014 2.91491 117.026 2.7074C115.135 2.34304 113.191 2.34304 111.3 2.7074C109.585 2.9834 107.946 3.61447 106.489 4.55994C105.295 5.30944 104.346 6.3921 103.76 7.67469C103.175 8.95728 102.977 10.3838 103.193 11.7772C103.354 12.9917 103.737 14.1657 104.324 15.2411C104.802 16.121 105.477 16.8787 106.297 17.4545C107.021 17.9384 107.842 18.2583 108.702 18.3925C109.833 18.6562 111.02 18.5028 112.046 17.9598C112.276 17.8279 112.468 17.6365 112.6 17.4061C112.606 17.3502 112.606 17.2941 112.6 17.2382C112.618 17.1728 112.658 17.115 112.712 17.0741C112.766 17.0332 112.832 17.0111 112.9 17.0111C112.968 17.0111 113.034 17.0332 113.089 17.0741C113.143 17.115 113.182 17.1728 113.201 17.2382C113.215 17.35 113.215 17.4628 113.201 17.5746C113.114 17.9879 112.905 18.3652 112.6 18.6571C112.039 19.1515 111.381 19.5246 110.669 19.7523C109.957 19.98 109.205 20.0575 108.462 19.9804C107.366 19.9092 106.302 19.5798 105.358 19.0184C104.225 18.33 103.289 17.3602 102.64 16.2035C101.928 14.9134 101.463 13.5023 101.269 12.0419C101.171 11.2429 101.171 10.435 101.269 9.63611C101.472 7.84616 102.229 6.16416 103.434 4.82459C104.073 4.10758 104.81 3.48434 105.623 2.97254C107.329 1.92722 109.241 1.26194 111.228 1.02332C113.341 0.738566 115.489 0.861531 117.555 1.38465C118.649 1.66105 119.707 2.06454 120.707 2.58728C121.734 3.1295 122.688 3.80034 123.545 4.58387C125.324 6.20844 126.749 8.18217 127.731 10.3817C128.239 11.5355 128.603 12.7474 128.814 13.9901C129.266 16.6063 128.888 19.2985 127.731 21.6884C127.136 22.9043 126.384 24.0369 125.494 25.0565C123.638 27.124 121.441 28.8572 118.999 30.1805C113.885 33.0062 108.302 34.881 102.52 35.7137C99.4867 36.1682 96.4202 36.3611 93.3541 36.2909C90.1818 36.2263 87.0266 35.8067 83.9477 35.0399C82.3685 34.644 80.8238 34.1213 79.3288 33.4764C77.7906 32.8235 76.3433 31.9741 75.0228 30.9501C74.3559 30.4191 73.7361 29.8319 73.1704 29.1942C72.5906 28.5537 72.0824 27.8521 71.6547 27.1014C71.2142 26.3579 70.9051 25.5441 70.7407 24.6957C70.5906 23.7837 70.6733 22.8488 70.9813 21.9774C71.2961 21.1181 71.8068 20.3435 72.4729 19.7157C73.1176 19.0976 73.8563 18.586 74.6618 18.2001C76.2503 17.4638 77.9653 17.0392 79.7138 16.9491C81.4532 16.8454 83.1987 16.9586 84.9101 17.286L86.185 17.5507L87.436 17.8876C88.278 18.1281 89.096 18.465 89.8418 18.7777C93.0886 20.1756 96.0616 22.1383 98.6225 24.5751C99.9213 25.7991 101.127 27.1179 102.231 28.5204C103.345 29.9272 104.366 31.4062 105.286 32.9471C106.219 34.5054 107.071 36.1115 107.836 37.7587C108.582 39.3945 109.256 41.0783 109.857 42.8104C110.458 44.5425 110.964 46.2744 111.421 48.0546C111.878 49.8348 112.239 51.6154 112.551 53.4437C113.134 57.1098 113.32 60.8282 113.105 64.5341C112.896 68.2772 112.25 71.9829 111.18 75.5761C110.137 79.2108 108.565 82.6722 106.513 85.8485C105.472 87.4415 104.262 88.9174 102.904 90.2509L102.375 90.7318L101.822 91.2128L101.245 91.6698L100.691 92.079C99.9241 92.6228 99.1204 93.1134 98.2857 93.5468C97.2051 94.1067 96.0679 94.5499 94.8935 94.8695C94.5739 96.0439 94.1305 97.181 93.5705 98.2616C93.1371 99.0962 92.6467 99.9001 92.103 100.667L91.6942 101.221L91.237 101.798L90.7558 102.351L90.2747 102.881C88.9413 104.238 87.4652 105.448 85.8723 106.489C82.696 108.541 79.2348 110.113 75.6001 111.156C72.0069 112.226 68.301 112.872 64.5579 113.081C60.8521 113.296 57.1339 113.11 53.4679 112.527C51.6395 112.214 49.8593 111.878 48.0791 111.397C46.2989 110.916 44.5668 110.434 42.8347 109.833C41.1026 109.231 39.4427 108.558 37.7828 107.812C36.1356 107.047 34.5296 106.196 32.9714 105.263C31.4305 104.342 29.9518 103.321 28.545 102.207C27.1425 101.103 25.8236 99.8973 24.5996 98.5985C22.1628 96.0376 20.1999 93.0646 18.802 89.8178C18.4892 88.9998 18.1524 88.2059 17.9118 87.412C17.7675 86.979 17.6713 86.57 17.575 86.161C17.4788 85.7521 17.3827 85.3191 17.3105 84.8861C16.9831 83.1747 16.8699 81.4292 16.9736 79.6898C17.0637 77.9413 17.4883 76.2261 18.2246 74.6376C18.6108 73.8323 19.1224 73.0936 19.7402 72.4486C20.3679 71.7826 21.1422 71.2718 22.0015 70.9569C22.875 70.657 23.81 70.5828 24.7199 70.7406C25.5682 70.9055 26.3819 71.2146 27.1256 71.6547C27.8762 72.0823 28.5781 72.5905 29.2186 73.1703C29.8562 73.736 30.4438 74.3554 30.9747 75.0223C31.9987 76.3429 32.8478 77.7907 33.5007 79.329C34.1457 80.8239 34.6687 82.3688 35.0644 83.9481C35.8311 87.027 36.2508 90.1821 36.3154 93.3544C36.3856 96.4205 36.1924 99.4868 35.738 102.52C34.9053 108.302 33.0304 113.886 30.2048 118.999C28.8814 121.442 27.1483 123.638 25.0808 125.494C24.061 126.384 22.9287 127.136 21.7128 127.731C19.323 128.888 16.6307 129.266 14.0146 128.814C12.7719 128.603 11.56 128.239 10.4062 127.731C8.20667 126.749 6.23293 125.324 4.60836 123.546C3.82463 122.688 3.15376 121.734 2.61177 120.707C2.08904 119.707 1.68529 118.649 1.40889 117.556C0.885779 115.489 0.763301 113.341 1.04805 111.228C1.28668 109.242 1.95123 107.329 2.99654 105.623C3.50809 104.81 4.13184 104.073 4.84908 103.434C6.18864 102.229 7.87042 101.473 9.66036 101.269C10.4593 101.171 11.2672 101.171 12.0661 101.269C13.5265 101.464 14.9378 101.928 16.2279 102.64C17.3846 103.289 18.3542 104.225 19.0426 105.358C19.6039 106.302 19.9337 107.366 20.0048 108.462C20.0806 109.205 20.0021 109.957 19.7745 110.669C19.5468 111.381 19.1748 112.038 18.6817 112.599C18.3898 112.905 18.0123 113.114 17.5991 113.201H17.1901C17.1248 113.182 17.0673 113.143 17.0263 113.089C16.9854 113.034 16.9633 112.968 16.9633 112.9C16.9633 112.832 16.9854 112.766 17.0263 112.712C17.0673 112.658 17.1248 112.618 17.1901 112.599H17.3586C17.589 112.468 17.7799 112.277 17.9118 112.046C18.4548 111.02 18.6087 109.833 18.3449 108.703C18.2108 107.842 17.8906 107.021 17.4067 106.297C16.8309 105.477 16.0734 104.802 15.1934 104.324C14.1181 103.737 12.9436 103.354 11.7292 103.193C10.3358 102.978 8.90974 103.175 7.62715 103.761C6.34457 104.346 5.26166 105.295 4.51216 106.489C3.5667 107.947 2.93587 109.585 2.65987 111.301C2.29551 113.192 2.29551 115.135 2.65987 117.026C2.86738 118.015 3.19024 118.975 3.62203 119.889C4.08062 120.828 4.66327 121.702 5.35421 122.487C6.81909 124.185 8.63236 125.546 10.6707 126.48C12.8075 127.483 15.1851 127.859 17.5269 127.563C18.7379 127.395 19.915 127.038 21.0152 126.505C22.1462 125.95 23.1979 125.245 24.1425 124.412C26.0911 122.625 27.7186 120.518 28.9539 118.181C31.6294 113.176 33.3892 107.734 34.1502 102.111C34.5818 99.1563 34.7588 96.1701 34.6794 93.1854C34.614 90.1143 34.2269 87.0588 33.5246 84.0682C32.8514 81.016 31.5757 78.1287 29.7719 75.5761C28.8366 74.3312 27.6782 73.2707 26.3558 72.4486C25.704 72.0529 24.9872 71.7761 24.2387 71.6307C23.5085 71.4944 22.7556 71.5442 22.0495 71.7753C20.6026 72.3449 19.4367 73.4587 18.802 74.8783C18.0745 76.3849 17.6495 78.0197 17.551 79.6898C17.3331 83.0586 17.9185 86.431 19.259 89.5292C20.6175 92.6955 22.5505 95.5829 24.9604 98.0453C26.1697 99.2972 27.4726 100.455 28.8576 101.51C30.2524 102.567 31.715 103.531 33.236 104.396C36.2858 106.111 39.5122 107.49 42.8588 108.51C44.5428 109.039 46.2748 109.472 48.031 109.857C49.7871 110.242 51.5432 110.53 53.2994 110.747C60.4144 111.64 67.637 111.058 74.5175 109.039C76.2326 108.519 77.9188 107.909 79.5694 107.211C81.2259 106.519 82.8334 105.715 84.3808 104.805C85.9239 103.927 87.3747 102.895 88.7111 101.726L89.1921 101.269L89.6492 100.812L90.0822 100.331L90.5153 99.8016C91.0778 99.1163 91.5922 98.3924 92.0549 97.6361C92.8815 96.4369 93.5299 95.1245 93.9796 93.7391L93.9073 93.6669Z" fill="#C09068"/>
<path d="M109.472 75.4315V75.2152C109.472 75.0709 109.472 74.8542 109.472 74.6137C109.551 73.8137 109.551 73.0079 109.472 72.2079C109.397 71.0067 109.212 69.8148 108.919 68.6473C108.541 67.1187 108 65.635 107.307 64.2211C106.496 62.5409 105.46 60.9789 104.228 59.578C102.868 58.0109 101.185 56.7555 99.2961 55.8973C97.2537 55.0234 95.0455 54.6051 92.8249 54.6708C90.5301 54.6913 88.2782 55.2954 86.2814 56.4266C85.3062 57.0069 84.4493 57.7659 83.7556 58.6639C83.071 59.5522 82.5867 60.5777 82.3361 61.6708C81.9338 63.826 82.1764 66.0523 83.0336 68.0702C83.387 69.0215 83.9086 69.9016 84.5733 70.6683C85.226 71.3949 86.0543 71.9418 86.979 72.2562C87.8102 72.5555 88.6986 72.6622 89.5771 72.5687C90.4145 72.4832 91.2296 72.2468 91.9829 71.871C93.2886 71.2347 94.3403 70.175 94.966 68.8641C95.4204 67.8692 95.5221 66.7489 95.2546 65.6884C95.0674 64.9792 94.7668 64.3051 94.3645 63.6918L94.0277 63.1864L93.9074 63.0184C93.8653 62.9501 93.8489 62.8687 93.8613 62.7894C93.8737 62.7102 93.914 62.638 93.9749 62.5858C94.0359 62.5336 94.1136 62.5049 94.1938 62.5048C94.274 62.5047 94.3515 62.5333 94.4126 62.5853L94.581 62.7294L95.0382 63.2108C95.6113 63.8477 96.0527 64.5915 96.3371 65.3998C96.5466 65.9948 96.6524 66.6215 96.6499 67.2523C96.6423 68.0049 96.487 68.7485 96.1928 69.4413C95.8582 70.2105 95.3853 70.9122 94.7976 71.5106C94.1543 72.1606 93.4061 72.697 92.5843 73.098C91.6893 73.5426 90.7178 73.8122 89.7216 73.892C88.6322 73.996 87.5339 73.8309 86.523 73.4115C85.5122 72.9921 84.6196 72.331 83.9238 71.4862C83.2107 70.5974 82.6646 69.5869 82.312 68.5033C81.9416 67.4207 81.6994 66.2981 81.5903 65.1591C81.4803 63.9817 81.5698 62.7944 81.8549 61.6469C82.1574 60.4821 82.6982 59.3925 83.4428 58.4471C84.1907 57.4824 85.1127 56.6669 86.1612 56.0419C88.2312 54.8677 90.5653 54.2388 92.945 54.2137C95.2484 54.1451 97.5391 54.5797 99.6569 55.4882C101.615 56.3785 103.368 57.6648 104.805 59.2655C106.095 60.7142 107.179 62.3333 108.029 64.077C108.753 65.5244 109.333 67.0389 109.761 68.5995C110.091 69.8119 110.308 71.0523 110.41 72.3046C110.479 73.105 110.479 73.9094 110.41 74.7098C110.41 74.9985 110.41 75.215 110.41 75.3353V75.6239C110.377 75.7249 110.309 75.8112 110.219 75.8676C110.128 75.9239 110.021 75.9468 109.915 75.9325C109.81 75.9182 109.713 75.8677 109.641 75.7894C109.568 75.7112 109.526 75.6101 109.52 75.5038L109.472 75.4315Z" fill="#C09068"/>
<path d="M75.6722 109.304H74.8544C74.0545 109.382 73.2487 109.382 72.4487 109.304C71.2475 109.228 70.0556 109.043 68.8881 108.75C67.3596 108.372 65.876 107.831 64.4619 107.139C62.7817 106.327 61.2196 105.292 59.8188 104.059C58.2517 102.699 56.9963 101.017 56.1381 99.1278C55.2642 97.0854 54.8454 94.8767 54.9111 92.6561C54.9316 90.3613 55.5362 88.1099 56.6674 86.1132C57.2477 85.138 58.0068 84.2806 58.9047 83.5868C59.7929 82.9022 60.8188 82.4184 61.9118 82.1679C64.067 81.7655 66.293 82.0078 68.3109 82.8651C69.2619 83.219 70.142 83.7408 70.9091 84.4052C71.6357 85.0578 72.1823 85.8858 72.4968 86.8104C72.796 87.6417 72.903 88.53 72.8095 89.4086C72.724 90.246 72.4875 91.0611 72.1118 91.8143C71.4889 93.1471 70.4274 94.2255 69.1047 94.8695C68.1098 95.3239 66.9897 95.4256 65.9292 95.1581C65.22 94.9709 64.5459 94.6708 63.9326 94.2684L63.4274 93.9315L63.259 93.8114C63.1907 93.7693 63.1095 93.7526 63.0302 93.765C62.951 93.7774 62.8788 93.8179 62.8266 93.8788C62.7744 93.9397 62.7457 94.0173 62.7456 94.0975C62.7455 94.1778 62.7738 94.2552 62.8259 94.3163L62.9704 94.4847L63.4515 94.9418C64.0884 95.515 64.8323 95.9567 65.6406 96.2411C66.2355 96.4511 66.8621 96.5567 67.493 96.5536C68.2456 96.546 68.9893 96.3907 69.6821 96.0966C70.4513 95.7619 71.1525 95.2888 71.7509 94.7011C72.4012 94.0581 72.9382 93.3102 73.3388 92.4882C73.7834 91.5932 74.0529 90.6215 74.1328 89.6254C74.2368 88.5359 74.0717 87.4375 73.6523 86.4266C73.2329 85.4158 72.5718 84.5233 71.727 83.8275C70.8382 83.1144 69.8274 82.5683 68.7439 82.2157C67.6612 81.8454 66.5391 81.6032 65.4001 81.494C64.2228 81.3841 63.0352 81.4736 61.8877 81.7587C60.7229 82.0612 59.6336 82.6019 58.6882 83.3466C57.7235 84.0944 56.9074 85.0163 56.2824 86.0648C55.1043 88.1419 54.475 90.4851 54.4541 92.8729C54.3854 95.1764 54.8207 97.467 55.7292 99.5848C56.6189 101.543 57.9049 103.297 59.5061 104.733C60.9546 106.023 62.5737 107.108 64.3176 107.957C65.7648 108.681 67.2796 109.261 68.8402 109.689C70.0525 110.019 71.2926 110.236 72.5449 110.338C73.3453 110.407 74.1502 110.407 74.9506 110.338H75.7927C75.8937 110.305 75.9796 110.237 76.036 110.146C76.0923 110.056 76.1153 109.949 76.101 109.844C76.0868 109.738 76.0362 109.64 75.958 109.568C75.8797 109.496 75.7785 109.454 75.6722 109.448V109.304Z" fill="#C09068"/>
<path d="M117.483 117.243L117.844 116.328C118.665 114.136 119.284 111.873 119.696 109.568C119.894 108.423 120.015 107.266 120.057 106.104C120.057 105.816 120.057 105.527 120.057 105.238C120.057 104.949 120.057 104.925 120.057 104.805V104.372C120.057 103.795 120.057 103.218 120.057 102.616C119.888 100.298 119.427 98.0108 118.686 95.808C117.959 93.6379 116.833 91.6228 115.366 89.8661C114.661 88.9729 113.853 88.1649 112.96 87.4598C112.508 87.1305 112.034 86.8335 111.541 86.5702L110.795 86.2089L110.074 85.9442L108.895 85.5595L109.785 84.7416C110.17 84.3807 110.579 83.9479 110.94 83.5389C111.301 83.13 111.685 82.6728 112.046 82.2157C113.458 80.3823 114.675 78.407 115.679 76.3217C116.182 75.279 116.632 74.2109 117.026 73.122C117.435 72.0394 117.772 70.9333 118.06 69.8026C118.205 69.2493 118.349 68.6714 118.469 68.118L118.638 67.2763L118.782 66.41C118.975 65.2553 119.095 64.0047 119.191 62.9462C119.191 62.3688 119.191 61.7911 119.191 61.2137C119.191 60.6364 119.191 60.0592 119.191 59.4818C119.191 58.9044 119.191 58.3272 119.191 57.7499C119.191 57.1725 119.191 56.5948 119.071 56.0175C118.95 55.4401 118.926 54.863 118.878 54.2616V53.3954L118.734 52.5292C118.734 51.9518 118.566 51.3746 118.445 50.7972L118.108 49.0653C118.108 48.4879 117.868 47.9106 117.748 47.3573C117.627 46.804 117.507 46.2026 117.363 45.6493C117.218 45.096 117.074 44.5187 116.93 43.9413L116.449 42.2572L115.919 40.5975L115.342 38.9374C114.933 37.8548 114.5 36.7482 113.995 35.7137C113.517 34.6559 112.962 33.6343 112.335 32.6581C112.313 32.601 112.308 32.5392 112.321 32.4794C112.333 32.4195 112.363 32.3646 112.407 32.3217C113.078 33.3182 113.673 34.3637 114.187 35.4491C114.716 36.5076 115.174 37.614 115.607 38.7206L116.232 40.3807L116.81 42.0648L117.315 43.7728C117.483 44.3502 117.627 44.9035 117.772 45.4808C117.916 46.0582 118.06 46.6354 118.205 47.2128C118.349 47.7901 118.493 48.3678 118.59 48.9452L118.95 50.6771C118.95 51.2545 119.167 51.8321 119.263 52.4335L119.408 53.2992C119.408 53.4435 119.408 53.5878 119.408 53.7562V54.1893C119.408 54.7667 119.576 55.3438 119.624 55.9452C119.672 56.5466 119.744 57.1481 119.792 57.7255C119.841 58.3028 119.792 58.9043 119.792 59.5057C119.792 60.1072 119.792 60.7086 119.792 61.286C119.792 61.8634 119.792 62.4889 119.792 63.0663C119.792 64.2451 119.6 65.4721 119.408 66.6268L119.263 67.517L119.095 68.4071C119.095 68.9845 118.83 69.5856 118.71 70.163C118.421 71.3177 118.084 72.569 117.675 73.6034C117.284 74.7324 116.834 75.8404 116.328 76.9232C115.319 79.1062 114.086 81.1782 112.648 83.1058C112.287 83.587 111.902 84.0682 111.517 84.5253C111.115 84.9954 110.689 85.445 110.242 85.8724L109.953 84.6454C110.273 84.7447 110.587 84.8652 110.892 85.0062L111.733 85.4393C112.277 85.7396 112.8 86.0771 113.297 86.4496C114.292 87.1916 115.196 88.0477 115.991 88.9999C117.546 90.904 118.729 93.0824 119.48 95.4227C120.234 97.7613 120.687 100.187 120.827 102.64C120.827 103.241 120.827 103.843 120.827 104.444V104.901C120.827 105.07 120.827 105.214 120.827 105.358C120.827 105.503 120.827 105.96 120.827 106.272C120.764 107.484 120.62 108.69 120.394 109.881C119.938 112.238 119.27 114.549 118.397 116.786L117.868 118.109L116.545 118.638C114.308 119.511 111.998 120.179 109.64 120.635C108.449 120.86 107.243 121.005 106.032 121.068H102.423C99.9701 120.928 97.5448 120.475 95.2063 119.721C92.8659 118.97 90.6874 117.786 88.7833 116.232C87.8312 115.437 86.9754 114.532 86.2332 113.538C85.8608 113.041 85.5233 112.518 85.2229 111.974C85.0785 111.709 84.9342 111.421 84.7899 111.132C84.649 110.828 84.5284 110.515 84.4289 110.194L85.656 110.483C85.2287 110.93 84.7791 111.356 84.3088 111.758C83.8517 112.143 83.3705 112.528 82.8894 112.889C80.9616 114.326 78.8896 115.56 76.7067 116.569C75.6239 117.075 74.5158 117.524 73.3869 117.916C72.2562 118.325 71.1015 118.662 69.9467 118.951C69.3694 119.071 68.792 119.24 68.1906 119.336L67.3005 119.504L66.4104 119.648C65.2316 119.841 64.0048 119.937 62.8501 120.033C62.2486 120.033 61.6471 120.033 61.0698 120.033H57.5094L55.7292 119.865C55.1278 119.865 54.5505 119.72 53.9731 119.648H53.083L52.2168 119.504L50.4607 119.191L48.7287 118.83L46.9965 118.445L45.2646 118.013L43.5565 117.556L41.8483 117.05L40.1644 116.473L38.5046 115.848C37.398 115.415 36.3154 114.957 35.2329 114.428C34.1474 113.913 33.102 113.318 32.1054 112.648C31.981 112.527 31.9098 112.361 31.9076 112.187C31.9053 112.014 31.9721 111.846 32.0933 111.722C32.2146 111.597 32.3802 111.526 32.5539 111.524C32.7276 111.522 32.8951 111.589 33.0195 111.71C33.9958 112.337 35.0169 112.892 36.0747 113.37C37.1332 113.875 38.2157 114.308 39.2983 114.717L40.9582 115.294L42.6423 115.823L44.3264 116.305L46.0341 116.737L47.7423 117.146L49.4504 117.507L51.1823 117.844L52.9145 118.133L54.6466 118.397C55.2239 118.397 55.8253 118.566 56.4027 118.59L58.1348 118.71H61.5991C62.1764 118.71 62.7537 118.71 63.331 118.71C64.4857 118.71 65.7367 118.494 66.7952 118.301L67.6613 118.157L68.5034 117.988C69.0807 117.988 69.634 117.724 70.1873 117.579C71.2939 117.267 72.4247 116.954 73.5073 116.545C74.5962 116.151 75.6641 115.701 76.7067 115.198C78.7919 114.194 80.7671 112.977 82.6005 111.565C83.0576 111.204 83.4908 110.844 83.9238 110.459C84.3568 110.074 84.7897 109.689 85.1265 109.304L85.9445 108.414L86.3293 109.593C86.4032 109.838 86.4919 110.079 86.5942 110.314C86.5942 110.579 86.8346 110.819 86.9549 111.06C87.2183 111.553 87.5156 112.028 87.8449 112.479C88.5492 113.373 89.3568 114.181 90.2507 114.885C92.0074 116.352 94.0227 117.478 96.1928 118.205C98.3956 118.946 100.683 119.407 103.001 119.576H106.489C107.651 119.534 108.808 119.414 109.953 119.215C112.258 118.803 114.52 118.184 116.713 117.363L117.483 117.243Z" fill="#C09068"/>
<path d="M111.373 111.156C111.523 110.571 111.636 109.976 111.709 109.376C111.709 109.111 111.709 108.871 111.709 108.726V108.51C111.709 108.449 111.734 108.391 111.776 108.349C111.819 108.306 111.877 108.281 111.938 108.281C111.999 108.281 112.057 108.306 112.1 108.349C112.142 108.391 112.167 108.449 112.167 108.51V108.726C112.167 108.871 112.167 109.087 112.167 109.376C112.101 110.106 111.98 110.829 111.806 111.541C111.094 111.716 110.37 111.837 109.641 111.902H108.774C108.714 111.902 108.656 111.878 108.613 111.835C108.57 111.792 108.546 111.734 108.546 111.674C108.546 111.613 108.57 111.554 108.613 111.512C108.656 111.469 108.714 111.445 108.774 111.445H109.641C110.223 111.385 110.802 111.288 111.373 111.156Z" fill="#C09068"/>
<path d="M104.661 104.493C104.483 103.522 104.167 102.583 103.723 101.702C103.234 100.754 102.534 99.9314 101.678 99.2963C101.379 99.057 101.046 98.8622 100.691 98.7186C101.059 98.8355 101.408 99.0059 101.726 99.224C102.656 99.832 103.424 100.658 103.963 101.63C104.571 102.715 104.994 103.894 105.214 105.118C103.99 104.897 102.811 104.475 101.726 103.867C100.754 103.328 99.9283 102.56 99.3203 101.63C99.1025 101.311 98.9321 100.963 98.8149 100.595C98.9585 100.95 99.1532 101.282 99.3925 101.581C100.028 102.438 100.85 103.138 101.798 103.626C102.705 104.052 103.67 104.344 104.661 104.493Z" fill="#C09068"/>
<path d="M101.726 41.0785L101.918 41.4872C102.039 41.7518 102.231 42.1368 102.447 42.642C102.664 43.1472 102.929 43.7489 103.193 44.4706C103.458 45.1923 103.747 45.9858 104.035 46.8759C104.324 47.766 104.613 48.7524 104.853 49.8109C105.094 50.8694 105.359 51.976 105.551 53.1307C105.551 53.7081 105.743 54.3096 105.816 54.911C105.888 55.5124 105.96 56.1377 106.032 56.7391C106.104 57.3406 106.032 57.9906 106.152 58.6161C106.273 59.2416 106.152 59.8669 106.152 60.5165C106.152 61.166 106.152 61.7914 106.152 62.4169V64.2933C106.043 65.513 105.866 66.7254 105.623 67.9257C105.623 68.503 105.359 69.0804 105.238 69.6337C105.118 70.187 104.926 70.7167 104.781 71.246C104.477 72.2207 104.115 73.1761 103.699 74.1083C103.338 74.9984 102.905 75.7442 102.568 76.514C102.231 77.2839 101.822 77.741 101.533 78.1981L100.523 79.5936L101.293 78.0536L102.087 76.2738L102.52 75.143C102.688 74.758 102.808 74.325 102.953 73.892C103.097 73.459 103.266 73.002 103.386 72.5209C103.506 72.0397 103.674 71.5584 103.795 71.0292C104.035 69.9947 104.252 68.9123 104.444 67.7816C104.637 66.6509 104.733 65.376 104.829 64.2694V62.4408C104.829 61.8394 104.829 61.2141 104.829 60.6127C104.829 60.0113 104.829 59.3855 104.829 58.7841C104.829 58.1826 104.829 57.5574 104.829 56.9559C104.829 55.7531 104.637 54.5505 104.468 53.4198C104.3 52.2891 104.156 51.1584 103.963 50.1239C103.771 49.0895 103.578 48.103 103.386 47.1888C103.001 45.3846 102.616 43.8689 102.327 42.8104L101.99 41.5839L101.726 41.0785Z" fill="#C09068"/>
<path d="M41.2951 101.485L41.7041 101.678L42.8588 102.207C43.364 102.423 43.9655 102.688 44.6872 102.953C45.4089 103.218 46.2026 103.506 47.0927 103.795C47.9828 104.083 48.9693 104.372 50.0278 104.613C51.0863 104.853 52.1929 105.118 53.3476 105.31L55.1278 105.575C55.7292 105.575 56.3547 105.719 56.9561 105.791L58.8325 105.912C59.458 105.912 60.0836 105.912 60.7331 105.912H64.51C65.7296 105.803 66.9422 105.626 68.1424 105.383C68.7198 105.383 69.2972 105.118 69.8505 104.998C70.4038 104.878 70.9331 104.685 71.4624 104.54C72.4371 104.236 73.3929 103.875 74.325 103.458C75.2151 103.097 75.9608 102.664 76.7307 102.327L78.4147 101.293L79.81 100.283L78.2705 101.052L76.4902 101.846L75.3596 102.279L74.1086 102.712C73.6756 102.857 73.2185 103.025 72.7374 103.145C72.2562 103.266 71.7751 103.434 71.2458 103.554C70.2114 103.795 69.1288 104.012 67.9981 104.204C66.8675 104.396 65.5925 104.493 64.4859 104.589H60.8293C60.2279 104.589 59.6024 104.589 59.0009 104.589H57.1726C55.9697 104.589 54.7669 104.396 53.6362 104.228L50.3405 103.723L47.4055 103.145C45.6012 102.76 44.0857 102.375 43.0272 102.087L41.8003 101.75L41.2951 101.485Z" fill="#C09068"/>
<path d="M93.4047 67.4379C94.83 67.2719 95.8509 65.9818 95.685 64.5565C95.5191 63.1312 94.2292 62.1103 92.8039 62.2762C91.3786 62.4422 90.3577 63.7323 90.5236 65.1576C90.6896 66.5829 91.9795 67.6038 93.4047 67.4379Z" fill="#C09068"/>
<path d="M67.5065 93.1405C67.6725 91.7152 66.6516 90.4256 65.2263 90.2597C63.801 90.0937 62.5111 91.1146 62.3452 92.5399C62.1793 93.9652 63.2002 95.2549 64.6254 95.4208C66.0507 95.5867 67.3406 94.5658 67.5065 93.1405Z" fill="#C09068"/>
<path d="M113.186 18.0756C114.662 16.2105 114.346 13.5023 112.481 12.0267C110.616 10.5511 107.908 10.8667 106.432 12.7318C104.956 14.5969 105.272 17.3055 107.137 18.7811C109.002 20.2567 111.71 19.9407 113.186 18.0756Z" fill="#C09068"/>
<path d="M18.3818 113.071C20.2469 111.596 20.5627 108.887 19.0871 107.022C17.6115 105.157 14.9031 104.841 13.038 106.317C11.1729 107.792 10.8572 110.501 12.3328 112.366C13.8084 114.231 16.5167 114.547 18.3818 113.071Z" fill="#C09068"/>
<path d="M123.826 81.2074C124.72 80.5755 124.932 79.3386 124.3 78.4452C123.668 77.5518 122.431 77.3402 121.538 77.9721C120.645 78.604 120.433 79.8404 121.065 80.7338C121.697 81.6271 122.933 81.8393 123.826 81.2074Z" fill="#C09068"/>
<path d="M84.5188 118.1C85.1469 117.21 84.9345 115.979 84.0444 115.351C83.1542 114.723 81.9235 114.935 81.2954 115.825C80.6672 116.715 80.8795 117.946 81.7696 118.574C82.6598 119.202 83.8906 118.99 84.5188 118.1Z" fill="#C09068"/>
<path d="M120.814 79.0097C121.607 78.4506 121.796 77.3549 121.237 76.5624C120.678 75.7698 119.582 75.5805 118.79 76.1395C117.997 76.6986 117.808 77.7943 118.367 78.5868C118.926 79.3793 120.022 79.5687 120.814 79.0097Z" fill="#C09068"/>
<path d="M79.364 120.688C79.923 119.896 79.7338 118.8 78.9412 118.241C78.1487 117.682 77.0529 117.871 76.4939 118.663C75.9348 119.456 76.1242 120.552 76.9167 121.111C77.7092 121.67 78.8049 121.481 79.364 120.688Z" fill="#C09068"/>
<path d="M122.757 73.5985C123.484 73.0853 123.658 72.0797 123.145 71.3524C122.632 70.6251 121.626 70.4515 120.898 70.9647C120.171 71.478 119.998 72.484 120.511 73.2113C121.024 73.9386 122.03 74.1118 122.757 73.5985Z" fill="#C09068"/>
<path d="M73.7917 122.459C74.3048 121.731 74.1312 120.726 73.4038 120.213C72.6764 119.7 71.6708 119.873 71.1577 120.6C70.6445 121.328 70.8182 122.333 71.5456 122.847C72.273 123.36 73.2786 123.186 73.7917 122.459Z" fill="#C09068"/>
<path d="M123.403 68.6102C124.022 68.1737 124.17 67.3179 123.733 66.6991C123.297 66.0803 122.441 65.9325 121.822 66.369C121.203 66.8056 121.056 67.6613 121.492 68.2802C121.929 68.899 122.784 69.0468 123.403 68.6102Z" fill="#C09068"/>
<path d="M68.6528 123.069C69.0893 122.45 68.9417 121.595 68.3228 121.159C67.704 120.722 66.8485 120.87 66.4119 121.489C65.9754 122.107 66.1231 122.963 66.7419 123.399C67.3607 123.836 68.2162 123.688 68.6528 123.069Z" fill="#C09068"/>
<path d="M123.421 63.5741C124.007 63.1604 124.147 62.3498 123.733 61.7636C123.32 61.1774 122.509 61.0374 121.923 61.4511C121.337 61.8647 121.197 62.6754 121.61 63.2616C122.024 63.8478 122.835 63.9878 123.421 63.5741Z" fill="#C09068"/>
<path d="M69.6932 121.324C70.1093 120.736 69.9697 119.922 69.3814 119.506C68.7931 119.09 67.9788 119.229 67.5627 119.817C67.1466 120.406 67.2862 121.22 67.8745 121.636C68.4628 122.052 69.2771 121.912 69.6932 121.324Z" fill="#C09068"/>
<path d="M128.516 55.8134C129.017 55.4589 129.136 54.7652 128.782 54.264C128.427 53.7629 127.734 53.6439 127.232 53.9984C126.731 54.3529 126.612 55.0466 126.967 55.5477C127.321 56.0489 128.015 56.1678 128.516 55.8134Z" fill="#C09068"/>
<path d="M59.2653 122.924C59.6177 122.425 59.4986 121.734 58.9992 121.382C58.4999 121.029 57.8094 121.149 57.457 121.648C57.1046 122.148 57.2238 122.838 57.7231 123.19C58.2225 123.543 58.913 123.424 59.2653 122.924Z" fill="#C09068"/>
<path d="M122.547 54.912C122.981 54.6056 123.085 54.0049 122.778 53.5707C122.472 53.1365 121.871 53.0328 121.437 53.3392C121.003 53.6457 120.899 54.2463 121.206 54.6805C121.512 55.1148 122.113 55.2184 122.547 54.912Z" fill="#C09068"/>
<path d="M60.9741 120.521C61.2823 120.086 61.1789 119.482 60.7431 119.174C60.3073 118.866 59.7042 118.969 59.396 119.405C59.0877 119.841 59.1911 120.445 59.6269 120.753C60.0627 121.061 60.6658 120.957 60.9741 120.521Z" fill="#C09068"/>
<path d="M127.049 48.119C127.43 47.8493 127.52 47.3216 127.25 46.9403C126.981 46.559 126.453 46.4685 126.072 46.7382C125.69 47.0079 125.6 47.5356 125.87 47.9169C126.14 48.2982 126.667 48.3887 127.049 48.119Z" fill="#C09068"/>
<path d="M51.4367 121.375C51.7049 120.995 51.6145 120.47 51.2346 120.202C50.8547 119.934 50.3294 120.024 50.0612 120.404C49.7931 120.784 49.8835 121.309 50.2634 121.578C50.6433 121.846 51.1685 121.755 51.4367 121.375Z" fill="#C09068"/>
<path d="M120.659 47.6259C120.963 47.4114 121.035 46.9914 120.821 46.6874C120.607 46.3834 120.187 46.3108 119.883 46.5253C119.579 46.7397 119.506 47.1598 119.72 47.4637C119.935 47.7677 120.355 47.8403 120.659 47.6259Z" fill="#C09068"/>
<path d="M47.8454 120.474C48.0599 120.171 47.9875 119.751 47.6836 119.536C47.3796 119.322 46.9591 119.394 46.7446 119.698C46.5301 120.002 46.6027 120.422 46.9067 120.637C47.2106 120.851 47.6309 120.778 47.8454 120.474Z" fill="#C09068"/>
<path d="M119.798 44.3749C120.07 44.1835 120.134 43.808 119.943 43.5365C119.752 43.265 119.376 43.2001 119.105 43.3915C118.833 43.5829 118.769 43.9584 118.96 44.2299C119.152 44.5013 119.527 44.5663 119.798 44.3749Z" fill="#C09068"/>
<path d="M44.4893 119.466C44.6808 119.194 44.6159 118.819 44.3444 118.627C44.073 118.436 43.6977 118.501 43.5063 118.772C43.3149 119.044 43.3797 119.419 43.6512 119.61C43.9227 119.802 44.2979 119.737 44.4893 119.466Z" fill="#C09068"/>
<path d="M118.907 41.7333C119.124 41.5801 119.176 41.28 119.023 41.0629C118.87 40.8457 118.569 40.794 118.352 40.9471C118.135 41.1003 118.083 41.4004 118.237 41.6176C118.39 41.8347 118.69 41.8865 118.907 41.7333Z" fill="#C09068"/>
<path d="M41.9548 118.635C42.108 118.418 42.0561 118.117 41.8389 117.964C41.6218 117.811 41.3216 117.863 41.1684 118.08C41.0152 118.297 41.0672 118.597 41.2844 118.75C41.5015 118.904 41.8016 118.852 41.9548 118.635Z" fill="#C09068"/>
<path d="M117.87 39.5555C118.022 39.4483 118.058 39.2378 117.951 39.0858C117.844 38.9338 117.634 38.8975 117.482 39.0048C117.33 39.112 117.293 39.3225 117.401 39.4745C117.508 39.6265 117.718 39.6628 117.87 39.5555Z" fill="#C09068"/>
<path d="M39.8238 117.697C39.9311 117.545 39.8948 117.335 39.7429 117.228C39.5909 117.121 39.3808 117.157 39.2735 117.309C39.1662 117.461 39.2025 117.671 39.3545 117.778C39.5064 117.885 39.7165 117.849 39.8238 117.697Z" fill="#C09068"/>
<path d="M116.701 37.558C116.821 37.4736 116.849 37.3087 116.765 37.1893C116.68 37.07 116.515 37.0415 116.396 37.1259C116.277 37.2102 116.248 37.3756 116.333 37.495C116.417 37.6143 116.582 37.6423 116.701 37.558Z" fill="#C09068"/>
<path d="M42.9538 113.675C43.0382 113.555 43.0099 113.39 42.8906 113.306C42.7713 113.221 42.6063 113.25 42.5219 113.369C42.4375 113.488 42.4656 113.654 42.5849 113.738C42.7042 113.823 42.8694 113.794 42.9538 113.675Z" fill="#C09068"/>
</svg>
