<svg width="23" height="12" viewBox="0 0 23 12" fill="none" xmlns="http://www.w3.org/2000/svg">
<path d="M6.55884 6.26257C6.55884 6.26257 10.5522 8.95751 9.8064 11.8925C10.3017 11.4827 10.6258 10.9021 10.7148 10.2655C10.8039 9.62888 10.6514 8.98197 10.2876 8.45203C9.0607 6.91238 11.2499 10.1842 13.7759 6.28699C11.3702 2.38976 9.27721 5.82999 10.2876 4.12195C10.6514 3.592 10.8039 2.94509 10.7148 2.30847C10.6258 1.67185 10.3017 1.09131 9.8064 0.681519C9.75687 1.80513 9.43553 2.89985 8.86987 3.87195C8.30421 4.84405 7.51124 5.66434 6.55884 6.26257Z" fill="#C09068"/>
<path d="M9.85449 7.97058C10.1623 8.68938 10.6457 9.31939 11.2605 9.80261C11.8753 10.2858 12.6016 10.6069 13.3728 10.7362C14.144 10.8655 14.9353 10.7991 15.6741 10.5428C16.4128 10.2866 17.0754 9.84895 17.6008 9.2699C21.474 5.70947 22.6769 6.11853 22.6769 6.11853C22.6769 6.11853 20.8725 6.11845 17.6489 3.08728C12.9819 -1.38731 9.97485 4.67517 9.97485 4.67517L9.85449 7.97058Z" fill="#C09068"/>
<path d="M3.1427 9.00525C4.56433 9.00525 5.7168 7.85315 5.7168 6.43152C5.7168 5.00989 4.56433 3.8573 3.1427 3.8573C1.72108 3.8573 0.568604 5.00989 0.568604 6.43152C0.568604 7.85315 1.72108 9.00525 3.1427 9.00525Z" fill="#C09068"/>
</svg>
